<?xml version="1.0" standalone="no"?>
<!DOCTYPE svg PUBLIC "-//W3C//DTD SVG 1.1//EN" "http://www.w3.org/Graphics/SVG/1.1/DTD/svg11.dtd" >
<svg xmlns="http://www.w3.org/2000/svg" xmlns:xlink="http://www.w3.org/1999/xlink" version="1.1">
<metadata>
Created by FontForge 20201107 at Fri Mar 25 20:42:43 2022
 By Jimmy Wärting
Latin script characters are taken from Universalis ADF Std Regular which has following license:

"Copyright Arkandis Digital Foundry, under GNU General Public Licence V2 and later, with font exception."

Arabic designed by Mohammad Hanif. OTF made by Lateef Sagar Shaikh. This font is free for distribution under GPL. Please visit groups.yahoo.com/group/paktype for more details.

Copyright (c) Pakistani Typography. 

As a special exception, if you create a document which uses this font, and embed this font or unaltered portions of this font into the document, this font does not by itself cause the resulting document to be covered by the GNU General Public License. This exception does not however invalidate any other reasons why the document might be covered by the GNU General Public License. If you modify this font, you may extend this exception to your version of the font, but you are not obligated to do so. If you do not wish to do so, delete this exception statement from your version.
</metadata>
<defs>
<font id="PakTypeTehreer" horiz-adv-x="0" >
  <font-face 
    font-family="PakType Tehreer"
    font-weight="400"
    font-stretch="normal"
    units-per-em="2048"
    panose-1="0 0 4 0 0 0 0 0 0 0"
    ascent="1638"
    descent="-410"
    x-height="878"
    cap-height="1400"
    bbox="-386 -1285 6284 2528.53"
    underline-thickness="204"
    underline-position="-1638"
    unicode-range="U+0020-FEF4"
  />
<missing-glyph horiz-adv-x="748" 
d="M68 0v1365h544v-1365h-544zM136 68h408v1229h-408v-1229z" />
    <glyph glyph-name="uniFDF0" unicode="&#xfdf0;" horiz-adv-x="2219" arabic-form="isolated" 
d="M481 -20l-171 -71q-33 -10 -73 -10h-9l-19 -39q59 -8 133 -8h17q129 0 320 29q184 28 298 28q106 0 145 -16l-73 -156q-96 19 -208 19h-13q-120 0 -245 -36q-128 -37 -260 -37q-146 0 -296 41q15 155 188 289l364 135q26 18 148 18h94v-166h-91q-44 2 -89 3h-46
q-89 -3 -114 -23zM1118 206q4 -40 111 -40h92v-166h-91q-105 47 -125 125q0 -11 -44 -59q-11 -13 -75 -38q-50 -20 -67 -28h-97v166h100q24 0 66 37q10 9 10 421v21q0 441 -84 565q80 144 111 238q93 -61 123 -174q17 -63 17 -182q0 -108 -31 -327q-32 -226 -32 -330
q0 -12 1 -21q3 -92 15 -208zM1819 360q-143 -105 -143 -146q0 -19 44 -19h6q68 0 245 55q-58 67 -152 110zM1484 220l97 -10q85 161 324 339q15 3 30 3q17 -3 59 -36q124 -102 179 -137q0 -151 -226 -261q-197 -96 -366 -96h-17q-77 0 -125 84q-10 -62 -62 -84l-54 -23v166
l44 26q46 52 46 118v6q47 -12 71 -95z" />
    <glyph glyph-name="uniFDF1" unicode="&#xfdf1;" horiz-adv-x="1890" arabic-form="isolated" 
d="M481 -20l-171 -71q-33 -10 -73 -10h-9l-19 -39q59 -8 133 -8h17q129 0 320 29q184 28 298 28q106 0 145 -16l-73 -156q-96 19 -208 19h-13q-120 0 -245 -36q-128 -37 -260 -37q-146 0 -296 41q15 155 188 289l364 135q26 18 148 18h94v-166h-91q-44 2 -89 3h-46
q-89 -3 -114 -23zM1118 206q4 -40 111 -40h92v-166h-91q-105 47 -125 125q0 -11 -44 -59q-11 -13 -75 -38q-50 -20 -67 -28h-97v166h100q24 0 66 37q10 9 10 421v21q0 441 -84 565q80 144 111 238q93 -61 123 -174q17 -63 17 -182q0 -108 -31 -327q-32 -226 -32 -330
q0 -12 1 -21q3 -92 15 -208zM1717 291q-12 87 -46 126q-31 -48 -95 -84q-65 -37 -121 -37h-8q-78 0 -95 82q67 244 208 419q66 -62 189 -241q73 -106 95 -206q6 -27 6 -53q-4 -217 -403 -299h-79h-46v166h47q180 0 348 127zM1528 588l-64 -116q23 -7 36 -10q28 -6 49 -6
q53 0 53 34q0 36 -74 98zM1739 1155l123 -124l-128 -134l-116 123zM1469 1157l123 -124l-128 -134l-116 123z" />
    <glyph glyph-name="uniFDF2" unicode="&#xfdf2;" horiz-adv-x="1762" arabic-form="isolated" 
d="M797.527 2315.34q28.1572 -21.7412 28.1572 -73.7568q0 -3.30273 -2.44922 -71.5547q-1.63184 -45.4102 -1.63184 -63.8486q-1.63281 -40.7314 -1.63281 -85.041q0 -49.5381 6.12207 -55.5918l-56.3145 -33.5762q-19.9961 9.90723 -19.9961 73.4814
q0 1.10059 4.89648 95.2227q3.67383 78.4355 3.67383 101.828q0 53.1162 -15.5078 71.8311q34.2783 26.1445 54.6826 41.0059zM986 1823q0 -198 -121 -198q-41 0 -77 27q-5 -23 -16.5 -39.5t-29 -31t-36.5 -23t-41 -8.5q-96 0 -96 126q0 30 28 118l44 3q0 -117 39 -117
q60 0 90 180l44 5q21 -98 70 -98q48 0 56 158l30 8q7 -32 11.5 -60t4.5 -50zM406 171q-62 -102 -190 -102q-52 0 -102 20q-90 36 -90 144q0 61 30 120q127 28 217 110q102 88 102 198q0 11 -1 23q71 -17 71 -166v-41l-1 -39q0 -124 25 -172q48 -79 84 -99h91v-166h-112
q-2 0 -54 32q-70 44 -70 138zM176 239q48 -27 84 -27q41 0 70 31q19 28 19 71q0 25 -7 53q-20 -55 -166 -128zM941 207q4 -40 111 -40h92v-166h-91q-105 47 -125 125q0 -11 -44 -59q-11 -13 -75 -38q-50 -20 -67 -28h-97v166h100q24 0 66 37q10 9 10 421v21q0 441 -84 565
q80 144 111 238q93 -61 123 -174q17 -63 17 -182q0 -108 -31 -327q-32 -226 -32 -330q0 -12 1 -21q3 -92 15 -208zM1382 178q0 -71 -75 -127q-41 -31 -97 -50h-64v166h65q4 0 41 37q13 13 13 421q0 462 -87 586q82 144 114 238q96 -63 124 -174q13 -52 13 -182
q0 -104 -30 -327q-31 -224 -31 -351q14 -233 14 -237zM1650 1388q69 -79 69 -268q0 -12 -6 -260q-4 -165 -4 -232q-4 -148 -4 -309q0 -180 15 -202l-138 -122q-49 36 -49 267q0 4 12 346q9 285 9 370q0 193 -38 261q84 95 134 149z" />
    <glyph glyph-name="uniFDF3" unicode="&#xfdf3;" horiz-adv-x="2578" arabic-form="isolated" 
d="M1412 166q115 10 207 81q-17 46 -110 175q-85 118 -111 194q2 84 59 190q66 140 80 185q131 31 396 155q288 131 361 212q22 0 22 -24q0 -30 -40 -109l-51 -102q-129 -75 -216 -115q-114 -58 -494 -220q46 -158 141 -279q147 -192 195 -226q-3 -39 -22 -153
q-155 -88 -302 -130h-152v166h37zM753 25q-2 -10 -12 -44q-80 -263 -422 -475q-179 -111 -308 -149q-1 1 -1 5q5 40 11 73q9 48 24 96q534 223 645 469l-125 181q10 81 61 172q13 -4 78 -105q49 -82 99 -82h32v-166h-30q-11 0 -25 13q-25 23 -27 12zM1064 404q41 6 67 6
q37 0 39 -13q7 -47 47 -146q31 -77 61 -85h96v-166h-90q-14 0 -63 25q-73 37 -93 79l-17 -19q-4 -19 -55 -55q-43 -30 -49 -30h-172v166h124q24 0 105 238zM2470 1388q69 -79 69 -268q0 -12 -6 -260q-4 -165 -4 -232q-4 -148 -4 -309q0 -180 15 -202l-138 -122
q-49 36 -49 267q0 4 12 346q9 285 9 370q0 193 -38 261q84 95 134 149zM1002 -226l123 -124l-128 -134l-116 123z" />
    <glyph glyph-name="uniFDF4" unicode="&#xfdf4;" horiz-adv-x="3474" arabic-form="isolated" 
d="M990 0h-60v166h10h53q55 0 80 58q7 15 79 130q76 120 77 122q17 16 46 16h7q53 0 75 -25q61 -68 82 -132q35 -107 35 -141q0 -28 31 -28h55v-166h-61q-45 0 -52 59q-15 -30 -131 -53q-10 -2 -20 -2q-32 1 -67 16q-26 11 -52 39l-50 51l-60 -85zM1332 176q8 19 8 45
q0 4 -1 6q-26 52 -51 65q-9 5 -25 6q-14 1 -31 -6q-33 -14 -33 -39q0 -3 1 -7q13 -50 65 -71q10 -4 19 -7q18 -6 27 -6q7 0 13 3q4 2 8 11zM3100 229q-19 29 -50 52q11 47 50 143q131 -93 291 -117q17 -31 17 -71q0 -55 -29 -102q-190 -1 -390 -121q-43 -13 -79 -13h-46v166
h47h18q35 0 80 21zM533 946h1q24 0 62 -126q38 -124 103 -437q30 -145 138 -217h90v-166h-89q-87 0 -144 85q-27 40 -73 147q-82 -157 -131 -167q-29 -6 -267 -81q-120 -38 -182 -109q-14 16 -16 51v4q0 25 10 64q14 54 16 70q120 101 240 117q216 28 289 90v11
q0 161 -132 493zM2429 318q39 -88 110 -121q73 -28 173 -31h51h53h47v-166h-109q-129 0 -235 119q-140 157 -149 174l-216 -112l-268 -99q-164 -76 -164 -82h-161v166l134 1l122 48l158 87q-120 45 -158 70q-63 42 -186 107l102 189q381 -166 603 -166h22q218 0 451 105
q-107 -128 -150 -170z" />
    <glyph glyph-name="uniFDF5" unicode="&#xfdf5;" horiz-adv-x="3104" arabic-form="isolated" 
d="M370 534q118 -2 157 -80l65 -129q80 -159 112 -159h48v-166h-44q-46 19 -61 20q-36 10 -71 51l-38 -46l-148 95q-70 60 -70 167q0 24 1 48q-145 -9 -166 -142q30 -108 61 -345q34 -261 34 -477q0 -362 -95 -450q23 131 23 258q0 192 -68.5 495t-68.5 445l65 193
q29 85 84 138q60 59 180 84zM1995 206q4 -40 111 -40h92v-166h-91q-105 47 -125 125q0 -11 -44 -59q-11 -13 -75 -38q-50 -20 -67 -28h-97v166h100q24 0 66 37q10 9 10 421v21q0 441 -84 565q80 144 111 238q93 -61 123 -174q17 -63 17 -182q0 -108 -31 -327
q-32 -226 -32 -330q0 -12 1 -21q3 -92 15 -208zM949 0h-197v166h106q102 0 142 66q-72 156 -211 247l31 199l36 12q82 -126 254 -126q214 0 428 155l50 -10q3 -28 3 -49q-1 -70 -18 -150q-36 -18 -106 -80q-71 -63 -113 -78q-18 -53 -18 -91q1 -95 112 -95h250v-166h-246
q-127 0 -168 36q-24 21 -113 115q-172 -151 -222 -151zM2695 361q-143 -105 -143 -146q0 -19 44 -19h6q68 0 245 55q-58 67 -152 110zM2360 221l97 -10q85 161 324 339q15 3 30 3q17 -3 59 -36q124 -102 179 -137q0 -151 -226 -261q-197 -96 -366 -96h-17q-77 0 -125 84
q-10 -62 -62 -84l-54 -23v166l44 26q46 52 46 118v6q47 -12 71 -95z" />
    <glyph glyph-name="uniFDF6" unicode="&#xfdf6;" horiz-adv-x="3399" arabic-form="isolated" 
d="M891 1139q80 142 111 238q96 -61 123 -171q13 -60 13 -185q0 -103 -30 -323.5t-30 -353.5q0 -213 60 -437q-57 -190 -241 -321q-189 -131 -412 -131q-194 0 -364 110q-42 41 -42 196q0 300 138 490q35 12 35 -28q-62 -138 -62 -256q0 -144 91 -228.5t239 -84.5
q205 0 431 160q0 55 11 316t11 423q0 463 -82 586zM1853 0h-50v167h50q165 0 194 65q64 144 97 170q20 -156 128 -156q53 0 147 34q110 40 150 188h24q38 -135 204 -135q19 0 39 2q-17 44 -17 86q1 94 66 178h16q31 -111 119 -219q-15 -69 -58 -177q-81 -51 -153 -51
q-152 1 -230 75q-5 0 -102 -94q-61 -59 -197 -59h-9q-84 0 -133 56q-70 -130 -285 -130zM3185 520q11 -5 78 -105q66 -99 69 -104v-18q-3 -37 -34 -143q-79 -267 -420 -478q-176 -109 -310 -145v2q1 4 15 76q18 92 19 96q536 225 646 469l-126 179q10 78 63 171zM1796 166
v-166h-49q-83 0 -120 37q-3 -112 -17 -143q-50 -113 -336 -318q-249 -179 -378 -206q0 58 29 154q84 31 299 169q14 9 220 173q76 59 76 137v10l-238 -60q-13 39 -13 103q1 141 46 266q51 142 133 142q86 0 181 -226q30 -72 118 -72h49zM1354 116q106 17 106 33q0 1 -1 2
q-48 89 -75 106z" />
    <glyph glyph-name="uniFDF7" unicode="&#xfdf7;" horiz-adv-x="2639" arabic-form="isolated" 
d="M396 168q-62 -102 -190 -102q-52 0 -102 20q-90 36 -90 144q0 61 30 120q127 28 217 110q102 88 102 198q0 11 -1 23q71 -17 71 -166v-41l-1 -39q0 -124 25 -172q48 -79 84 -99h91v-166h-112q-2 0 -54 32q-70 44 -70 138zM166 236q48 -27 84 -27q41 0 70 31q19 28 19 71
q0 25 -7 53q-20 -55 -166 -128zM1469 206q4 -40 111 -40h92v-166h-91q-105 47 -125 125q0 -11 -44 -59q-11 -13 -75 -38q-50 -20 -67 -28h-97v166h100q24 0 66 37q10 9 10 421v21q0 441 -84 565q80 144 111 238q93 -61 123 -174q17 -63 17 -182q0 -108 -31 -327
q-32 -226 -32 -330q0 -12 1 -21q3 -92 15 -208zM2495 302q-307 -302 -546 -302h-230h-46v166h47q356 0 405 61h-156q-184 0 -231 134q-8 23 -8 48q0 24 7 51q59 226 232 306l350 160q-22 -118 -63 -217q-272 -90 -351 -216q51 -53 262 -53h8q247 0 424 110
q-96 -222 -104 -248zM862 404q41 6 67 6q37 0 39 -13q7 -47 47 -146q31 -77 61 -85h96v-166h-90q-14 0 -63 25q-73 37 -93 79l-17 -19q-4 -19 -55 -55q-43 -30 -49 -30h-172v166h124q24 0 105 238zM760 -121l123 -124l-128 -134l-116 123zM1030 -122l123 -124l-128 -134
l-116 123z" />
    <glyph glyph-name="uniFDF8" unicode="&#xfdf8;" horiz-adv-x="3054" arabic-form="isolated" 
d="M413 534q118 -2 157 -80l65 -129q80 -159 112 -159h48v-166h-44q-46 19 -61 20q-36 10 -71 51l-38 -46l-148 95q-70 60 -70 167q0 24 1 48q-145 -9 -166 -142q30 -108 61 -345q34 -261 34 -477q0 -362 -95 -450q23 131 23 258q0 192 -68.5 495t-68.5 445l65 193
q29 85 84 138q60 59 180 84zM1090 206q4 -40 111 -40h92v-166h-91q-105 47 -125 125q0 -11 -44 -59q-11 -13 -75 -38q-50 -20 -67 -28h-97v166h100q24 0 66 37q10 9 10 421v21q0 441 -84 565q80 144 111 238q93 -61 123 -174q17 -63 17 -182q0 -108 -31 -327
q-32 -226 -32 -330q0 -12 1 -21q3 -92 15 -208zM1345 0h-50v167h50q165 0 194 65q64 144 97 170q20 -156 128 -156q53 0 147 34q110 40 150 188h24q38 -135 204 -135q19 0 39 2q-17 44 -17 86q1 94 66 178h16q31 -111 119 -219q-15 -69 -58 -177q-81 -51 -153 -51
q-152 1 -230 75q-5 0 -102 -94q-61 -59 -197 -59h-9q-84 0 -133 56q-70 -130 -285 -130zM2816 555q166 -199 166 -296v-40q-3 -273 -26 -328q-97 -229 -220 -339q-189 -168 -350 -237q6 75 38 200q272 137 397 449q2 16 2 30q1 39 -19 60l-30 -3q-30 -12 -63 -12h-5
q-57 0 -122 29q5 115 88 250zM2758 349q-72 -97 -72 -127q0 -24 79 -24q14 1 26 1q25 25 25 52q0 38 -58 98z" />
    <glyph glyph-name="uniFDF9" unicode="&#xfdf9;" horiz-adv-x="2700" arabic-form="isolated" 
d="M1588 206q4 -40 111 -40h92v-166h-91q-105 47 -125 125q0 -11 -44 -59q-11 -13 -75 -38q-50 -20 -67 -28h-97v166h100q24 0 66 37q10 9 10 421v21q0 441 -84 565q80 144 111 238q93 -61 123 -174q17 -63 17 -182q0 -108 -31 -327q-32 -226 -32 -330q0 -12 1 -21
q3 -92 15 -208zM2292 361q-143 -105 -143 -146q0 -19 44 -19h6q68 0 245 55q-58 67 -152 110zM1957 221l97 -10q85 161 324 339q15 3 30 3q17 -3 59 -36q124 -102 179 -137q0 -151 -226 -261q-197 -96 -366 -96h-17q-77 0 -125 84q-10 -62 -62 -84l-54 -23v166l44 26
q46 52 46 118v6q47 -12 71 -95zM1291 0h-91l-126 52l-72 -27l-60 -25l5 -25l152 -40l134 -85q0 -47 -194 -287q-93 -78 -332 -158q-214 -71 -357 -71q-31 0 -57 4q-157 102 -216 174q-38 46 -38 121v8q0 39 14 84q109 194 156 219l-68 -173l18 -151q100 -94 184 -99
q156 -9 241 -9h8q163 0 391 139l100 127v2q-3 7 -141 48q-94 28 -142 56q-10 15 -10 36q0 41 26 80q63 95 121 138q93 74 168 74h7l13 -1q60 -12 120 -45h46v-166z" />
    <glyph glyph-name="uniFDFA" unicode="&#xfdfa;" horiz-adv-x="2001" arabic-form="isolated" 
d="M666 1750h15q37 0 92 -539l52 -34h19q63 0 180 87q25 -87 55 -87h18q70 34 70 87h54v-53h72l-16 92h16l38 -39v-72l-74 -72h-36l-54 36l-70 -90v-51l89 -90h20v162h15l36 -39v-123h20q89 0 107 52l-36 448h36l53 -428h16q135 99 165 159q0 30 -165 55l-16 53
q32 145 72 145h38q107 -58 107 -198v-55q0 -115 -201 -270q0 -152 110 -213v18l-54 142q0 117 159 144q148 -18 148 -73q-159 0 -253 -33q20 -147 142 -147q113 16 200 72l16 -17q0 -116 -338 -196h-74q-72 27 -72 108h-36q-29 -126 -108 -126q16 -200 73 -200q66 0 143 72
h18q0 -72 36 -72q163 218 268 218q74 0 129 -92v-54q0 -158 -292 -195h-14l-91 18l-36 -39l-18 110q-75 -71 -143 -71q-73 15 -73 71l-72 -89q110 -37 110 -72v-39q0 -182 -431 -267h-36q-163 0 -163 197v54q0 135 52 145v-18l-16 -161q53 -128 163 -128q189 0 357 162v16
q-160 14 -160 57v33q160 126 160 255q0 96 -90 107l-52 70l-251 -88l16 -484v-20h-36v20l-36 467l-127 -19h-70q-119 0 -217 181h-17q-137 -273 -162 -273h-36q-90 46 -90 273v35h36v-72q0 -100 74 -125l195 269h21q30 0 106 -144l108 -35h161v15l-17 377h17q37 0 74 -144
l-20 -15h-19l19 -20v-178h56l251 91l89 -111l-19 126v38q-162 0 -162 198v33l20 18v21q-73 0 -73 50h-17q-95 -71 -164 -71q-104 0 -124 183l-90 -93q55 0 90 -69v-21q0 -39 -125 -89v-18l-74 18l-269 -181q-108 37 -108 75v72q0 104 90 213q-54 0 -54 36v19l38 214h34
l-34 -142l16 -54l55 35h18v-53q-127 -181 -127 -252l54 -73q215 162 287 162l-16 18v71q195 142 195 236zM1167 1695q-8 -37 -323 -161h-19v36q0 45 342 125zM1492 1640l17 -15v-19l-645 -233l-20 17v19zM1509 1303v-20h38v20h-38zM540 1103v-37h52l-34 37h-18zM1277 817
v-38l16 -126q108 65 108 164v34zM1618 347h87q200 32 200 90l-108 39q-101 0 -179 -129zM971 476l53 -39l35 39h20l36 -39v-19q0 -36 -56 -36l-53 22l-35 -39l-55 53zM558 457h53l36 -75l-18 -17h-18q70 -136 70 -234q-42 -104 -70 -104h-53q-90 49 -90 104h-21
q0 -70 -86 -123h-91q-55 0 -55 267h-16q-38 -267 -110 -267q-46 0 -71 143v162h37v-108q10 -106 54 -106q90 305 141 305l20 -22l-20 -86v-91q0 -64 54 -106q128 25 128 106l-17 232h32q45 -306 111 -306h71v20l-71 267v39z" />
    <glyph glyph-name="uniFDFB" unicode="&#xfdfb;" horiz-adv-x="2018" arabic-form="isolated" 
d="M476 1630l109 -234h-53q0 -326 143 -411q89 -70 89 -251h18l17 53l-107 752l19 73h36l160 -914l56 -40h35l-124 844l16 91h37q36 -66 144 -916h35l35 36l-35 126q0 150 199 180l485 -140q0 -92 -110 -92q-449 -164 -485 -216l-54 15l-52 -15q0 -360 125 -360l126 16
l-35 128q46 196 142 196q539 -102 539 -141q0 -82 -322 -161q-269 -118 -269 -182h-20l-17 55l-127 -18h-90l-52 33h-18q-159 -285 -505 -285h-90q-166 0 -198 270l20 180v18h-20q0 -137 -194 -162h-40l-14 19h-18q0 250 232 374v162h34l20 -106l108 127h15q0 -73 -103 -220
v-33l33 -36l234 69q-53 612 -234 612q-267 262 -267 361l15 15l219 -85v-36h-56v-21q192 -215 233 -215q-53 272 -53 467l18 18h16zM1483 1579l18 -20v-20l-360 -158l-16 -21h-54v21q0 55 395 178zM603 913v-21l37 -306h35q36 0 72 112q0 99 -144 215zM1180 892l34 -179
l343 110q0 56 -306 90zM799 698q-41 -217 -144 -217v-161q-39 -198 -179 -198h-70l-70 55v-40q0 -178 214 -178q503 90 503 268q-24 324 -90 324q-111 0 -125 147h-39zM1195 514l91 -69l-72 -71q-83 36 -89 71zM99 335v-55h54l109 94v107h-18q-141 -111 -145 -146zM1358 392
q53 -13 53 -126l342 108v18l-325 53zM351 374q0 -125 125 -125l127 53l-18 123q-234 -13 -234 -51zM1483 104h18l72 -71v-20l-52 -54h-20l-73 74z" />
    <glyph glyph-name="uniFDFC" unicode="&#xfdfc;" horiz-adv-x="2442" arabic-form="isolated" 
d="M872 1139q80 142 111 238q96 -61 123 -171q13 -60 13 -185q0 -103 -30 -323.5t-30 -353.5q0 -213 60 -437q-57 -190 -241 -321q-189 -131 -412 -131q-194 0 -364 110q-42 41 -42 196q0 300 138 490q35 12 35 -28q-62 -138 -62 -256q0 -144 91 -228.5t239 -84.5
q205 0 431 160q0 55 11 316t11 423q0 463 -82 586zM2250 520q11 -5 78 -105q66 -99 69 -104v-18q-3 -37 -34 -143q-79 -267 -420 -478q-176 -109 -310 -145v2q1 4 15 76q18 92 19 96q536 225 646 469l-126 179q10 78 63 171zM1663 0h-119v166h125q42 0 105 64q-33 51 -33 62
q0 124 54 182q29 2 30 -2q26 -81 107 -196q-72 -276 -269 -276zM1543 166v-166h-29q-165 0 -216 47q-96 88 -96 270v256v284q0 376 -26 441l151 111q40 -98 49 -307q8 -176 8 -234l-7 -268v-36q-1 -43 -1 -80q0 -181 24 -240q23 -57 43 -63q47 -15 71 -15h29zM1452 -292
l123 -124l-128 -134l-116 123zM1182 -290l123 -124l-128 -134l-116 123z" />
    <glyph glyph-name="uni0620.medi" unicode="&#x620;" horiz-adv-x="527" 
d="M85 -141q0 60 35 103q34 42 86 42q49 0 85 -43q35 -42 35 -102q0 -61 -35 -102q-36 -42 -85 -42q-51 0 -86 42t-35 102zM248 -147q0 21 -13 36t-31 15l-28 -15q-14 -15 -14 -38q0 -17 14 -33q15 -17 30 -16q11 1 20 8q17 13 21 32q1 6 1 11zM229 404q41 6 67 6
q37 0 39 -13q7 -47 47 -146q31 -77 61 -85h96v-166h-90q-14 0 -63 25q-73 37 -93 79l-17 -19q-4 -19 -55 -55q-43 -30 -49 -30h-172v166h124q24 0 105 238z" />
    <glyph glyph-name="uni0620.fina" unicode="&#x620;" horiz-adv-x="980" 
d="M1008 0h-91l-126 52l-72 -27l-60 -25l5 -25l152 -40l134 -85q0 -47 -194 -287q-137 -116 -332 -158q-167 -36 -268 -36q-134 0 -134 35q0 5 38 117q89 -9 241 -9h4q169 0 395 139l101 128q-1 8 -142 49q-94 27 -142 56q-10 14 -10 36q0 32 26 80q48 89 121 138
q94 74 175 74q60 -6 133 -46h46v-166z" />
    <glyph glyph-name="uni0621" unicode="&#x621;" horiz-adv-x="843" arabic-form="isolated" 
d="M577 816l-40 -156l-217 -133l96 -20h70l85 5l98 25l121 44l-31 -107l-41 -48l-197 -110l-436 -278l34 161l201 149l-79 18l-41 29l35 197l148 118z" />
    <glyph glyph-name="uni0622" unicode="&#x622;" horiz-adv-x="695" arabic-form="isolated" 
d="M682 1780q1 -23 1 -54q0 -107 -40 -147q-42 -42 -105 -42q-37 0 -142 18q-134 23 -174 23q-52 0 -216 -137q127 255 253 255q41 0 128 -16t120 -16q55 0 99 28t76 88zM349 1382q69 -79 69 -268q0 -12 -6 -260q-4 -165 -4 -232q-4 -148 -4 -309q0 -180 15 -202l-138 -122
q-49 36 -49 267q0 4 12 346q9 285 9 370q0 193 -38 261q84 95 134 149z" />
    <glyph glyph-name="uni0623" unicode="&#x623;" horiz-adv-x="539" arabic-form="isolated" 
d="M301.438 1737.02l-19.8477 -58.0977l-104.651 -48.8223l46.3115 -7.81152h34.2822l40.8975 1.95312l46.9131 9.27637l58.3389 16.1113l-15.0361 -39.5459l-19.2461 -17.5762l-95.6289 -41.0107l-209.902 -103.015l16.8398 59.5635l96.2305 55.1689l-37.8906 6.83496
l-19.8477 10.7402l16.8408 73.2334l71.5713 43.9395zM301 1388q69 -79 69 -268q0 -12 -6 -260q-4 -165 -4 -232q-4 -148 -4 -309q0 -180 15 -202l-138 -122q-49 36 -49 267q0 4 12 346q9 285 9 370q0 193 -38 261q84 95 134 149z" />
    <glyph glyph-name="uni0624" unicode="&#x624;" horiz-adv-x="736" arabic-form="isolated" 
d="M444.438 913.02l-19.8477 -58.0977l-104.651 -48.8223l46.3115 -7.81152h34.2822l40.8975 1.95312l46.9131 9.27637l58.3389 16.1113l-15.0361 -39.5459l-19.2461 -17.5762l-95.6289 -41.0107l-209.902 -103.015l16.8398 59.5635l96.2305 55.1689l-37.8906 6.83496
l-19.8477 10.7402l16.8408 73.2334l71.5713 43.9395zM467 555q166 -199 166 -296v-40q-3 -273 -26 -328q-97 -229 -220 -339q-189 -168 -350 -237q6 75 38 200q272 137 397 449q2 16 2 30q1 39 -19 60l-30 -3q-30 -12 -63 -12h-5q-57 0 -122 29q5 115 88 250zM409 349
q-72 -97 -72 -127q0 -24 79 -24q14 1 26 1q25 25 25 52q0 38 -58 98z" />
    <glyph glyph-name="uni0625" unicode="&#x625;" horiz-adv-x="513" arabic-form="isolated" 
d="M252.438 -165.98l-19.8477 -58.0977l-104.651 -48.8223l46.3115 -7.81152h34.2822l40.8975 1.95312l46.9131 9.27637l58.3389 16.1113l-15.0361 -39.5459l-19.2461 -17.5762l-95.6289 -41.0107l-209.902 -103.015l16.8398 59.5635l96.2305 55.1689l-37.8906 6.83496
l-19.8477 10.7402l16.8408 73.2334l71.5713 43.9395zM294 1388q69 -79 69 -268q0 -12 -6 -260q-4 -165 -4 -232q-4 -148 -4 -309q0 -180 15 -202l-138 -122q-49 36 -49 267q0 4 12 346q9 285 9 370q0 193 -38 261q84 95 134 149z" />
    <glyph glyph-name="uni0626" unicode="&#x626;" horiz-adv-x="1461" arabic-form="isolated" 
d="M464.438 713.02l-19.8477 -58.0977l-104.651 -48.8223l46.3115 -7.81152h34.2822l40.8975 1.95312l46.9131 9.27637l58.3389 16.1113l-15.0361 -39.5459l-19.2461 -17.5762l-95.6289 -41.0107l-209.902 -103.015l16.8398 59.5635l96.2305 55.1689l-37.8906 6.83496
l-19.8477 10.7402l16.8408 73.2334l71.5713 43.9395zM1360 543l-43 -31l-108 82q-32 -7 -170 -151l-117 -143l68 -46l99 -55q109 -66 117 -78q18 -28 18 -72q0 -18 -3 -40l-57 -110l-111 -179q-38 -33 -219 -117q-113 -53 -214 -77q-141 -34 -238 -34q-16 0 -78 19
q-80 25 -141 60q-34 21 -51 59q-59 134 -61 220l43 260l83 85v-226q18 -141 48 -207q15 -33 89 -68q66 -31 121 -31q122 0 253 50q154 59 273 156l109 150l-187 74l-90 87l-1 207l68 65q120 137 124 141q107 120 145 147l135 83l128 -83z" />
    <glyph glyph-name="uni0627" unicode="&#x627;" horiz-adv-x="307" arabic-form="isolated" 
d="M194 1388q69 -79 69 -268q0 -12 -6 -260q-4 -165 -4 -232q-4 -148 -4 -309q0 -180 15 -202l-138 -122q-49 36 -49 267q0 4 12 346q9 285 9 370q0 193 -38 261q84 95 134 149z" />
    <glyph glyph-name="uni0628" unicode="&#x628;" horiz-adv-x="1750" arabic-form="isolated" 
d="M1531 630l48 -72l123 -119l-6 -98l-84 -203l-530 -89l-457 -49q-81 -5 -142 -5t-101 5q-103 13 -198 59l-64 71l-69 186l154 201l47 -230q18 -45 78 -70q97 -40 237 -43l400 29l393 54l177 45l-108 152l66 190zM945 -234l123 -124l-128 -134l-116 123z" />
    <glyph glyph-name="uni0629" unicode="&#x629;" horiz-adv-x="681" arabic-form="isolated" 
d="M78 688l24 146l22 64l162 -210q58 21 165 87q138 87 165 102l-14 -91q-12 -72 -12 -108q-25 -10 -88 -54q-50 -36 -95 -46q30 -102 30 -190q0 -297 -349 -388q-58 68 -58 172q0 186 134 378q-28 69 -86 138zM253 460q-151 -135 -151 -203q0 -35 38 -35q72 0 224 109
q-38 71 -111 129zM465 1235l123 -124l-128 -134l-116 123zM195 1236l123 -124l-128 -134l-116 123z" />
    <glyph glyph-name="uni062A" unicode="&#x62a;" horiz-adv-x="1760" arabic-form="isolated" 
d="M1531 630l48 -72l123 -119l-6 -98l-84 -203l-530 -89l-457 -49q-81 -5 -142 -5t-101 5q-103 13 -198 59l-64 71l-69 186l154 201l47 -230q18 -45 78 -70q97 -40 237 -43l400 29l393 54l177 45l-108 152l66 190zM1035 760l123 -124l-128 -134l-116 123zM765 761l123 -124
l-128 -134l-116 123z" />
    <glyph glyph-name="uni062B" unicode="&#x62b;" horiz-adv-x="1750" arabic-form="isolated" 
d="M1531 630l48 -72l123 -119l-6 -98l-84 -203l-530 -89l-457 -49q-81 -5 -142 -5t-101 5q-103 13 -198 59l-64 71l-69 186l154 201l47 -230q18 -45 78 -70q97 -40 237 -43l400 29l393 54l177 45l-108 152l66 190zM1029 758l123 -124l-128 -134l-116 123zM759 760l123 -124
l-128 -134l-116 123zM894 1003l123 -124l-128 -134l-116 123z" />
    <glyph glyph-name="uni062C" unicode="&#x62c;" horiz-adv-x="1534" arabic-form="isolated" 
d="M198 771q111 -41 300 -41h34q252 0 362 13q172 21 370 59q-26 -67 -64 -116q-25 -32 -70 -75q-153 -50 -448 -331q-378 -360 -378 -659v-21q0 -222 212 -271q112 -26 234 -26q101 0 210 18q164 27 279 27q45 0 84 -4q147 -51 147 -92q-1 -12 -14 -24q-3 -2 -46 -30
q-22 -14 -49 -103q-68 76 -131 76q-8 0 -286 -39q-57 -8 -127 -8q-69 0 -152 8q-140 13 -143 14q-127 36 -172 67q-167 80 -167 375q0 403 695 993q-217 -30 -407 -30h-44q-157 0 -359 16q14 44 130 204zM916 12l123 -124l-128 -134l-116 123z" />
    <glyph glyph-name="uni062D" unicode="&#x62d;" horiz-adv-x="1519" arabic-form="isolated" 
d="M198 771q111 -41 300 -41h34q252 0 362 13q172 21 370 59q-26 -67 -64 -116q-25 -32 -70 -75q-153 -50 -448 -331q-378 -360 -378 -659v-21q0 -222 212 -271q112 -26 234 -26q101 0 210 18q164 27 279 27q45 0 84 -4q147 -51 147 -92q-1 -12 -14 -24q-3 -2 -46 -30
q-22 -14 -49 -103q-68 76 -131 76q-8 0 -286 -39q-57 -8 -127 -8q-69 0 -152 8q-140 13 -143 14q-127 36 -172 67q-167 80 -167 375q0 403 695 993q-217 -30 -407 -30h-44q-157 0 -359 16q14 44 130 204z" />
    <glyph glyph-name="uni062E" unicode="&#x62e;" horiz-adv-x="1545" arabic-form="isolated" 
d="M198 771q111 -41 300 -41h34q252 0 362 13q172 21 370 59q-26 -67 -64 -116q-25 -32 -70 -75q-153 -50 -448 -331q-378 -360 -378 -659v-21q0 -222 212 -271q112 -26 234 -26q101 0 210 18q164 27 279 27q45 0 84 -4q147 -51 147 -92q-1 -12 -14 -24q-3 -2 -46 -30
q-22 -14 -49 -103q-68 76 -131 76q-8 0 -286 -39q-57 -8 -127 -8q-69 0 -152 8q-140 13 -143 14q-127 36 -172 67q-167 80 -167 375q0 403 695 993q-217 -30 -407 -30h-44q-157 0 -359 16q14 44 130 204zM682 1170l123 -124l-128 -134l-116 123z" />
    <glyph glyph-name="uni062F" unicode="&#x62f;" horiz-adv-x="859" arabic-form="isolated" 
d="M512 817h16q47 0 78 -23q83 -62 148 -201q60 -129 60 -219v-7q0 -66 -120 -278l-113 -54l-145 -44q-97 -20 -190 -48q-77 -23 -182 -108q16 98 49 233l144 91q44 37 335 83l116 51q-11 51 -49 94q-175 199 -195 199q-1 0 -2 -1q-26 -35 -32 -26q9 75 82 258z" />
    <glyph glyph-name="uni0630" unicode="&#x630;" horiz-adv-x="885" arabic-form="isolated" 
d="M512 817h16q47 0 78 -23q83 -62 148 -201q60 -129 60 -219v-7q0 -66 -120 -278l-113 -54l-145 -44q-97 -20 -190 -48q-77 -23 -182 -108q16 98 49 233l144 91q44 37 335 83l116 51q-11 51 -49 94q-175 199 -195 199q-1 0 -2 -1q-26 -35 -32 -26q9 75 82 258zM563 1219
l123 -124l-128 -134l-116 123z" />
    <glyph glyph-name="uni0631" unicode="&#x631;" horiz-adv-x="850" arabic-form="isolated" 
d="M664 520q11 -5 78 -105q66 -99 69 -104v-18q-3 -37 -34 -143q-79 -267 -420 -478q-176 -109 -310 -145v2q1 4 15 76q18 92 19 96q536 225 646 469l-126 179q10 78 63 171z" />
    <glyph glyph-name="uni0632" unicode="&#x632;" horiz-adv-x="866" arabic-form="isolated" 
d="M664 520q11 -5 78 -105q66 -99 69 -104v-18q-3 -37 -34 -143q-79 -267 -420 -478q-176 -109 -310 -145v2q1 4 15 76q18 92 19 96q536 225 646 469l-126 179q10 78 63 171zM684 877l123 -124l-128 -134l-116 123z" />
    <glyph glyph-name="uni0633" unicode="&#x633;" horiz-adv-x="1545" arabic-form="isolated" 
d="M1354 767h21q26 -130 116 -257q-14 -84 -58 -209q-79 -61 -153 -61q-96 0 -184 104q-30 -133 -163 -176q1 -17 1 -34q-4 -193 -79 -376q-60 -84 -198 -141t-275 -57q-150 0 -235 69q-102 83 -102 227q0 158 118 389q27 -5 27 -39v-7q-19 -98 -19 -180q0 -252 217 -252
q207 0 459 180q-10 166 -98 342q15 133 78 279q20 -184 126 -184q23 0 38 6q134 55 172 244h29q0 -142 113 -177q-10 53 -10 100q0 108 59 210z" />
    <glyph glyph-name="uni0634" unicode="&#x634;" horiz-adv-x="1561" arabic-form="isolated" 
d="M1354 767h21q26 -130 116 -257q-14 -84 -58 -209q-79 -61 -153 -61q-96 0 -184 104q-30 -133 -163 -176q1 -17 1 -34q-4 -193 -79 -376q-60 -84 -198 -141t-275 -57q-150 0 -235 69q-102 83 -102 227q0 158 118 389q27 -5 27 -39v-7q-19 -98 -19 -180q0 -252 217 -252
q207 0 459 180q-10 166 -98 342q15 133 78 279q20 -184 126 -184q23 0 38 6q134 55 172 244h29q0 -142 113 -177q-10 53 -10 100q0 108 59 210zM1310 1114l123 -124l-128 -134l-116 123zM1040 1116l123 -124l-128 -134l-116 123zM1174 1359l123 -124l-128 -134l-116 123z
" />
    <glyph glyph-name="uni0635" unicode="&#x635;" horiz-adv-x="1634" arabic-form="isolated" 
d="M1304 644l21 1q23 0 64 -37q56 -51 183 -134q0 -148 -228 -262q-193 -96 -364 -96q-48 0 -67 10q1 -20 1 -40q0 -160 -98 -323q-136 -82 -189 -110q-122 -65 -240 -65q-182 0 -278 192q-48 96 -48 194q0 144 103 292l22 -44q-19 -95 -19 -169v-8q0 -246 230 -246
q166 0 428 132q-12 44 -49 166q-30 98 -37 169q48 54 66 133q51 -24 77 -84l98 -8q82 159 324 337zM1215 454q-141 -107 -141 -145q0 -21 46 -21q67 0 249 55q-59 71 -154 111z" />
    <glyph glyph-name="uni0636" unicode="&#x636;" horiz-adv-x="1634" arabic-form="isolated" 
d="M1304 644l21 1q23 0 64 -37q56 -51 183 -134q0 -148 -228 -262q-193 -96 -364 -96q-48 0 -67 10q1 -20 1 -40q0 -160 -98 -323q-136 -82 -189 -110q-122 -65 -240 -65q-182 0 -278 192q-48 96 -48 194q0 144 103 292l22 -44q-19 -95 -19 -169v-8q0 -246 230 -246
q166 0 428 132q-12 44 -49 166q-30 98 -37 169q48 54 66 133q51 -24 77 -84l98 -8q82 159 324 337zM1215 454q-141 -107 -141 -145q0 -21 46 -21q67 0 249 55q-59 71 -154 111zM1278 993l123 -124l-128 -134l-116 123z" />
    <glyph glyph-name="uni0637" unicode="&#x637;" horiz-adv-x="1369" arabic-form="isolated" 
d="M557 1464q127 -157 127 -398q0 -62 -9.5 -182.5t-9.5 -182.5q0 -156 38 -280q81 72 197 201q61 67 96 67q30 0 102 -45l206 -128q-66 -336 -410 -421q-110 -51 -402 -95q-128 29 -238 70q-180 69 -180 130q0 11 3 20q68 -30 452 -30q39 42 39 259q0 225 -35 507
q-36 280 -75 340zM905 506q-35 -50 -133 -148q-96 -94 -129 -147q97 3 273 65q192 70 198 71q-81 102 -209 159z" />
    <glyph glyph-name="uni0638" unicode="&#x638;" horiz-adv-x="1384" arabic-form="isolated" 
d="M557 1464q127 -157 127 -398q0 -62 -9.5 -182.5t-9.5 -182.5q0 -156 38 -280q81 72 197 201q61 67 96 67q30 0 102 -45l206 -128q-66 -336 -410 -421q-110 -51 -402 -95q-128 29 -238 70q-180 69 -180 130q0 11 3 20q68 -30 452 -30q39 42 39 259q0 225 -35 507
q-36 280 -75 340zM905 506q-35 -50 -133 -148q-96 -94 -129 -147q97 3 273 65q192 70 198 71q-81 102 -209 159zM1035 1123l123 -124l-128 -134l-116 123z" />
    <glyph glyph-name="uni0639" unicode="&#x639;" horiz-adv-x="1507" arabic-form="isolated" 
d="M663 936q-23 -118 -60 -215q-276 -95 -353 -219q51 -52 267 -52q249 0 425 110q-92 -234 -119 -261q-525 -376 -581 -667q-19 -98 -19 -165t19 -103q72 -185 323 -185q406 0 869 195q-383 -363 -611 -417q-110 -26 -208 -26q-297 0 -470 246q-66 94 -66 271
q0 256 390 786h-156q-184 0 -232 137q-8 22 -8 47q0 23 7 48q60 219 233 307z" />
    <glyph glyph-name="uni063A" unicode="&#x63a;" horiz-adv-x="1537" arabic-form="isolated" 
d="M663 936q-23 -118 -60 -215q-276 -95 -353 -219q51 -52 267 -52q249 0 425 110q-92 -234 -119 -261q-525 -376 -581 -667q-19 -98 -19 -165t19 -103q72 -185 323 -185q406 0 869 195q-383 -363 -611 -417q-110 -26 -208 -26q-297 0 -470 246q-66 94 -66 271
q0 256 390 786h-156q-184 0 -232 137q-8 22 -8 47q0 23 7 48q60 219 233 307zM335 1252l123 -124l-128 -134l-116 123z" />
    <glyph glyph-name="uni063B.medi" unicode="&#x63b;" horiz-adv-x="991" 
d="M454 130q-155 -88 -302 -130h-152v166h37q129 10 214 81q-15 46 -109 175q-86 118 -112 194q6 84 61 190q66 140 81 185q129 31 393 155q289 131 365 212q20 0 20 -24q0 -30 -40 -109l-51 -102q-129 -75 -213 -115q-118 -58 -498 -220q33 -120 145 -279
q111 -174 179 -233q127 -110 325 -110h218v-166h-218q-76 0 -222 40q-65 16 -121 90zM535 1557l123 -124l-128 -134l-116 123zM265 1558l123 -124l-128 -134l-116 123z" />
    <glyph glyph-name="uni063B.fina" unicode="&#x63b;" horiz-adv-x="2142" 
d="M1682 331q186 -165 434 -165h50v-166h-47q-223 0 -296 32q-162 71 -232 144q-145 -69 -372 -117q-280 -59 -540 -59q-608 0 -619 197l36 224q85 29 116 33l-12 -74q-2 -13 -2 -24q2 -182 480 -182h29q175 0 422 53l295 80q-10 34 -114 175q-78 105 -108 194q5 81 60 192
q65 131 82 183q131 31 394 154q289 135 362 211q24 0 24 -23q0 -18 -43 -107l-51 -103q-137 -81 -212 -117q-110 -53 -498 -219q23 -78 55 -143q36 -74 90 -139q56 -67 90 -105q97 -108 127 -129zM1699 1594l123 -124l-128 -134l-116 123zM1429 1595l123 -124l-128 -134
l-116 123z" />
    <glyph glyph-name="uni063C.medi" unicode="&#x63c;" horiz-adv-x="981" 
d="M454 130q-155 -88 -302 -130h-152v166h37q129 10 214 81q-15 46 -109 175q-86 118 -112 194q6 84 61 190q66 140 81 185q129 31 393 155q289 131 365 212q20 0 20 -24q0 -30 -40 -109l-51 -102q-129 -75 -213 -115q-118 -58 -498 -220q33 -120 145 -279
q111 -174 179 -233q127 -110 325 -110h218v-166h-218q-76 0 -222 40q-65 16 -121 90zM281 -431l123 -124l-128 -134l-116 123zM418 -209l123 -124l-128 -134l-116 123zM148 -208l123 -124l-128 -134l-116 123z" />
    <glyph glyph-name="uni063C.fina" unicode="&#x63c;" horiz-adv-x="2139" 
d="M1682 331q186 -165 434 -165h50v-166h-47q-223 0 -296 32q-162 71 -232 144q-145 -69 -372 -117q-280 -59 -540 -59q-608 0 -619 197l36 224q85 29 116 33l-12 -74q-2 -13 -2 -24q2 -182 480 -182h29q175 0 422 53l295 80q-10 34 -114 175q-78 105 -108 194q5 81 60 192
q65 131 82 183q131 31 394 154q289 135 362 211q24 0 24 -23q0 -18 -43 -107l-51 -103q-137 -81 -212 -117q-110 -53 -498 -219q23 -78 55 -143q36 -74 90 -139q56 -67 90 -105q97 -108 127 -129zM1452 -107l123 -124l-128 -134l-116 123zM1182 -106l123 -124l-128 -134
l-116 123zM1315 -329l123 -124l-128 -134l-116 123z" />
    <glyph glyph-name="uni063D.medi" unicode="&#x63d;" horiz-adv-x="526" 
d="M397 -122l123 -124l-128 -134l-116 123zM127 -121l123 -124l-128 -134l-116 123zM229 404q41 6 67 6q37 0 39 -13q7 -47 47 -146q31 -77 61 -85h96v-166h-90q-14 0 -63 25q-73 37 -93 79l-17 -19q-4 -19 -55 -55q-43 -30 -49 -30h-172v166h124q24 0 105 238zM380 687
l-79 -60q0 4 -61 111l-58 100q-37 -79 -82 -196l-62 -24q-10 31 -10 69q30 99 136 334q18 40 41 31l101 -199q23 -61 74 -166z" />
    <glyph glyph-name="uni063D.fina" unicode="&#x63d;" horiz-adv-x="1271" 
d="M659 168l-79 -60q0 4 -61 111l-58 100q-37 -79 -82 -196l-62 -24q-10 31 -10 69q30 99 136 334q18 40 41 31l101 -199q23 -61 74 -166zM1296 0h-91l-126 52l-72 -27l-60 -25l5 -25l152 -40l134 -85q0 -47 -194 -287q-93 -78 -332 -158q-214 -71 -357 -71q-31 0 -57 4
q-157 102 -216 174q-38 46 -38 121v8q0 39 14 84q109 194 156 219l-68 -173l18 -151q100 -94 184 -99q156 -9 241 -9h8q163 0 391 139l100 127v2q-3 7 -141 48q-94 28 -142 56q-10 15 -10 36q0 41 26 80q63 95 121 138q93 74 168 74h7l13 -1q60 -12 120 -45h46v-166z" />
    <glyph glyph-name="uni063E.fina" unicode="&#x63e;" horiz-adv-x="1264" 
d="M1296 0h-91l-126 52l-72 -27l-60 -25l5 -25l152 -40l134 -85q0 -47 -194 -287q-93 -78 -332 -158q-214 -71 -357 -71q-31 0 -57 4q-157 102 -216 174q-38 46 -38 121v8q0 39 14 84q109 194 156 219l-68 -173l18 -151q100 -94 184 -99q156 -9 241 -9h8q163 0 391 139
l100 127v2q-3 7 -141 48q-94 28 -142 56q-10 15 -10 36q0 41 26 80q63 95 121 138q93 74 168 74h7l13 -1q60 -12 120 -45h46v-166zM661 413l123 -124l-128 -134l-116 123zM391 414l123 -124l-128 -134l-116 123z" />
    <glyph glyph-name="uni063F.medi" unicode="&#x63f;" horiz-adv-x="527" 
d="M397 -122l123 -124l-128 -134l-116 123zM127 -121l123 -124l-128 -134l-116 123zM229 404q41 6 67 6q37 0 39 -13q7 -47 47 -146q31 -77 61 -85h96v-166h-90q-14 0 -63 25q-73 37 -93 79l-17 -19q-4 -19 -55 -55q-43 -30 -49 -30h-172v166h124q24 0 105 238zM264 1109
l123 -124l-128 -134l-116 123zM400 864l123 -124l-128 -134l-116 123zM130 865l123 -124l-128 -134l-116 123z" />
    <glyph glyph-name="uni063F.fina" unicode="&#x63f;" horiz-adv-x="1278" 
d="M1296 0h-91l-126 52l-72 -27l-60 -25l5 -25l152 -40l134 -85q0 -47 -194 -287q-93 -78 -332 -158q-214 -71 -357 -71q-31 0 -57 4q-157 102 -216 174q-38 46 -38 121v8q0 39 14 84q109 194 156 219l-68 -173l18 -151q100 -94 184 -99q156 -9 241 -9h8q163 0 391 139
l100 127v2q-3 7 -141 48q-94 28 -142 56q-10 15 -10 36q0 41 26 80q63 95 121 138q93 74 168 74h7l13 -1q60 -12 120 -45h46v-166zM655 358l123 -124l-128 -134l-116 123zM385 359l123 -124l-128 -134l-116 123zM519 602l123 -124l-128 -134l-116 123z" />
    <glyph glyph-name="uni0641" unicode="&#x641;" horiz-adv-x="1827" arabic-form="isolated" 
d="M1370 257q246 60 265 102q-5 21 -24 63q-40 88 -61 112q-27 -47 -92 -84q-66 -37 -124 -37q-86 0 -96 86q61 239 206 415q49 -47 186 -236q109 -152 134 -262q6 -27 6 -52q0 -197 -387 -264l-292 -51l-457 -49q-81 -5 -142 -5q-77 0 -100 5q-140 30 -198 59l-65 71
l-18 280l103 107l47 -230q21 -50 78 -70q114 -40 237 -43l400 29zM1409 704l-62 -114q48 -15 85 -16q51 -1 52 32q0 40 -75 98zM1413 1254l123 -124l-128 -134l-116 123z" />
    <glyph glyph-name="uni0642" unicode="&#x642;" horiz-adv-x="1127" arabic-form="isolated" 
d="M824 715l59 -26q8 -18 50 -109q82 -172 90 -195q51 -146 53 -276q-44 -217 -257 -390q-57 -46 -186 -89q-124 -41 -228 -41q-166 0 -235 89q-115 148 -115 311v9q0 139 94 306l54 -44q-36 -88 -36 -161q1 -163 166 -283q73 -31 149 -31h12q203 0 464 226v27q0 33 -21 99
q-23 72 -23 96q-60 -50 -131 -50q-11 0 -134 50v11q0 234 175 471zM784 471l-23 -73q-3 -13 -3 -22q1 -29 26 -29q19 0 51 16q8 4 8 10q0 19 -59 98zM980 1053l123 -124l-128 -134l-116 123zM710 1054l123 -124l-128 -134l-116 123z" />
    <glyph glyph-name="uni0643" unicode="&#x643;" horiz-adv-x="1751" arabic-form="isolated" 
d="M1696 307l-70 -169l-530 -89l-458 -49q-81 -5 -141.5 -5t-100.5 5q-103 13 -198 59q-130 146 -130 307q0 63 20 128q4 13 73 182q24 -51 29 -136q-10 -38 -10 -77q0 -188 163 -246q113 -40 238 -43l399 29l394 54l103 41l-35 156q-38 151 -129 458q-96 323 -96 377
l44 137q106 -101 435 -1119zM882.5 818q-20.5 -46 -41 -76.5t-47.5 -55t-59 -51.5l-314 -27q21 23 59 45.5t81 42t86 40t75.5 35t57.5 30.5q-52 31 -83.5 54.5t-49 42t-22.5 37t-5 38.5q0 27 13.5 61.5t34 71.5t51 71t65.5 58q-2 -4 -2 -18v-8v-11q-21 -30 -38.5 -60
t-37.5 -63l-6 -20q22 -16 45.5 -23.5t56.5 -12.5t60 -9q63 -21 63 -78q-22 -68 -42.5 -114z" />
    <glyph glyph-name="uni0644" unicode="&#x644;" horiz-adv-x="1207" arabic-form="isolated" 
d="M891 1139q80 142 111 238q96 -61 123 -171q13 -60 13 -185q0 -103 -30 -323.5t-30 -353.5q0 -213 60 -437q-57 -190 -241 -321q-189 -131 -412 -131q-194 0 -364 110q-42 41 -42 196q0 300 138 490q35 12 35 -28q-62 -138 -62 -256q0 -144 91 -228.5t239 -84.5
q205 0 431 160q0 55 11 316t11 423q0 463 -82 586z" />
    <glyph glyph-name="uni0645" unicode="&#x645;" horiz-adv-x="935" arabic-form="isolated" 
d="M601 765q42 -127 135 -202q111 -94 141 -146q-61 -78 -100 -198q-102 30 -206 30q-185 0 -377 -98q34 -111 60 -328q35 -242 35 -449q0 -342 -95 -422q23 121 23 240q0 182 -66.5 467.5t-66.5 419.5q86 328 427 385q-1 31 -1 62q0 129 91 239z" />
    <glyph glyph-name="uni0646" unicode="&#x646;" horiz-adv-x="1038" arabic-form="isolated" 
d="M873 494q8 4 13 4q4 0 6 -4q69 -139 86 -158q13 -15 13 -93q0 -27 -5 -75q-13 -122 -43 -201q-32 -85 -85 -151q-54 -67 -146 -130q-36 -25 -171 -66q-98 -30 -133 -30q-104 0 -202 49q-58 29 -98 96q-58 96 -66 157q-5 36 -5 77q1 80 18 177q21 118 61 158q2 2 13 2
t31 -2q1 0 1 -36.5t-1 -108.5q0 -83 2 -115q2 -38 87 -140q57 -68 96 -85q30 -13 92 -13q16 0 38 2q73 7 179 38q28 8 103 55q119 74 125 85t6 30q-1 28 -10 66t-40 110l-51 111q0 19 36 89zM526 708l123 -124l-128 -134l-116 123z" />
    <glyph glyph-name="uni0647" unicode="&#x647;" horiz-adv-x="659" arabic-form="isolated" 
d="M78 688l24 146l22 64l162 -210q58 21 165 87q138 87 165 102l-14 -91q-12 -72 -12 -108q-25 -10 -88 -54q-50 -36 -95 -46q30 -102 30 -190q0 -297 -349 -388q-58 68 -58 172q0 186 134 378q-28 69 -86 138zM253 460q-151 -135 -151 -203q0 -35 38 -35q72 0 224 109
q-38 71 -111 129z" />
    <glyph glyph-name="uni0648" unicode="&#x648;" horiz-adv-x="701" arabic-form="isolated" 
d="M470 555q166 -199 166 -296v-40q-3 -273 -26 -328q-97 -229 -220 -339q-189 -168 -350 -237q6 75 38 200q272 137 397 449q2 16 2 30q1 39 -19 60l-30 -3q-30 -12 -63 -12h-5q-57 0 -122 29q5 115 88 250zM412 349q-72 -97 -72 -127q0 -24 79 -24q14 1 26 1q25 25 25 52
q0 38 -58 98z" />
    <glyph glyph-name="uni0649" unicode="&#x649;" horiz-adv-x="1448" arabic-form="isolated" 
d="M1360 543l-43 -31l-108 82q-32 -7 -170 -151l-117 -143l68 -46l99 -55q109 -66 117 -78q18 -28 18 -72q0 -18 -3 -40l-57 -110l-111 -179q-38 -33 -219 -117q-113 -53 -214 -77q-141 -34 -238 -34q-16 0 -78 19q-80 25 -141 60q-34 21 -51 59q-59 134 -61 220l43 260
l83 85v-226q18 -141 48 -207q15 -33 89 -68q66 -31 121 -31q122 0 253 50q154 59 273 156l109 150l-187 74l-90 87l-1 207l68 65q120 137 124 141q107 120 145 147l135 83l128 -83z" />
    <glyph glyph-name="uni064A" unicode="&#x64a;" horiz-adv-x="1457" arabic-form="isolated" 
d="M1360 543l-43 -31l-108 82q-32 -7 -170 -151l-117 -143l68 -46l99 -55q109 -66 117 -78q18 -28 18 -72q0 -18 -3 -40l-57 -110l-111 -179q-38 -33 -219 -117q-113 -53 -214 -77q-141 -34 -238 -34q-16 0 -78 19q-80 25 -141 60q-34 21 -51 59q-59 134 -61 220l43 260
l83 85v-226q18 -141 48 -207q15 -33 89 -68q66 -31 121 -31q122 0 253 50q154 59 273 156l109 150l-187 74l-90 87l-1 207l68 65q120 137 124 141q107 120 145 147l135 83l128 -83zM658 -673l123 -124l-128 -134l-116 123zM388 -672l123 -124l-128 -134l-116 123z" />
    <glyph glyph-name="uni066E.medi" unicode="&#x66e;" horiz-adv-x="536" 
d="M229 404q41 6 67 6q37 0 39 -13q7 -47 47 -146q31 -77 61 -85h96v-166h-90q-14 0 -63 25q-73 37 -93 79l-17 -19q-4 -19 -55 -55q-43 -30 -49 -30h-172v166h124q24 0 105 238z" />
    <glyph glyph-name="uni066E.fina" unicode="&#x66e;" horiz-adv-x="2045" 
d="M1998 166h67v-166h-64q-250 0 -331 215q-182 -96 -680 -183q-205 -36 -502 -36q-100 0 -209 4q-152 19 -189 72t-37 167q0 129 76 185q10 -218 164 -228q166 -17 311 -17q161 0 296 21q584 91 803 216q14 8 29 8q17 0 37 -10q4 -31 14 -58q19 -53 56 -98q32 -39 65 -62
q44 -30 94 -30z" />
    <glyph glyph-name="uni066F.medi" unicode="&#x66f;" horiz-adv-x="612" 
d="M82 0h-82v166h95l25 40q-4 43 -4 82q3 271 167 386q185 -30 216 -130q22 -72 22 -133q-1 -139 -112 -221q64 -24 114 -24h107v-166h-106q-62 0 -252 60zM251 270q66 11 101 32q39 23 39 72q0 114 -99 118q-27 -26 -38 -54q-16 -40 -16 -75v-4q0 -22 6 -56q1 -7 7 -33z
" />
    <glyph glyph-name="uni066F.fina" unicode="&#x66f;" horiz-adv-x="1113" 
d="M879 419q8 -20 41 -93q75 -159 78 -160h127v-166h-72q18 -82 22 -160q-48 -223 -262 -390q-74 -58 -186 -93q-117 -37 -227 -37h-17q-146 0 -217 87q-115 141 -115 312q0 147 94 316l54 -45q-36 -84 -36 -160v-10q0 -152 165 -274q74 -30 153 -30q211 1 471 226q1 9 1 19
q0 48 -20 105t-20 98q-62 -49 -137 -49q-37 0 -139 39q-1 9 -1 13q21 264 176 470zM781 202l-22 -72q-2 -12 -2 -18q2 -34 27 -33q18 1 45 13q8 4 8 10q0 22 -56 100z" />
    <glyph glyph-name="uni0671" unicode="&#x671;" horiz-adv-x="595" arabic-form="isolated" 
d="M91 1485q-27 11 -27 177q0 35 3 56q33 -11 51 -42l60 -6q55 82 211 176q9 1 11 1q7 0 82 -40q75 -42 78 -50t3 -19q0 -49 -122 -105t-255 -56q-67 0 -95 19q-3 -16 -3 -44t3 -67zM332 1727q-60 -39 -60 -53v-1q0 -7 16 -7q32 0 107 20q-25 23 -63 41zM300 1388
q69 -79 69 -268q0 -12 -6 -260q-4 -165 -4 -232q-4 -148 -4 -309q0 -180 15 -202l-138 -122q-49 36 -49 267q0 4 12 346q9 285 9 370q0 193 -38 261q84 95 134 149z" />
    <glyph glyph-name="uni0672.fina" unicode="&#x672;" horiz-adv-x="583" 
d="M288 1620q-28 1 -52 1q-124 -3 -160 -12q-5 -1 -16 -69q-6 -38 -26 -40q-18 63 -18 103q1 58 37 66q99 22 211 22q19 0 48 24l-36 26l-18 26l59 129l97 60l117 46l-51 -103l-134 -60l42 -28l37 -13l43 -6l56 3l67 16l-37 -73l-30 -27l-119 -44zM598 166v-166h-29
q-165 0 -216 47q-96 88 -96 270v256v284q0 376 -26 441l151 111q40 -98 49 -307q8 -176 8 -234l-7 -268v-36q-1 -43 -1 -80q0 -181 24 -240q23 -57 43 -63q47 -15 71 -15h29z" />
    <glyph glyph-name="uni0673.fina" unicode="&#x673;" horiz-adv-x="600" 
d="M288 -451q-28 1 -52 1q-124 -3 -160 -12q-5 -1 -16 -69q-6 -38 -26 -40q-18 63 -18 103q1 58 37 66q99 22 211 22q19 0 48 24l-36 26l-18 26l59 129l97 60l117 46l-51 -103l-134 -60l42 -28l37 -13l43 -6l56 3l67 16l-37 -73l-30 -27l-119 -44zM618 166v-166h-29
q-165 0 -216 47q-96 88 -96 270v256v284q0 376 -26 441l151 111q40 -98 49 -307q8 -176 8 -234l-7 -268v-36q-1 -43 -1 -80q0 -181 24 -240q23 -57 43 -63q47 -15 71 -15h29z" />
    <glyph glyph-name="uni0675.fina" unicode="&#x675;" horiz-adv-x="731" 
d="M468.438 1742.02l-19.8477 -58.0977l-104.651 -48.8223l46.3115 -7.81152h34.2822l40.8975 1.95312l46.9131 9.27637l58.3389 16.1113l-15.0361 -39.5459l-19.2461 -17.5762l-95.6289 -41.0107l-209.902 -103.015l16.8398 59.5635l96.2305 55.1689l-37.8906 6.83496
l-19.8477 10.7402l16.8408 73.2334l71.5713 43.9395zM756 166v-166h-349q-165 0 -216 47q-96 89 -96 270v256v284q0 377 -27 441l152 111q40 -101 49 -307q8 -174 8 -233q0 -33 -2 -67q-5 -82 -5 -229v-59q0 -214 23 -270q23 -57 43 -63q46 -15 71 -15h349z" />
    <glyph glyph-name="uni0676.fina" unicode="&#x676;" horiz-adv-x="1257" 
d="M994.438 952.02l-19.8477 -58.0977l-104.651 -48.8223l46.3115 -7.81152h34.2822l40.8975 1.95312l46.9131 9.27637l58.3389 16.1113l-15.0361 -39.5459l-19.2461 -17.5762l-95.6289 -41.0107l-209.902 -103.015l16.8398 59.5635l96.2305 55.1689l-37.8906 6.83496
l-19.8477 10.7402l16.8408 73.2334l71.5713 43.9395zM1323 166v-166h-434q-83 0 -120 37q-3 -112 -17 -143q-52 -114 -336 -318q-250 -179 -378 -206q0 58 29 154q143 57 298 169q11 8 221 173q76 59 76 137v10l-238 -60q-13 37 -13 103q0 138 46 266q51 142 132 142
q87 0 182 -226q30 -72 118 -72h434zM496 116q106 17 106 33q0 1 -1 2q-49 90 -75 106z" />
    <glyph glyph-name="uni0677" unicode="&#x677;" horiz-adv-x="895" arabic-form="isolated" 
d="M761.438 1064.02l-19.8477 -58.0977l-104.651 -48.8223l46.3115 -7.81152h34.2822l40.8975 1.95312l46.9131 9.27637l58.3389 16.1113l-15.0361 -39.5459l-19.2461 -17.5762l-95.6289 -41.0107l-209.902 -103.015l16.8398 59.5635l96.2305 55.1689l-37.8906 6.83496
l-19.8477 10.7402l16.8408 73.2334l71.5713 43.9395zM450 555q166 -199 166 -296v-40q-3 -273 -26 -328q-97 -229 -220 -339q-189 -168 -350 -237q6 75 38 200q272 137 397 449q2 16 2 30q1 39 -19 60l-30 -3q-30 -12 -63 -12h-5q-57 0 -122 29q5 115 88 250zM392 349
q-72 -97 -72 -127q0 -24 79 -24q14 1 26 1q25 25 25 52q0 38 -58 98zM447.328 1208.65q84.0986 -48.5547 74.8467 -167.537q-6.3291 -83.5029 -36.8535 -136.373q-18.3154 -31.7217 -42.6123 -57.4258q-86.9355 -92.0781 -178.81 -110.811
q-22.9678 -4.68164 -74.791 -5.52441q-36.792 -0.545898 -76.8896 7.22266l-28.3701 16.3799q54.0176 -9.39746 125.071 20.0732q76.3135 31.5605 115.958 79.166l21.1611 24.9521q8.68555 10.3652 10.9062 14.2109q6.10449 10.5742 9.62793 21.3564
q9.36426 27.918 13.8545 63.7764l-87.5508 26.1953q-89.043 68.0703 -21.334 185.347l1.11035 1.92285q74.3643 74.9824 174.675 17.0684z" />
    <glyph glyph-name="uni0678.medi" unicode="&#x678;" horiz-adv-x="751" 
d="M229 404q41 6 67 6q37 0 39 -13q7 -47 47 -146q31 -77 61 -85h96v-166h-90q-14 0 -63 25q-73 37 -93 79l-17 -19q-4 -19 -55 -55q-43 -30 -49 -30h-172v166h124q24 0 105 238zM969.12 166v-166h-450.12v166h450.12zM627.438 907.02l-19.8477 -58.0977l-104.651 -48.8223
l46.3115 -7.81152h34.2822l40.8975 1.95312l46.9131 9.27637l58.3389 16.1113l-15.0361 -39.5459l-19.2461 -17.5762l-95.6289 -41.0107l-209.902 -103.015l16.8398 59.5635l96.2305 55.1689l-37.8906 6.83496l-19.8477 10.7402l16.8408 73.2334l71.5713 43.9395z" />
    <glyph glyph-name="uni0678.fina" unicode="&#x678;" horiz-adv-x="1457" 
d="M1616.7 166v-166h-346.703v166h346.703zM1352.44 634.02l-19.8477 -58.0977l-104.651 -48.8223l46.3115 -7.81152h34.2822l40.8975 1.95312l46.9131 9.27637l58.3389 16.1113l-15.0361 -39.5459l-19.2461 -17.5762l-95.6289 -41.0107l-209.902 -103.015l16.8398 59.5635
l96.2305 55.1689l-37.8906 6.83496l-19.8477 10.7402l16.8408 73.2334l71.5713 43.9395zM1296 0h-91l-126 52l-72 -27l-60 -25l5 -25l152 -40l134 -85q0 -47 -194 -287q-93 -78 -332 -158q-214 -71 -357 -71q-31 0 -57 4q-157 102 -216 174q-38 46 -38 121v8q0 39 14 84
q109 194 156 219l-68 -173l18 -151q100 -94 184 -99q156 -9 241 -9h8q163 0 391 139l100 127v2q-3 7 -141 48q-94 28 -142 56q-10 15 -10 36q0 41 26 80q63 95 121 138q93 74 168 74h7l13 -1q60 -12 120 -45h46v-166z" />
    <glyph glyph-name="uni0679" unicode="&#x679;" horiz-adv-x="1752" arabic-form="isolated" 
d="M804.366 1035.86q40.8965 -51.3525 40.8965 -130.181q0 -20.2793 -3.05957 -59.6934q-3.05859 -39.4141 -3.05859 -59.6934q0 -51.0254 12.2363 -91.584q26.084 23.5498 63.4385 65.7441q19.6436 21.915 30.9141 21.915q9.66113 0 32.8467 -14.7188l66.3359 -41.8672
q-21.2539 -109.901 -132.029 -137.704q-35.4219 -16.6816 -129.452 -31.0732q-41.2188 9.48535 -76.6416 22.8965q-57.9629 22.5684 -57.9629 42.5215q0 3.59766 0.96582 6.54102q21.8975 -9.8125 145.554 -9.8125q12.5586 13.7383 12.5586 84.7158
q0 73.5947 -11.2705 165.833q-11.5928 91.585 -24.1514 111.21zM916.43 722.506q-11.2715 -16.3535 -42.8291 -48.4082q-30.9141 -30.7461 -41.541 -48.082q31.2363 0.981445 87.9121 21.2607q61.8281 22.8955 63.7607 23.2227q-26.084 33.3633 -67.3027 52.0068zM1531 630
l48 -72l123 -119l-6 -98l-84 -203l-530 -89l-457 -49q-81 -5 -142 -5t-101 5q-103 13 -198 59l-64 71l-69 186l154 201l47 -230q18 -45 78 -70q97 -40 237 -43l400 29l393 54l177 45l-108 152l66 190z" />
    <glyph glyph-name="uni067A" unicode="&#x67a;" horiz-adv-x="1781" arabic-form="isolated" 
d="M1531 630l48 -72l123 -119l-6 -98l-84 -203l-530 -89l-457 -49q-81 -5 -142 -5t-101 5q-103 13 -198 59l-64 71l-69 186l154 201l47 -230q18 -45 78 -70q97 -40 237 -43l400 29l393 54l177 45l-108 152l66 190zM955 1108l123 -124l-128 -134l-116 123zM955 832l123 -124
l-128 -134l-116 123z" />
    <glyph glyph-name="uni067B" unicode="&#x67b;" horiz-adv-x="1751" arabic-form="isolated" 
d="M1531 630l48 -72l123 -119l-6 -98l-84 -203l-530 -89l-457 -49q-81 -5 -142 -5t-101 5q-103 13 -198 59l-64 71l-69 186l154 201l47 -230q18 -45 78 -70q97 -40 237 -43l400 29l393 54l177 45l-108 152l66 190zM906 -192l123 -124l-128 -134l-116 123zM906 -468l123 -124
l-128 -134l-116 123z" />
    <glyph glyph-name="uni067C.medi" unicode="&#x67c;" horiz-adv-x="533" 
d="M50 -145q0 60 35 103q34 42 86 42q49 0 85 -43q35 -42 35 -102q0 -61 -35 -102q-36 -42 -85 -42q-51 0 -86 42t-35 102zM213 -151q0 21 -13 36t-31 15l-28 -15q-14 -15 -14 -38q0 -17 14 -33q15 -17 30 -16q11 1 20 8q17 13 21 32q1 6 1 11zM229 404q41 6 67 6
q37 0 39 -13q7 -47 47 -146q31 -77 61 -85h96v-166h-90q-14 0 -63 25q-73 37 -93 79l-17 -19q-4 -19 -55 -55q-43 -30 -49 -30h-172v166h124q24 0 105 238zM404 852l123 -124l-128 -134l-116 123zM134 853l123 -124l-128 -134l-116 123z" />
    <glyph glyph-name="uni067C.fina" unicode="&#x67c;" horiz-adv-x="2049" 
d="M775 -129q0 60 35 103q34 42 86 42q49 0 85 -43q35 -42 35 -102q0 -61 -35 -102q-36 -42 -85 -42q-51 0 -86 42t-35 102zM938 -135q0 21 -13 36t-31 15l-28 -15q-14 -15 -14 -38q0 -17 14 -33q15 -17 30 -16q11 1 20 8q17 13 21 32q1 6 1 11zM1998 166h67v-166h-64
q-250 0 -331 215q-182 -96 -680 -183q-205 -36 -502 -36q-100 0 -209 4q-152 19 -189 72t-37 167q0 129 76 185q10 -218 164 -228q166 -17 311 -17q161 0 296 21q584 91 803 216q14 8 29 8q17 0 37 -10q4 -31 14 -58q19 -53 56 -98q32 -39 65 -62q44 -30 94 -30zM1110 826
l123 -124l-128 -134l-116 123zM840 827l123 -124l-128 -134l-116 123z" />
    <glyph glyph-name="uni067D.medi" unicode="&#x67d;" horiz-adv-x="529" 
d="M229 404q41 6 67 6q37 0 39 -13q7 -47 47 -146q31 -77 61 -85h96v-166h-90q-14 0 -63 25q-73 37 -93 79l-17 -19q-4 -19 -55 -55q-43 -30 -49 -30h-172v166h124q24 0 105 238zM265 848l123 -124l-128 -134l-116 123zM402 1070l123 -124l-128 -134l-116 123zM132 1071
l123 -124l-128 -134l-116 123z" />
    <glyph glyph-name="uni067D.fina" unicode="&#x67d;" horiz-adv-x="2044" 
d="M1998 166h67v-166h-64q-250 0 -331 215q-182 -96 -680 -183q-205 -36 -502 -36q-100 0 -209 4q-152 19 -189 72t-37 167q0 129 76 185q10 -218 164 -228q166 -17 311 -17q161 0 296 21q584 91 803 216q14 8 29 8q17 0 37 -10q4 -31 14 -58q19 -53 56 -98q32 -39 65 -62
q44 -30 94 -30zM1093 1051l123 -124l-128 -134l-116 123zM823 1052l123 -124l-128 -134l-116 123zM956 829l123 -124l-128 -134l-116 123z" />
    <glyph glyph-name="uni067E" unicode="&#x67e;" horiz-adv-x="1747" arabic-form="isolated" 
d="M1531 630l48 -72l123 -119l-6 -98l-84 -203l-530 -89l-457 -49q-81 -5 -142 -5t-101 5q-103 13 -198 59l-64 71l-69 186l154 201l47 -230q18 -45 78 -70q97 -40 237 -43l400 29l393 54l177 45l-108 152l66 190zM1054 -214l123 -124l-128 -134l-116 123zM784 -212
l123 -124l-128 -134l-116 123zM918 -436l123 -124l-128 -134l-116 123z" />
    <glyph glyph-name="uni067F" unicode="&#x67f;" horiz-adv-x="1774" arabic-form="isolated" 
d="M1531 630l48 -72l123 -119l-6 -98l-84 -203l-530 -89l-457 -49q-81 -5 -142 -5t-101 5q-103 13 -198 59l-64 71l-69 186l154 201l47 -230q18 -45 78 -70q97 -40 237 -43l400 29l393 54l177 45l-108 152l66 190zM1044 1171l123 -124l-128 -134l-116 123zM774 1172
l123 -124l-128 -134l-116 123zM1044 895l123 -124l-128 -134l-116 123zM774 896l123 -124l-128 -134l-116 123z" />
    <glyph glyph-name="uni0680" unicode="&#x680;" horiz-adv-x="1750" arabic-form="isolated" 
d="M1531 630l48 -72l123 -119l-6 -98l-84 -203l-530 -89l-457 -49q-81 -5 -142 -5t-101 5q-103 13 -198 59l-64 71l-69 186l154 201l47 -230q18 -45 78 -70q97 -40 237 -43l400 29l393 54l177 45l-108 152l66 190zM1036 -236l123 -124l-128 -134l-116 123zM766 -235
l123 -124l-128 -134l-116 123zM1036 -512l123 -124l-128 -134l-116 123zM766 -511l123 -124l-128 -134l-116 123z" />
    <glyph glyph-name="uni0681.medi" unicode="&#x681;" horiz-adv-x="1283" 
d="M713.438 1067.02l-19.8477 -58.0977l-104.651 -48.8223l46.3115 -7.81152h34.2822l40.8975 1.95312l46.9131 9.27637l58.3389 16.1113l-15.0361 -39.5459l-19.2461 -17.5762l-95.6289 -41.0107l-209.902 -103.015l16.8398 59.5635l96.2305 55.1689l-37.8906 6.83496
l-19.8477 10.7402l16.8408 73.2334l71.5713 43.9395zM868 318q39 -88 110 -121q73 -28 173 -31h51h53h47v-166h-109q-129 0 -235 119q-140 157 -149 174l-216 -112l-268 -99q-164 -76 -164 -82h-161v166l134 1l122 48l158 87q-120 45 -158 70q-63 42 -186 107l102 189
q381 -166 603 -166h22q218 0 451 105q-107 -128 -150 -170z" />
    <glyph glyph-name="uni0681.fina" unicode="&#x681;" horiz-adv-x="1520" 
d="M691.438 934.02l-19.8477 -58.0977l-104.651 -48.8223l46.3115 -7.81152h34.2822l40.8975 1.95312l46.9131 9.27637l58.3389 16.1113l-15.0361 -39.5459l-19.2461 -17.5762l-95.6289 -41.0107l-209.902 -103.015l16.8398 59.5635l96.2305 55.1689l-37.8906 6.83496
l-19.8477 10.7402l16.8408 73.2334l71.5713 43.9395zM1122 328q0 -22 6 -64q11 -76 48 -86q47 -12 182 -12h81h91v-166h-91q-219 0 -288 70q-84 86 -84 236q0 2 -1 2h-1q-25 0 -391 -309q-378 -319 -378 -651q0 -253 213 -301q120 -27 229 -27q102 0 215 19q148 25 282 25
q43 0 80 -4q147 -50 147 -92q0 -20 -14 -24q-4 -1 -45 -30q-24 -17 -49 -102q-82 79 -118 79h-1q0 -3 -12 -3q-21 0 -287 -42q-50 -8 -124 -8q-45 0 -154 8q-92 7 -143 16q-127 36 -173 68q-167 80 -167 375q26 424 695 994q-207 -31 -391 -31q-32 0 -60 1q-178 5 -359 12
q14 50 131 203q103 -36 280 -36q290 0 416 14q164 18 369 56q-35 -90 -63 -115q-23 -21 -36 -33q-35 -34 -35 -42z" />
    <glyph glyph-name="uni0682.medi" unicode="&#x682;" horiz-adv-x="1285" 
d="M868 318q39 -88 110 -121q73 -28 173 -31h51h53h47v-166h-109q-129 0 -235 119q-140 157 -149 174l-216 -112l-268 -99q-164 -76 -164 -82h-161v166l134 1l122 48l158 87q-120 45 -158 70q-63 42 -186 107l102 189q381 -166 603 -166h22q218 0 451 105
q-107 -128 -150 -170zM684 1274l123 -124l-128 -134l-116 123zM684 998l123 -124l-128 -134l-116 123z" />
    <glyph glyph-name="uni0682.fina" unicode="&#x682;" horiz-adv-x="1511" 
d="M1122 328q0 -22 6 -64q11 -76 48 -86q47 -12 182 -12h81h91v-166h-91q-219 0 -288 70q-84 86 -84 236q0 2 -1 2h-1q-25 0 -391 -309q-378 -319 -378 -651q0 -253 213 -301q120 -27 229 -27q102 0 215 19q148 25 282 25q43 0 80 -4q147 -50 147 -92q0 -20 -14 -24
q-4 -1 -45 -30q-24 -17 -49 -102q-82 79 -118 79h-1q0 -3 -12 -3q-21 0 -287 -42q-50 -8 -124 -8q-45 0 -154 8q-92 7 -143 16q-127 36 -173 68q-167 80 -167 375q26 424 695 994q-207 -31 -391 -31q-32 0 -60 1q-178 5 -359 12q14 50 131 203q103 -36 280 -36q290 0 416 14
q164 18 369 56q-35 -90 -63 -115q-23 -21 -36 -33q-35 -34 -35 -42zM680 1199l123 -124l-128 -134l-116 123zM680 923l123 -124l-128 -134l-116 123z" />
    <glyph glyph-name="uni0683" unicode="&#x683;" horiz-adv-x="1529" arabic-form="isolated" 
d="M198 771q111 -41 300 -41h34q252 0 362 13q172 21 370 59q-26 -67 -64 -116q-25 -32 -70 -75q-153 -50 -448 -331q-378 -360 -378 -659v-21q0 -222 212 -271q112 -26 234 -26q101 0 210 18q164 27 279 27q45 0 84 -4q147 -51 147 -92q-1 -12 -14 -24q-3 -2 -46 -30
q-22 -14 -49 -103q-68 76 -131 76q-8 0 -286 -39q-57 -8 -127 -8q-69 0 -152 8q-140 13 -143 14q-127 36 -172 67q-167 80 -167 375q0 403 695 993q-217 -30 -407 -30h-44q-157 0 -359 16q14 44 130 204zM1023 22l123 -124l-128 -134l-116 123zM753 23l123 -124l-128 -134
l-116 123z" />
    <glyph glyph-name="uni0684" unicode="&#x684;" horiz-adv-x="1525" arabic-form="isolated" 
d="M198 771q111 -41 300 -41h34q252 0 362 13q172 21 370 59q-26 -67 -64 -116q-25 -32 -70 -75q-153 -50 -448 -331q-378 -360 -378 -659v-21q0 -222 212 -271q112 -26 234 -26q101 0 210 18q164 27 279 27q45 0 84 -4q147 -51 147 -92q-1 -12 -14 -24q-3 -2 -46 -30
q-22 -14 -49 -103q-68 76 -131 76q-8 0 -286 -39q-57 -8 -127 -8q-69 0 -152 8q-140 13 -143 14q-127 36 -172 67q-167 80 -167 375q0 403 695 993q-217 -30 -407 -30h-44q-157 0 -359 16q14 44 130 204zM928 98l123 -124l-128 -134l-116 123zM928 -178l123 -124l-128 -134
l-116 123z" />
    <glyph glyph-name="uni0685.medi" unicode="&#x685;" horiz-adv-x="1275" 
d="M868 318q39 -88 110 -121q73 -28 173 -31h51h53h47v-166h-109q-129 0 -235 119q-140 157 -149 174l-216 -112l-268 -99q-164 -76 -164 -82h-161v166l134 1l122 48l158 87q-120 45 -158 70q-63 42 -186 107l102 189q381 -166 603 -166h22q218 0 451 105
q-107 -128 -150 -170zM831 1013l123 -124l-128 -134l-116 123zM561 1014l123 -124l-128 -134l-116 123zM696 1258l123 -124l-128 -134l-116 123z" />
    <glyph glyph-name="uni0685.fina" unicode="&#x685;" horiz-adv-x="1506" 
d="M1122 328q0 -22 6 -64q11 -76 48 -86q47 -12 182 -12h81h91v-166h-91q-219 0 -288 70q-84 86 -84 236q0 2 -1 2h-1q-25 0 -391 -309q-378 -319 -378 -651q0 -253 213 -301q120 -27 229 -27q102 0 215 19q148 25 282 25q43 0 80 -4q147 -50 147 -92q0 -20 -14 -24
q-4 -1 -45 -30q-24 -17 -49 -102q-82 79 -118 79h-1q0 -3 -12 -3q-21 0 -287 -42q-50 -8 -124 -8q-45 0 -154 8q-92 7 -143 16q-127 36 -173 68q-167 80 -167 375q26 424 695 994q-207 -31 -391 -31q-32 0 -60 1q-178 5 -359 12q14 50 131 203q103 -36 280 -36q290 0 416 14
q164 18 369 56q-35 -90 -63 -115q-23 -21 -36 -33q-35 -34 -35 -42zM824 892l123 -124l-128 -134l-116 123zM554 893l123 -124l-128 -134l-116 123zM688 1136l123 -124l-128 -134l-116 123z" />
    <glyph glyph-name="uni0686" unicode="&#x686;" horiz-adv-x="1530" arabic-form="isolated" 
d="M198 771q111 -41 300 -41h34q252 0 362 13q172 21 370 59q-26 -67 -64 -116q-25 -32 -70 -75q-153 -50 -448 -331q-378 -360 -378 -659v-21q0 -222 212 -271q112 -26 234 -26q101 0 210 18q164 27 279 27q45 0 84 -4q147 -51 147 -92q-1 -12 -14 -24q-3 -2 -46 -30
q-22 -14 -49 -103q-68 76 -131 76q-8 0 -286 -39q-57 -8 -127 -8q-69 0 -152 8q-140 13 -143 14q-127 36 -172 67q-167 80 -167 375q0 403 695 993q-217 -30 -407 -30h-44q-157 0 -359 16q14 44 130 204zM1018 74l123 -124l-128 -134l-116 123zM748 75l123 -124l-128 -134
l-116 123zM881 -148l123 -124l-128 -134l-116 123z" />
    <glyph glyph-name="uni0687" unicode="&#x687;" horiz-adv-x="1523" arabic-form="isolated" 
d="M198 771q111 -41 300 -41h34q252 0 362 13q172 21 370 59q-26 -67 -64 -116q-25 -32 -70 -75q-153 -50 -448 -331q-378 -360 -378 -659v-21q0 -222 212 -271q112 -26 234 -26q101 0 210 18q164 27 279 27q45 0 84 -4q147 -51 147 -92q-1 -12 -14 -24q-3 -2 -46 -30
q-22 -14 -49 -103q-68 76 -131 76q-8 0 -286 -39q-57 -8 -127 -8q-69 0 -152 8q-140 13 -143 14q-127 36 -172 67q-167 80 -167 375q0 403 695 993q-217 -30 -407 -30h-44q-157 0 -359 16q14 44 130 204zM1011 114l123 -124l-128 -134l-116 123zM741 116l123 -124l-128 -134
l-116 123zM1011 -162l123 -124l-128 -134l-116 123zM741 -160l123 -124l-128 -134l-116 123z" />
    <glyph glyph-name="uni0688" unicode="&#x688;" horiz-adv-x="880" arabic-form="isolated" 
d="M477.366 1478.86q40.8965 -51.3525 40.8965 -130.181q0 -20.2793 -3.05957 -59.6934q-3.05859 -39.4141 -3.05859 -59.6934q0 -51.0254 12.2363 -91.584q26.084 23.5498 63.4385 65.7441q19.6436 21.915 30.9141 21.915q9.66113 0 32.8467 -14.7188l66.3359 -41.8672
q-21.2539 -109.901 -132.029 -137.704q-35.4219 -16.6816 -129.452 -31.0732q-41.2188 9.48535 -76.6416 22.8965q-57.9629 22.5684 -57.9629 42.5215q0 3.59766 0.96582 6.54102q21.8975 -9.8125 145.554 -9.8125q12.5586 13.7383 12.5586 84.7158
q0 73.5947 -11.2705 165.833q-11.5928 91.585 -24.1514 111.21zM589.43 1165.51q-11.2715 -16.3535 -42.8291 -48.4082q-30.9141 -30.7461 -41.541 -48.082q31.2363 0.981445 87.9121 21.2607q61.8281 22.8955 63.7607 23.2227q-26.084 33.3633 -67.3027 52.0068zM512 817
h16q47 0 78 -23q83 -62 148 -201q60 -129 60 -219v-7q0 -66 -120 -278l-113 -54l-145 -44q-97 -20 -190 -48q-77 -23 -182 -108q16 98 49 233l144 91q44 37 335 83l116 51q-11 51 -49 94q-175 199 -195 199q-1 0 -2 -1q-26 -35 -32 -26q9 75 82 258z" />
    <glyph glyph-name="uni0689.fina" unicode="&#x689;" horiz-adv-x="926" 
d="M224 -135q0 60 35 103q34 42 86 42q49 0 85 -43q35 -42 35 -102q0 -61 -35 -102q-36 -42 -85 -42q-51 0 -86 42t-35 102zM387 -141q0 21 -13 36t-31 15l-28 -15q-14 -15 -14 -38q0 -17 14 -33q15 -17 30 -16q11 1 20 8q17 13 21 32q1 6 1 11zM551 946h1q24 0 62 -126
q38 -124 103 -437q30 -145 138 -217h90v-166h-89q-87 0 -144 85q-27 40 -73 147q-82 -157 -131 -167q-29 -6 -267 -81q-120 -38 -182 -109q-14 16 -16 51v4q0 25 10 64q14 54 16 70q120 101 240 117q216 28 289 90v11q0 161 -132 493z" />
    <glyph glyph-name="uni068A.fina" unicode="&#x68a;" horiz-adv-x="916" 
d="M551 946h1q24 0 62 -126q38 -124 103 -437q30 -145 138 -217h90v-166h-89q-87 0 -144 85q-27 40 -73 147q-82 -157 -131 -167q-29 -6 -267 -81q-120 -38 -182 -109q-14 16 -16 51v4q0 25 10 64q14 54 16 70q120 101 240 117q216 28 289 90v11q0 161 -132 493zM367 -166
l123 -124l-128 -134l-116 123z" />
    <glyph glyph-name="uni068B.fina" unicode="&#x68b;" horiz-adv-x="924" 
d="M551 946h1q24 0 62 -126q38 -124 103 -437q30 -145 138 -217h90v-166h-89q-87 0 -144 85q-27 40 -73 147q-82 -157 -131 -167q-29 -6 -267 -81q-120 -38 -182 -109q-14 16 -16 51v4q0 25 10 64q14 54 16 70q120 101 240 117q216 28 289 90v11q0 161 -132 493z
M480.366 1611.86q40.8965 -51.3525 40.8965 -130.181q0 -20.2793 -3.05957 -59.6934q-3.05859 -39.4141 -3.05859 -59.6934q0 -51.0254 12.2363 -91.584q26.084 23.5498 63.4385 65.7441q19.6436 21.915 30.9141 21.915q9.66113 0 32.8467 -14.7188l66.3359 -41.8672
q-21.2539 -109.901 -132.029 -137.704q-35.4219 -16.6816 -129.452 -31.0732q-41.2188 9.48535 -76.6416 22.8965q-57.9629 22.5684 -57.9629 42.5215q0 3.59766 0.96582 6.54102q21.8975 -9.8125 145.554 -9.8125q12.5586 13.7383 12.5586 84.7158
q0 73.5947 -11.2705 165.833q-11.5928 91.585 -24.1514 111.21zM592.43 1298.51q-11.2715 -16.3535 -42.8291 -48.4082q-30.9141 -30.7461 -41.541 -48.082q31.2363 0.981445 87.9121 21.2607q61.8281 22.8955 63.7607 23.2227q-26.084 33.3633 -67.3027 52.0068zM367 -166
l123 -124l-128 -134l-116 123z" />
    <glyph glyph-name="uni068C" unicode="&#x68c;" horiz-adv-x="858" arabic-form="isolated" 
d="M512 817h16q47 0 78 -23q83 -62 148 -201q60 -129 60 -219v-7q0 -66 -120 -278l-113 -54l-145 -44q-97 -20 -190 -48q-77 -23 -182 -108q16 98 49 233l144 91q44 37 335 83l116 51q-11 51 -49 94q-175 199 -195 199q-1 0 -2 -1q-26 -35 -32 -26q9 75 82 258zM690 1259
l123 -124l-128 -134l-116 123zM420 1260l123 -124l-128 -134l-116 123z" />
    <glyph glyph-name="uni068D" unicode="&#x68d;" horiz-adv-x="863" arabic-form="isolated" 
d="M512 817h16q47 0 78 -23q83 -62 148 -201q60 -129 60 -219v-7q0 -66 -120 -278l-113 -54l-145 -44q-97 -20 -190 -48q-77 -23 -182 -108q16 98 49 233l144 91q44 37 335 83l116 51q-11 51 -49 94q-175 199 -195 199q-1 0 -2 -1q-26 -35 -32 -26q9 75 82 258zM533 -185
l123 -124l-128 -134l-116 123zM263 -184l123 -124l-128 -134l-116 123z" />
    <glyph glyph-name="uni068E" unicode="&#x68e;" horiz-adv-x="870" arabic-form="isolated" 
d="M512 817h16q47 0 78 -23q83 -62 148 -201q60 -129 60 -219v-7q0 -66 -120 -278l-113 -54l-145 -44q-97 -20 -190 -48q-77 -23 -182 -108q16 98 49 233l144 91q44 37 335 83l116 51q-11 51 -49 94q-175 199 -195 199q-1 0 -2 -1q-26 -35 -32 -26q9 75 82 258zM675 1218
l123 -124l-128 -134l-116 123zM405 1219l123 -124l-128 -134l-116 123zM540 1463l123 -124l-128 -134l-116 123z" />
    <glyph glyph-name="uni068F.fina" unicode="&#x68f;" horiz-adv-x="924" 
d="M551 946h1q24 0 62 -126q38 -124 103 -437q30 -145 138 -217h90v-166h-89q-87 0 -144 85q-27 40 -73 147q-82 -157 -131 -167q-29 -6 -267 -81q-120 -38 -182 -109q-14 16 -16 51v4q0 25 10 64q14 54 16 70q120 101 240 117q216 28 289 90v11q0 161 -132 493zM667 1584
l123 -124l-128 -134l-116 123zM397 1585l123 -124l-128 -134l-116 123zM530 1362l123 -124l-128 -134l-116 123z" />
    <glyph glyph-name="uni0690.fina" unicode="&#x690;" horiz-adv-x="918" 
d="M551 946h1q24 0 62 -126q38 -124 103 -437q30 -145 138 -217h90v-166h-89q-87 0 -144 85q-27 40 -73 147q-82 -157 -131 -167q-29 -6 -267 -81q-120 -38 -182 -109q-14 16 -16 51v4q0 25 10 64q14 54 16 70q120 101 240 117q216 28 289 90v11q0 161 -132 493zM670 1604
l123 -124l-128 -134l-116 123zM400 1606l123 -124l-128 -134l-116 123zM670 1328l123 -124l-128 -134l-116 123zM400 1330l123 -124l-128 -134l-116 123z" />
    <glyph glyph-name="uni0691" unicode="&#x691;" horiz-adv-x="910" arabic-form="isolated" 
d="M513.366 1261.86q40.8965 -51.3525 40.8965 -130.181q0 -20.2793 -3.05957 -59.6934q-3.05859 -39.4141 -3.05859 -59.6934q0 -51.0254 12.2363 -91.584q26.084 23.5498 63.4385 65.7441q19.6436 21.915 30.9141 21.915q9.66113 0 32.8467 -14.7188l66.3359 -41.8672
q-21.2539 -109.901 -132.029 -137.704q-35.4219 -16.6816 -129.452 -31.0732q-41.2188 9.48535 -76.6416 22.8965q-57.9629 22.5684 -57.9629 42.5215q0 3.59766 0.96582 6.54102q21.8975 -9.8125 145.554 -9.8125q12.5586 13.7383 12.5586 84.7158
q0 73.5947 -11.2705 165.833q-11.5928 91.585 -24.1514 111.21zM625.43 948.506q-11.2715 -16.3535 -42.8291 -48.4082q-30.9141 -30.7461 -41.541 -48.082q31.2363 0.981445 87.9121 21.2607q61.8281 22.8955 63.7607 23.2227q-26.084 33.3633 -67.3027 52.0068zM664 520
q11 -5 78 -105q66 -99 69 -104v-18q-3 -37 -34 -143q-79 -267 -420 -478q-176 -109 -310 -145v2q1 4 15 76q18 92 19 96q536 225 646 469l-126 179q10 78 63 171z" />
    <glyph glyph-name="uni0692.fina" unicode="&#x692;" horiz-adv-x="855" 
d="M471 1025l79 60q0 -4 61 -110l58 -101q37 79 83 197l61 24q11 -32 11 -70q-13 -41 -137 -334q-17 -40 -41 -31l-101 199q-22 62 -74 166zM788 25q-2 -10 -12 -44q-80 -263 -422 -475q-179 -111 -308 -149q-1 1 -1 5q5 40 11 73q9 48 24 96q534 223 645 469l-125 181
q10 81 61 172q13 -4 78 -105q49 -82 99 -82h32v-166h-30q-11 0 -25 13q-25 23 -27 12z" />
    <glyph glyph-name="uni0693.fina" unicode="&#x693;" horiz-adv-x="851" 
d="M349 -587q0 60 35 103q34 42 86 42q49 0 85 -43q35 -42 35 -102q0 -61 -35 -102q-36 -42 -85 -42q-51 0 -86 42t-35 102zM512 -593q0 21 -13 36t-31 15l-28 -15q-14 -15 -14 -38q0 -17 14 -33q15 -17 30 -16q11 1 20 8q17 13 21 32q1 6 1 11zM788 25q-2 -10 -12 -44
q-80 -263 -422 -475q-179 -111 -308 -149q-1 1 -1 5q5 40 11 73q9 48 24 96q534 223 645 469l-125 181q10 81 61 172q13 -4 78 -105q49 -82 99 -82h32v-166h-30q-11 0 -25 13q-25 23 -27 12z" />
    <glyph glyph-name="uni0694.fina" unicode="&#x694;" horiz-adv-x="849" 
d="M788 25q-2 -10 -12 -44q-80 -263 -422 -475q-179 -111 -308 -149q-1 1 -1 5q5 40 11 73q9 48 24 96q534 223 645 469l-125 181q10 81 61 172q13 -4 78 -105q49 -82 99 -82h32v-166h-30q-11 0 -25 13q-25 23 -27 12zM530 -576l123 -124l-128 -134l-116 123z" />
    <glyph glyph-name="uni0695.fina" unicode="&#x695;" horiz-adv-x="866" 
d="M297 -666l79 60q0 -4 61 -110l58 -101q37 79 83 197l61 24q11 -32 11 -70q-13 -41 -137 -334q-17 -40 -41 -31l-101 199q-22 62 -74 166zM788 25q-2 -10 -12 -44q-80 -263 -422 -475q-179 -111 -308 -149q-1 1 -1 5q5 40 11 73q9 48 24 96q534 223 645 469l-125 181
q10 81 61 172q13 -4 78 -105q49 -82 99 -82h32v-166h-30q-11 0 -25 13q-25 23 -27 12z" />
    <glyph glyph-name="uni0696.fina" unicode="&#x696;" horiz-adv-x="856" 
d="M471 1025l79 60q0 -4 61 -110l58 -101q37 79 83 197l61 24q11 -32 11 -70q-13 -41 -137 -334q-17 -40 -41 -31l-101 199q-22 62 -74 166zM788 25q-2 -10 -12 -44q-80 -263 -422 -475q-179 -111 -308 -149q-1 1 -1 5q5 40 11 73q9 48 24 96q534 223 645 469l-125 181
q10 81 61 172q13 -4 78 -105q49 -82 99 -82h32v-166h-30q-11 0 -25 13q-25 23 -27 12zM403 190l123 -124l-128 -134l-116 123z" />
    <glyph glyph-name="uni0697.fina" unicode="&#x697;" horiz-adv-x="849" 
d="M788 25q-2 -10 -12 -44q-80 -263 -422 -475q-179 -111 -308 -149q-1 1 -1 5q5 40 11 73q9 48 24 96q534 223 645 469l-125 181q10 81 61 172q13 -4 78 -105q49 -82 99 -82h32v-166h-30q-11 0 -25 13q-25 23 -27 12zM721 750l123 -124l-128 -134l-116 123zM451 752
l123 -124l-128 -134l-116 123z" />
    <glyph glyph-name="uni0698" unicode="&#x698;" horiz-adv-x="992" arabic-form="isolated" 
d="M664 520q11 -5 78 -105q66 -99 69 -104v-18q-3 -37 -34 -143q-79 -267 -420 -478q-176 -109 -310 -145v2q1 4 15 76q18 92 19 96q536 225 646 469l-126 179q10 78 63 171zM807 916l123 -124l-128 -134l-116 123zM537 917l123 -124l-128 -134l-116 123zM672 1160l123 -124
l-128 -134l-116 123z" />
    <glyph glyph-name="uni0699.fina" unicode="&#x699;" horiz-adv-x="857" 
d="M788 25q-2 -10 -12 -44q-80 -263 -422 -475q-179 -111 -308 -149q-1 1 -1 5q5 40 11 73q9 48 24 96q534 223 645 469l-125 181q10 81 61 172q13 -4 78 -105q49 -82 99 -82h32v-166h-30q-11 0 -25 13q-25 23 -27 12zM726 1013l123 -124l-128 -134l-116 123zM456 1014
l123 -124l-128 -134l-116 123zM726 737l123 -124l-128 -134l-116 123zM456 738l123 -124l-128 -134l-116 123z" />
    <glyph glyph-name="uni069A.medi" unicode="&#x69a;" horiz-adv-x="1208" 
d="M624 306q31 0 31 -4q2 -32 13 -45q72 -83 180 -83q17 0 36 2q56 0 112 65l82 95l30 -104l74 -66h52v-166h-51q-47 0 -85 36l-85 80q-28 -122 -156 -122q-91 0 -232 91q-9 -29 -85 -66q-60 -29 -117 -29h-4q-84 0 -154 50q-29 -40 -108 -41h-50q-43 1 -107 1v166
q34 0 130 -3q24 0 30 7q72 84 88 147q32 -156 206 -156q80 0 112.5 40.5t57.5 104.5zM742 -162l123 -124l-128 -134l-116 123zM731 787l123 -124l-128 -134l-116 123z" />
    <glyph glyph-name="uni069A.fina" unicode="&#x69a;" horiz-adv-x="1564" 
d="M1146 349q33 0 35 -38q3 -61 10 -79q19 -50 96 -76h2q12 0 42 91l36 114l47 -103q38 -92 95 -92h79v-166h-78q-46 0 -61 10q-22 15 -67 85q-15 -154 -117 -154q-110 0 -185 96q-24 -144 -162 -151q1 -31 1 -72v-13q0 -164 -74 -394q-57 -87 -192 -149t-267 -62
q-147 0 -232 71q-97 81 -97 245q0 171 113 418q30 -4 28 -46q-20 -111 -20 -196q0 -270 208 -270q205 0 450 193q-9 178 -93 366q11 143 72 298q21 -199 124 -199h4q59 0 121 78t82 195zM1212 -295l123 -124l-128 -134l-116 123zM1194 752l123 -124l-128 -134l-116 123z" />
    <glyph glyph-name="uni069B.medi" unicode="&#x69b;" horiz-adv-x="1213" 
d="M624 306q31 0 31 -4q2 -32 13 -45q72 -83 180 -83q17 0 36 2q56 0 112 65l82 95l30 -104l74 -66h52v-166h-51q-47 0 -85 36l-85 80q-28 -122 -156 -122q-91 0 -232 91q-9 -29 -85 -66q-60 -29 -117 -29h-4q-84 0 -154 50q-29 -40 -108 -41h-50q-43 1 -107 1v166
q34 0 130 -3q24 0 30 7q72 84 88 147q32 -156 206 -156q80 0 112.5 40.5t57.5 104.5zM902 -126l123 -124l-128 -134l-116 123zM632 -125l123 -124l-128 -134l-116 123zM765 -348l123 -124l-128 -134l-116 123z" />
    <glyph glyph-name="uni069B.fina" unicode="&#x69b;" horiz-adv-x="1569" 
d="M1146 349q33 0 35 -38q3 -61 10 -79q19 -50 96 -76h2q12 0 42 91l36 114l47 -103q38 -92 95 -92h79v-166h-78q-46 0 -61 10q-22 15 -67 85q-15 -154 -117 -154q-110 0 -185 96q-24 -144 -162 -151q1 -31 1 -72v-13q0 -164 -74 -394q-57 -87 -192 -149t-267 -62
q-147 0 -232 71q-97 81 -97 245q0 171 113 418q30 -4 28 -46q-20 -111 -20 -196q0 -270 208 -270q205 0 450 193q-9 178 -93 366q11 143 72 298q21 -199 124 -199h4q59 0 121 78t82 195zM1400 -221l123 -124l-128 -134l-116 123zM1130 -220l123 -124l-128 -134l-116 123z
M1263 -443l123 -124l-128 -134l-116 123z" />
    <glyph glyph-name="uni069C.medi" unicode="&#x69c;" horiz-adv-x="1211" 
d="M624 306q31 0 31 -4q2 -32 13 -45q72 -83 180 -83q17 0 36 2q56 0 112 65l82 95l30 -104l74 -66h52v-166h-51q-47 0 -85 36l-85 80q-28 -122 -156 -122q-91 0 -232 91q-9 -29 -85 -66q-60 -29 -117 -29h-4q-84 0 -154 50q-29 -40 -108 -41h-50q-43 1 -107 1v166
q34 0 130 -3q24 0 30 7q72 84 88 147q32 -156 206 -156q80 0 112.5 40.5t57.5 104.5zM771 733l123 -124l-128 -134l-116 123zM501 734l123 -124l-128 -134l-116 123zM636 978l123 -124l-128 -134l-116 123zM816 -92l123 -124l-128 -134l-116 123zM546 -90l123 -124
l-128 -134l-116 123zM680 -314l123 -124l-128 -134l-116 123z" />
    <glyph glyph-name="uni069C.fina" unicode="&#x69c;" horiz-adv-x="1563" 
d="M1146 349q33 0 35 -38q3 -61 10 -79q19 -50 96 -76h2q12 0 42 91l36 114l47 -103q38 -92 95 -92h79v-166h-78q-46 0 -61 10q-22 15 -67 85q-15 -154 -117 -154q-110 0 -185 96q-24 -144 -162 -151q1 -31 1 -72v-13q0 -164 -74 -394q-57 -87 -192 -149t-267 -62
q-147 0 -232 71q-97 81 -97 245q0 171 113 418q30 -4 28 -46q-20 -111 -20 -196q0 -270 208 -270q205 0 450 193q-9 178 -93 366q11 143 72 298q21 -199 124 -199h4q59 0 121 78t82 195zM1260 694l123 -124l-128 -134l-116 123zM990 695l123 -124l-128 -134l-116 123z
M1124 938l123 -124l-128 -134l-116 123zM1390 -200l123 -124l-128 -134l-116 123zM1120 -199l123 -124l-128 -134l-116 123zM1253 -422l123 -124l-128 -134l-116 123z" />
    <glyph glyph-name="uni069D.medi" unicode="&#x69d;" horiz-adv-x="966" 
d="M496 361q-143 -105 -143 -146q0 -19 46 -19q70 0 249 55q-58 67 -152 110zM766 215q104 -49 134 -49h91v-166h-90q-187 0 -248 134l-29 -15q-217 -96 -366 -96h-17q-77 0 -125 84q-10 -60 -62 -84l-54 -23v166l44 26q46 52 46 118v6q47 -12 71 -95l97 -10q85 161 324 339
q15 3 25 3q19 0 64 -36q139 -111 179 -137q0 -87 -84 -165zM550 -118l123 -124l-128 -134l-116 123zM280 -117l123 -124l-128 -134l-116 123z" />
    <glyph glyph-name="uni069D.fina" unicode="&#x69d;" horiz-adv-x="1653" 
d="M1195 292q-144 -112 -144 -147q0 -24 44 -23q73 1 252 53q-57 75 -152 117zM1408 98q-37 -28 -87 -50q-225 -98 -363 -98h-11q-36 0 -58 12q1 -20 1 -42q0 -159 -98 -324q-142 -85 -190 -107q-144 -65 -238 -65q-183 0 -278 193q-47 95 -47 185v4q0 145 105 295l19 -46
q-19 -93 -19 -166q2 -256 231 -256q162 0 427 134q-9 34 -48 163q-30 102 -37 171q48 53 67 133q46 -24 76 -84l95 -10q85 161 325 338h22q26 -2 67 -36q65 -54 179 -132q0 -68 -44 -125q33 -17 69 -17h91v-168h-90q-120 0 -166 98zM1350 -170l123 -124l-128 -134l-116 123z
M1080 -169l123 -124l-128 -134l-116 123z" />
    <glyph glyph-name="uni069E.medi" unicode="&#x69e;" horiz-adv-x="972" 
d="M496 361q-143 -105 -143 -146q0 -19 46 -19q70 0 249 55q-58 67 -152 110zM766 215q104 -49 134 -49h91v-166h-90q-187 0 -248 134l-29 -15q-217 -96 -366 -96h-17q-77 0 -125 84q-10 -60 -62 -84l-54 -23v166l44 26q46 52 46 118v6q47 -12 71 -95l97 -10q85 161 324 339
q15 3 25 3q19 0 64 -36q139 -111 179 -137q0 -87 -84 -165zM730 955l123 -124l-128 -134l-116 123zM460 956l123 -124l-128 -134l-116 123zM595 1200l123 -124l-128 -134l-116 123z" />
    <glyph glyph-name="uni069E.fina" unicode="&#x69e;" horiz-adv-x="1648" 
d="M1195 292q-144 -112 -144 -147q0 -24 44 -23q73 1 252 53q-57 75 -152 117zM1408 98q-37 -28 -87 -50q-225 -98 -363 -98h-11q-36 0 -58 12q1 -20 1 -42q0 -159 -98 -324q-142 -85 -190 -107q-144 -65 -238 -65q-183 0 -278 193q-47 95 -47 185v4q0 145 105 295l19 -46
q-19 -93 -19 -166q2 -256 231 -256q162 0 427 134q-9 34 -48 163q-30 102 -37 171q48 53 67 133q46 -24 76 -84l95 -10q85 161 325 338h22q26 -2 67 -36q65 -54 179 -132q0 -68 -44 -125q33 -17 69 -17h91v-168h-90q-120 0 -166 98zM1400 873l123 -124l-128 -134l-116 123z
M1130 874l123 -124l-128 -134l-116 123zM1265 1118l123 -124l-128 -134l-116 123z" />
    <glyph glyph-name="uni069F.medi" unicode="&#x69f;" horiz-adv-x="994" 
d="M0 0v166h47h11q40 0 84 24q38 40 38 259q0 210 -35 488q-34 270 -71 328l98 169q124 -160 124 -401q0 -52 -10 -179t-10 -186q0 -153 41 -278q83 77 198 203q61 67 92 67t103 -44l213 -132q-41 -180 -82 -208q-161 -110 -165 -124v0h2q14 0 106 4q132 6 141 10h91v-166
h-1016zM258 186q94 2 265 62q197 69 207 69q-69 99 -208 165q-15 -31 -45 -68q-21 -26 -75 -80q-58 -58 -59 -58q-55 -62 -85 -90zM774 1093l123 -124l-128 -134l-116 123zM504 1094l123 -124l-128 -134l-116 123zM638 1338l123 -124l-128 -134l-116 123z" />
    <glyph glyph-name="uni069F.fina" unicode="&#x69f;" horiz-adv-x="1351" 
d="M1038 152l109 4q87 4 141 10h92v-166h-91q-544 -30 -820 -30q-125 28 -239 70q-178 65 -178 132q0 9 2 20q67 -32 452 -32q36 42 36 259v47q0 180 -32 460q-31 272 -72 339l96 169q125 -160 125 -401q0 -47 -9 -179q-8 -117 -8 -186q0 -153 36 -278q83 74 199 203
q61 67 95 67q30 0 102 -44l209 -132q-56 -203 -77 -208q-33 -8 -168 -124zM882 476q-38 -56 -132 -150q-102 -103 -130 -145q102 5 272 66q196 70 200 70q-80 104 -210 159zM1141 1073l123 -124l-128 -134l-116 123zM871 1074l123 -124l-128 -134l-116 123zM1005 1318
l123 -124l-128 -134l-116 123z" />
    <glyph glyph-name="uni06A0.medi" unicode="&#x6a0;" horiz-adv-x="913" 
d="M197 0h-197v166h106q102 0 142 66q-72 156 -211 247l31 199l36 12q82 -126 254 -126q214 0 428 155l50 -10q3 -28 3 -49q-1 -70 -18 -150q-36 -18 -106 -80q-71 -63 -113 -78q-18 -53 -18 -91q1 -95 112 -95h250v-166h-246q-127 0 -168 36q-24 21 -113 115
q-172 -151 -222 -151zM570 1133l123 -124l-128 -134l-116 123zM300 1134l123 -124l-128 -134l-116 123zM434 1378l123 -124l-128 -134l-116 123z" />
    <glyph glyph-name="uni06A0.fina" unicode="&#x6a0;" horiz-adv-x="1374" 
d="M865 352q-17 -52 -17 -89q1 -97 112 -97h450v-166h-450q-128 0 -164 36q-47 47 -116 115q-131 -90 -194 -138q-257 -196 -257 -441q0 -74 21 -150q153 -257 513 -257q192 0 409 69q96 0 117 -49q-127 -25 -399 -165q-240 -124 -386 -124q-205 0 -350 169
q-114 133 -114 324v6q0 322 288 687l158 199q-110 150 -186 198l31 199l37 12q80 -126 251 -126q216 0 431 155l52 -10q1 -31 1 -49q-1 -70 -18 -150q-35 -18 -107.5 -80.5t-112.5 -77.5zM837 1078l123 -124l-128 -134l-116 123zM567 1079l123 -124l-128 -134l-116 123z
M702 1322l123 -124l-128 -134l-116 123z" />
    <glyph glyph-name="uni06A1.medi" unicode="&#x6a1;" horiz-adv-x="611" 
d="M82 0h-82v166h95l25 40q-4 43 -4 82q3 271 167 386q185 -30 216 -130q22 -72 22 -133q-1 -139 -112 -221q64 -24 114 -24h107v-166h-106q-62 0 -252 60zM251 270q66 11 101 32q39 23 39 72q0 114 -99 118q-27 -26 -38 -54q-16 -40 -16 -75v-4q0 -22 6 -56q1 -7 7 -33z
" />
    <glyph glyph-name="uni06A1.fina" unicode="&#x6a1;" horiz-adv-x="2064" 
d="M867 169q252 0 481 12q210 11 222 25q-4 44 -4 84q1 268 167 384q180 -30 216 -130q26 -73 26 -138q0 -131 -117 -216q61 -24 114 -24h108v-166h-106q-62 0 -252 60q-198 -45 -812 -56q-218 -4 -624 -20q-150 22 -188 74t-38 143v5q0 145 75 206q9 -222 161 -236z
M1701 270q138 24 138 84v27q0 108 -99 111q-52 -52 -52 -133q0 -41 13 -89z" />
    <glyph glyph-name="uni06A2.medi" unicode="&#x6a2;" horiz-adv-x="622" 
d="M82 0h-82v166h95l25 40q-4 43 -4 82q3 271 167 386q185 -30 216 -130q22 -72 22 -133q-1 -139 -112 -221q64 -24 114 -24h107v-166h-106q-62 0 -252 60zM251 270q66 11 101 32q39 23 39 72q0 114 -99 118q-27 -26 -38 -54q-16 -40 -16 -75v-4q0 -22 6 -56q1 -7 7 -33z
M270 -146l123 -124l-128 -134l-116 123z" />
    <glyph glyph-name="uni06A2.fina" unicode="&#x6a2;" horiz-adv-x="2049" 
d="M867 169q252 0 481 12q210 11 222 25q-4 44 -4 84q1 268 167 384q180 -30 216 -130q26 -73 26 -138q0 -131 -117 -216q61 -24 114 -24h108v-166h-106q-62 0 -252 60q-198 -45 -812 -56q-218 -4 -624 -20q-150 22 -188 74t-38 143v5q0 145 75 206q9 -222 161 -236z
M1701 270q138 24 138 84v27q0 108 -99 111q-52 -52 -52 -133q0 -41 13 -89zM1438 -139l123 -124l-128 -134l-116 123z" />
    <glyph glyph-name="uni06A3.medi" unicode="&#x6a3;" horiz-adv-x="614" 
d="M328 1188l123 -124l-128 -134l-116 123zM82 0h-82v166h95l25 40q-4 43 -4 82q3 271 167 386q185 -30 216 -130q22 -72 22 -133q-1 -139 -112 -221q64 -24 114 -24h107v-166h-106q-62 0 -252 60zM251 270q66 11 101 32q39 23 39 72q0 114 -99 118q-27 -26 -38 -54
q-16 -40 -16 -75v-4q0 -22 6 -56q1 -7 7 -33zM210 -146l123 -124l-128 -134l-116 123z" />
    <glyph glyph-name="uni06A3.fina" unicode="&#x6a3;" horiz-adv-x="2058" 
d="M1786 1150l123 -124l-128 -134l-116 123zM867 169q252 0 481 12q210 11 222 25q-4 44 -4 84q1 268 167 384q180 -30 216 -130q26 -73 26 -138q0 -131 -117 -216q61 -24 114 -24h108v-166h-106q-62 0 -252 60q-198 -45 -812 -56q-218 -4 -624 -20q-150 22 -188 74t-38 143
v5q0 145 75 206q9 -222 161 -236zM1701 270q138 24 138 84v27q0 108 -99 111q-52 -52 -52 -133q0 -41 13 -89zM1438 -139l123 -124l-128 -134l-116 123z" />
    <glyph glyph-name="uni06A4" unicode="&#x6a4;" horiz-adv-x="1828" arabic-form="isolated" 
d="M1370 257q246 60 265 102q-5 21 -24 63q-40 88 -61 112q-27 -47 -92 -84q-66 -37 -124 -37q-86 0 -96 86q61 239 206 415q49 -47 186 -236q109 -152 134 -262q6 -27 6 -52q0 -197 -387 -264l-292 -51l-457 -49q-81 -5 -142 -5q-77 0 -100 5q-140 30 -198 59l-65 71
l-18 280l103 107l47 -230q21 -50 78 -70q114 -40 237 -43l400 29zM1409 704l-62 -114q48 -15 85 -16q51 -1 52 32q0 40 -75 98zM1576 1258l123 -124l-128 -134l-116 123zM1306 1259l123 -124l-128 -134l-116 123zM1440 1503l123 -124l-128 -134l-116 123z" />
    <glyph glyph-name="uni06A5.medi" unicode="&#x6a5;" horiz-adv-x="619" 
d="M82 0h-82v166h95l25 40q-4 43 -4 82q3 271 167 386q185 -30 216 -130q22 -72 22 -133q-1 -139 -112 -221q64 -24 114 -24h107v-166h-106q-62 0 -252 60zM251 270q66 11 101 32q39 23 39 72q0 114 -99 118q-27 -26 -38 -54q-16 -40 -16 -75v-4q0 -22 6 -56q1 -7 7 -33z
M288 -337l123 -124l-128 -134l-116 123zM425 -115l123 -124l-128 -134l-116 123zM155 -114l123 -124l-128 -134l-116 123z" />
    <glyph glyph-name="uni06A5.fina" unicode="&#x6a5;" horiz-adv-x="2055" 
d="M867 169q252 0 481 12q210 11 222 25q-4 44 -4 84q1 268 167 384q180 -30 216 -130q26 -73 26 -138q0 -131 -117 -216q61 -24 114 -24h108v-166h-106q-62 0 -252 60q-198 -45 -812 -56q-218 -4 -624 -20q-150 22 -188 74t-38 143v5q0 145 75 206q9 -222 161 -236z
M1701 270q138 24 138 84v27q0 108 -99 111q-52 -52 -52 -133q0 -41 13 -89zM1633 -110l123 -124l-128 -134l-116 123zM1363 -108l123 -124l-128 -134l-116 123zM1496 -332l123 -124l-128 -134l-116 123z" />
    <glyph glyph-name="uni06A6" unicode="&#x6a6;" horiz-adv-x="1820" arabic-form="isolated" 
d="M1370 257q246 60 265 102q-5 21 -24 63q-40 88 -61 112q-27 -47 -92 -84q-66 -37 -124 -37q-86 0 -96 86q61 239 206 415q49 -47 186 -236q109 -152 134 -262q6 -27 6 -52q0 -197 -387 -264l-292 -51l-457 -49q-81 -5 -142 -5q-77 0 -100 5q-140 30 -198 59l-65 71
l-18 280l103 107l47 -230q21 -50 78 -70q114 -40 237 -43l400 29zM1409 704l-62 -114q48 -15 85 -16q51 -1 52 32q0 40 -75 98zM1557 1549l123 -124l-128 -134l-116 123zM1287 1550l123 -124l-128 -134l-116 123zM1557 1273l123 -124l-128 -134l-116 123zM1287 1274
l123 -124l-128 -134l-116 123z" />
    <glyph glyph-name="uni06A7.medi" unicode="&#x6a7;" horiz-adv-x="615" 
d="M328 1188l123 -124l-128 -134l-116 123zM82 0h-82v166h95l25 40q-4 43 -4 82q3 271 167 386q185 -30 216 -130q22 -72 22 -133q-1 -139 -112 -221q64 -24 114 -24h107v-166h-106q-62 0 -252 60zM251 270q66 11 101 32q39 23 39 72q0 114 -99 118q-27 -26 -38 -54
q-16 -40 -16 -75v-4q0 -22 6 -56q1 -7 7 -33z" />
    <glyph glyph-name="uni06A7.fina" unicode="&#x6a7;" horiz-adv-x="1103" 
d="M879 419q8 -20 41 -93q75 -159 78 -160h127v-166h-72q18 -82 22 -160q-48 -223 -262 -390q-74 -58 -186 -93q-117 -37 -227 -37h-17q-146 0 -217 87q-115 141 -115 312q0 147 94 316l54 -45q-36 -84 -36 -160v-10q0 -152 165 -274q74 -30 153 -30q211 1 471 226q1 9 1 19
q0 48 -20 105t-20 98q-62 -49 -137 -49q-37 0 -139 39q-1 9 -1 13q21 264 176 470zM781 202l-22 -72q-2 -12 -2 -18q2 -34 27 -33q18 1 45 13q8 4 8 10q0 22 -56 100zM835 823l123 -124l-128 -134l-116 123z" />
    <glyph glyph-name="uni06A8.medi" unicode="&#x6a8;" horiz-adv-x="601" 
d="M304 1314l123 -124l-128 -134l-116 123zM440 1069l123 -124l-128 -134l-116 123zM170 1070l123 -124l-128 -134l-116 123zM82 0h-82v166h95l25 40q-4 43 -4 82q3 271 167 386q185 -30 216 -130q22 -72 22 -133q-1 -139 -112 -221q64 -24 114 -24h107v-166h-106
q-62 0 -252 60zM251 270q66 11 101 32q39 23 39 72q0 114 -99 118q-27 -26 -38 -54q-16 -40 -16 -75v-4q0 -22 6 -56q1 -7 7 -33z" />
    <glyph glyph-name="uni06A8.fina" unicode="&#x6a8;" horiz-adv-x="1114" 
d="M879 419q8 -20 41 -93q75 -159 78 -160h127v-166h-72q18 -82 22 -160q-48 -223 -262 -390q-74 -58 -186 -93q-117 -37 -227 -37h-17q-146 0 -217 87q-115 141 -115 312q0 147 94 316l54 -45q-36 -84 -36 -160v-10q0 -152 165 -274q74 -30 153 -30q211 1 471 226q1 9 1 19
q0 48 -20 105t-20 98q-62 -49 -137 -49q-37 0 -139 39q-1 9 -1 13q21 264 176 470zM781 202l-22 -72q-2 -12 -2 -18q2 -34 27 -33q18 1 45 13q8 4 8 10q0 22 -56 100zM968 837l123 -124l-128 -134l-116 123zM698 838l123 -124l-128 -134l-116 123zM832 1082l123 -124
l-128 -134l-116 123z" />
    <glyph glyph-name="uni06A9" unicode="&#x6a9;" horiz-adv-x="2238" arabic-form="isolated" 
d="M2122 1417q5 0 12 -5q9 -6 9 -22q0 -26 -43 -104l-50 -103q-105 -62 -213 -117q-74 -38 -498 -219q42 -140 145 -282q162 -222 208 -253q-14 -90 -38 -124q-157 -73 -416 -129q-273 -59 -540 -59q-574 0 -619 197l36 224q85 29 117 33l-12 -74v-12q0 -197 430 -197
q59 0 76 1q239 14 422 55q135 11 296 80q-14 45 -114 175q-76 99 -108 194q4 80 60 192q64 128 81 183q132 31 394 154q34 16 61 29q65 31 75 36q128 68 159 92q38 30 40 31z" />
    <glyph glyph-name="uni06AA.medi" unicode="&#x6aa;" horiz-adv-x="1297" 
d="M143 166q16 0 289 31q287 33 317 39q258 55 288 84l-123 77h-37l-227 -59q-100 -21 -201 -34q-95 -12 -143 -12q-15 0 -26 1l-220 56l31 191l369 395l69 75q11 11 31 11l86 -26l112 -37l-49 -134l-107 28l-44 14q-22 7 -41 -12q-6 -6 -44 -45l-275 -300l38 -7l213 -20
l246 27l261 56l77 -21l203 -172l-83 -131q27 -75 92 -75h63v-166h-35q-39 0 -111 30q-99 41 -114 126q-185 -59 -410 -107q-128 -27 -391 -49h-140h-107v166h143z" />
    <glyph glyph-name="uni06AA.fina" unicode="&#x6aa;" horiz-adv-x="1610" 
d="M1360 156q-191 -60 -413 -107q-128 -27 -391 -49l-148 -1l-162 24l-110 48l-72 110l52 243l40 -112q20 -35 55 -64q72 -59 103 -67q54 -14 128 -14q28 0 62 2q1 0 239 28q298 36 315 39q254 53 287 84l-121 77h-36l-227 -59q-96 -21 -206 -34q-99 -12 -145 -12
q-14 0 -23 1l-216 56l29 191l370 395l69 75q9 11 30 11l87 -26l112 -37l-52 -134l-104 28l-47 14q-5 2 -10 2q-16 -2 -29 -14l-46 -45l-275 -300l40 -7l210 -20l248 27l262 56l79 -21l199 -172l-81 -131q25 -75 103 -75h61v-166h-35q-49 0 -121 30q-96 40 -110 126z" />
    <glyph glyph-name="uni06AB.medi" unicode="&#x6ab;" horiz-adv-x="992" 
d="M462 822q0 60 35 103q34 42 86 42q49 0 85 -43q35 -42 35 -102q0 -61 -35 -102q-36 -42 -85 -42q-51 0 -86 42t-35 102zM625 816q0 21 -13 36t-31 15l-28 -15q-14 -15 -14 -38q0 -17 14 -33q15 -17 30 -16q11 1 20 8q17 13 21 32q1 6 1 11zM454 130q-155 -88 -302 -130
h-152v166h37q129 10 214 81q-15 46 -109 175q-86 118 -112 194q6 84 61 190q66 140 81 185q129 31 393 155q289 131 365 212q20 0 20 -24q0 -30 -40 -109l-51 -102q-129 -75 -213 -115q-118 -58 -498 -220q33 -120 145 -279q111 -174 179 -233q127 -110 325 -110h218v-166
h-218q-76 0 -222 40q-65 16 -121 90z" />
    <glyph glyph-name="uni06AB.fina" unicode="&#x6ab;" horiz-adv-x="2143" 
d="M1630 878q0 60 35 103q34 42 86 42q49 0 85 -43q35 -42 35 -102q0 -61 -35 -102q-36 -42 -85 -42q-51 0 -86 42t-35 102zM1793 872q0 21 -13 36t-31 15l-28 -15q-14 -15 -14 -38q0 -17 14 -33q15 -17 30 -16q11 1 20 8q17 13 21 32q1 6 1 11zM1682 331q186 -165 434 -165
h50v-166h-47q-223 0 -296 32q-162 71 -232 144q-145 -69 -372 -117q-280 -59 -540 -59q-608 0 -619 197l36 224q85 29 116 33l-12 -74q-2 -13 -2 -24q2 -182 480 -182h29q175 0 422 53l295 80q-10 34 -114 175q-78 105 -108 194q5 81 60 192q65 131 82 183q131 31 394 154
q289 135 362 211q24 0 24 -23q0 -18 -43 -107l-51 -103q-137 -81 -212 -117q-110 -53 -498 -219q23 -78 55 -143q36 -74 90 -139q56 -67 90 -105q97 -108 127 -129z" />
    <glyph glyph-name="uni06AC.medi" unicode="&#x6ac;" horiz-adv-x="999" 
d="M454 130q-155 -88 -302 -130h-152v166h37q129 10 214 81q-15 46 -109 175q-86 118 -112 194q6 84 61 190q66 140 81 185q129 31 393 155q289 131 365 212q20 0 20 -24q0 -30 -40 -109l-51 -102q-129 -75 -213 -115q-118 -58 -498 -220q33 -120 145 -279
q111 -174 179 -233q127 -110 325 -110h218v-166h-218q-76 0 -222 40q-65 16 -121 90zM362 1522l123 -124l-128 -134l-116 123z" />
    <glyph glyph-name="uni06AC.fina" unicode="&#x6ac;" horiz-adv-x="1822" 
d="M1554 134l-464 -85l-457 -49q-79 -6 -140 -6t-103 6q-176 25 -198 59q-134 150 -134 304q0 65 24 131q4 11 73 182q24 -51 29 -136q-10 -39 -10 -77q1 -128 164 -246q54 -39 237 -43l400 29l393 54l104 41l-35 156q-19 71 -130 458q-96 333 -96 377l45 137
q130 -107 444 -1115q28 -90 88 -90h56v-221h-53q-157 0 -237 134zM882.5 818q-20.5 -46 -41 -76.5t-47.5 -55t-59 -51.5l-314 -27q21 23 59 45.5t81 42t86 40t75.5 35t57.5 30.5q-52 31 -83.5 54.5t-49 42t-22.5 37t-5 38.5q0 27 13.5 61.5t34 71.5t51 71t65.5 58
q-2 -4 -2 -18v-8v-11q-21 -30 -38.5 -60t-37.5 -63l-6 -20q22 -16 45.5 -23.5t56.5 -12.5t60 -9q63 -21 63 -78q-22 -68 -42.5 -114zM668 1570l123 -124l-128 -134l-116 123z" />
    <glyph glyph-name="uni06AD" unicode="&#x6ad;" horiz-adv-x="1749" arabic-form="isolated" 
d="M664 1777l123 -124l-128 -134l-116 123zM800 1532l123 -124l-128 -134l-116 123zM530 1533l123 -124l-128 -134l-116 123zM1696 307l-70 -169l-530 -89l-458 -49q-81 -5 -141.5 -5t-100.5 5q-103 13 -198 59q-130 146 -130 307q0 63 20 128q4 13 73 182q24 -51 29 -136
q-10 -38 -10 -77q0 -188 163 -246q113 -40 238 -43l399 29l394 54l103 41l-35 156q-38 151 -129 458q-96 323 -96 377l44 137q106 -101 435 -1119zM882.5 818q-20.5 -46 -41 -76.5t-47.5 -55t-59 -51.5l-314 -27q21 23 59 45.5t81 42t86 40t75.5 35t57.5 30.5
q-52 31 -83.5 54.5t-49 42t-22.5 37t-5 38.5q0 27 13.5 61.5t34 71.5t51 71t65.5 58q-2 -4 -2 -18v-8v-11q-21 -30 -38.5 -60t-37.5 -63l-6 -20q22 -16 45.5 -23.5t56.5 -12.5t60 -9q63 -21 63 -78q-22 -68 -42.5 -114z" />
    <glyph glyph-name="uni06AE.medi" unicode="&#x6ae;" horiz-adv-x="989" 
d="M454 130q-155 -88 -302 -130h-152v166h37q129 10 214 81q-15 46 -109 175q-86 118 -112 194q6 84 61 190q66 140 81 185q129 31 393 155q289 131 365 212q20 0 20 -24q0 -30 -40 -109l-51 -102q-129 -75 -213 -115q-118 -58 -498 -220q33 -120 145 -279
q111 -174 179 -233q127 -110 325 -110h218v-166h-218q-76 0 -222 40q-65 16 -121 90zM281 -431l123 -124l-128 -134l-116 123zM418 -209l123 -124l-128 -134l-116 123zM148 -208l123 -124l-128 -134l-116 123z" />
    <glyph glyph-name="uni06AE.fina" unicode="&#x6ae;" horiz-adv-x="1815" 
d="M1554 134l-464 -85l-457 -49q-79 -6 -140 -6t-103 6q-176 25 -198 59q-134 150 -134 304q0 65 24 131q4 11 73 182q24 -51 29 -136q-10 -39 -10 -77q1 -128 164 -246q54 -39 237 -43l400 29l393 54l104 41l-35 156q-19 71 -130 458q-96 333 -96 377l45 137
q130 -107 444 -1115q28 -90 88 -90h56v-221h-53q-157 0 -237 134zM882.5 818q-20.5 -46 -41 -76.5t-47.5 -55t-59 -51.5l-314 -27q21 23 59 45.5t81 42t86 40t75.5 35t57.5 30.5q-52 31 -83.5 54.5t-49 42t-22.5 37t-5 38.5q0 27 13.5 61.5t34 71.5t51 71t65.5 58
q-2 -4 -2 -18v-8v-11q-21 -30 -38.5 -60t-37.5 -63l-6 -20q22 -16 45.5 -23.5t56.5 -12.5t60 -9q63 -21 63 -78q-22 -68 -42.5 -114zM1102 -87l123 -124l-128 -134l-116 123zM832 -86l123 -124l-128 -134l-116 123zM965 -309l123 -124l-128 -134l-116 123z" />
    <glyph glyph-name="uni06AF" unicode="&#x6af;" horiz-adv-x="2195" arabic-form="isolated" 
d="M2002 1480q-366 -200 -761 -355q0 36 75 220q131 34 394 154q281 128 361 214q24 0 24 -25q0 -26 -42 -106zM2125 1417q5 0 12 -5q9 -6 9 -22q0 -26 -43 -104l-50 -103q-105 -62 -213 -117q-74 -38 -498 -219q42 -140 145 -282q162 -222 208 -253q-14 -90 -38 -124
q-157 -73 -416 -129q-273 -59 -540 -59q-574 0 -619 197l36 224q85 29 117 33l-12 -74v-12q0 -197 430 -197q59 0 76 1q239 14 422 55q135 11 296 80q-14 45 -114 175q-76 99 -108 194q4 80 60 192q64 128 81 183q132 31 394 154q34 16 61 29q65 31 75 36q128 68 159 92
q38 30 40 31z" />
    <glyph glyph-name="uni06B0.medi" unicode="&#x6b0;" horiz-adv-x="993" 
d="M541 858q0 60 35 103q34 42 86 42q49 0 85 -43q35 -42 35 -102q0 -61 -35 -102q-36 -42 -85 -42q-51 0 -86 42t-35 102zM704 852q0 21 -13 36t-31 15l-28 -15q-14 -15 -14 -38q0 -17 14 -33q15 -17 30 -16q11 1 20 8q17 13 21 32q1 6 1 11zM818 1389q-366 -200 -761 -355
q0 36 75 220q131 34 394 154q281 128 361 214q24 0 24 -25q0 -26 -42 -106zM454 130q-155 -88 -302 -130h-152v166h37q129 10 214 81q-15 46 -109 175q-86 118 -112 194q6 84 61 190q66 140 81 185q129 31 393 155q289 131 365 212q20 0 20 -24q0 -30 -40 -109l-51 -102
q-129 -75 -213 -115q-118 -58 -498 -220q33 -120 145 -279q111 -174 179 -233q127 -110 325 -110h218v-166h-218q-76 0 -222 40q-65 16 -121 90z" />
    <glyph glyph-name="uni06B0.fina" unicode="&#x6b0;" horiz-adv-x="2147" 
d="M1642 883q0 60 35 103q34 42 86 42q49 0 85 -43q35 -42 35 -102q0 -61 -35 -102q-36 -42 -85 -42q-51 0 -86 42t-35 102zM1805 877q0 21 -13 36t-31 15l-28 -15q-14 -15 -14 -38q0 -17 14 -33q15 -17 30 -16q11 1 20 8q17 13 21 32q1 6 1 11zM2016 1455
q-366 -200 -761 -355q0 36 75 220q131 34 394 154q281 128 361 214q24 0 24 -25q0 -26 -42 -106zM1682 331q186 -165 434 -165h50v-166h-47q-223 0 -296 32q-162 71 -232 144q-145 -69 -372 -117q-280 -59 -540 -59q-608 0 -619 197l36 224q85 29 116 33l-12 -74
q-2 -13 -2 -24q2 -182 480 -182h29q175 0 422 53l295 80q-10 34 -114 175q-78 105 -108 194q5 81 60 192q65 131 82 183q131 31 394 154q289 135 362 211q24 0 24 -23q0 -18 -43 -107l-51 -103q-137 -81 -212 -117q-110 -53 -498 -219q23 -78 55 -143q36 -74 90 -139
q56 -67 90 -105q97 -108 127 -129z" />
    <glyph glyph-name="uni06B1" unicode="&#x6b1;" horiz-adv-x="2210" arabic-form="isolated" 
d="M2012 1480q-366 -200 -761 -355q0 36 75 220q131 34 394 154q281 128 361 214q24 0 24 -25q0 -26 -42 -106zM2135 1417q5 0 12 -5q9 -6 9 -22q0 -26 -43 -104l-50 -103q-105 -62 -213 -117q-74 -38 -498 -219q42 -140 145 -282q162 -222 208 -253q-14 -90 -38 -124
q-157 -73 -416 -129q-273 -59 -540 -59q-574 0 -619 197l36 224q85 29 117 33l-12 -74v-12q0 -197 430 -197q59 0 76 1q239 14 422 55q135 11 296 80q-14 45 -114 175q-76 99 -108 194q4 80 60 192q64 128 81 183q132 31 394 154q34 16 61 29q65 31 75 36q128 68 159 92
q38 30 40 31zM1669 1836l123 -124l-128 -134l-116 123zM1399 1837l123 -124l-128 -134l-116 123z" />
    <glyph glyph-name="uni06B2.medi" unicode="&#x6b2;" horiz-adv-x="988" 
d="M818 1389q-366 -200 -761 -355q0 36 75 220q131 34 394 154q281 128 361 214q24 0 24 -25q0 -26 -42 -106zM454 130q-155 -88 -302 -130h-152v166h37q129 10 214 81q-15 46 -109 175q-86 118 -112 194q6 84 61 190q66 140 81 185q129 31 393 155q289 131 365 212
q20 0 20 -24q0 -30 -40 -109l-51 -102q-129 -75 -213 -115q-118 -58 -498 -220q33 -120 145 -279q111 -174 179 -233q127 -110 325 -110h218v-166h-218q-76 0 -222 40q-65 16 -121 90zM421 -111l123 -124l-128 -134l-116 123zM151 -110l123 -124l-128 -134l-116 123z" />
    <glyph glyph-name="uni06B2.fina" unicode="&#x6b2;" horiz-adv-x="2151" 
d="M2016 1455q-366 -200 -761 -355q0 36 75 220q131 34 394 154q281 128 361 214q24 0 24 -25q0 -26 -42 -106zM1682 331q186 -165 434 -165h50v-166h-47q-223 0 -296 32q-162 71 -232 144q-145 -69 -372 -117q-280 -59 -540 -59q-608 0 -619 197l36 224q85 29 116 33
l-12 -74q-2 -13 -2 -24q2 -182 480 -182h29q175 0 422 53l295 80q-10 34 -114 175q-78 105 -108 194q5 81 60 192q65 131 82 183q131 31 394 154q289 135 362 211q24 0 24 -23q0 -18 -43 -107l-51 -103q-137 -81 -212 -117q-110 -53 -498 -219q23 -78 55 -143
q36 -74 90 -139q56 -67 90 -105q97 -108 127 -129zM1341 -113l123 -124l-128 -134l-116 123zM1071 -112l123 -124l-128 -134l-116 123z" />
    <glyph glyph-name="uni06B3" unicode="&#x6b3;" horiz-adv-x="2251" arabic-form="isolated" 
d="M2012 1480q-366 -200 -761 -355q0 36 75 220q131 34 394 154q281 128 361 214q24 0 24 -25q0 -26 -42 -106zM2135 1417q5 0 12 -5q9 -6 9 -22q0 -26 -43 -104l-50 -103q-105 -62 -213 -117q-74 -38 -498 -219q42 -140 145 -282q162 -222 208 -253q-14 -90 -38 -124
q-157 -73 -416 -129q-273 -59 -540 -59q-574 0 -619 197l36 224q85 29 117 33l-12 -74v-12q0 -197 430 -197q59 0 76 1q239 14 422 55q135 11 296 80q-14 45 -114 175q-76 99 -108 194q4 80 60 192q64 128 81 183q132 31 394 154q34 16 61 29q65 31 75 36q128 68 159 92
q38 30 40 31zM1345 -110l123 -124l-128 -134l-116 123zM1345 -386l123 -124l-128 -134l-116 123z" />
    <glyph glyph-name="uni06B4.medi" unicode="&#x6b4;" horiz-adv-x="1004" 
d="M818 1389q-366 -200 -761 -355q0 36 75 220q131 34 394 154q281 128 361 214q24 0 24 -25q0 -26 -42 -106zM454 130q-155 -88 -302 -130h-152v166h37q129 10 214 81q-15 46 -109 175q-86 118 -112 194q6 84 61 190q66 140 81 185q129 31 393 155q289 131 365 212
q20 0 20 -24q0 -30 -40 -109l-51 -102q-129 -75 -213 -115q-118 -58 -498 -220q33 -120 145 -279q111 -174 179 -233q127 -110 325 -110h218v-166h-218q-76 0 -222 40q-65 16 -121 90zM348 2006l123 -124l-128 -134l-116 123zM484 1761l123 -124l-128 -134l-116 123z
M214 1762l123 -124l-128 -134l-116 123z" />
    <glyph glyph-name="uni06B4.fina" unicode="&#x6b4;" horiz-adv-x="2142" 
d="M2016 1455q-366 -200 -761 -355q0 36 75 220q131 34 394 154q281 128 361 214q24 0 24 -25q0 -26 -42 -106zM1682 331q186 -165 434 -165h50v-166h-47q-223 0 -296 32q-162 71 -232 144q-145 -69 -372 -117q-280 -59 -540 -59q-608 0 -619 197l36 224q85 29 116 33
l-12 -74q-2 -13 -2 -24q2 -182 480 -182h29q175 0 422 53l295 80q-10 34 -114 175q-78 105 -108 194q5 81 60 192q65 131 82 183q131 31 394 154q289 135 362 211q24 0 24 -23q0 -18 -43 -107l-51 -103q-137 -81 -212 -117q-110 -53 -498 -219q23 -78 55 -143
q36 -74 90 -139q56 -67 90 -105q97 -108 127 -129zM1672 1862l123 -124l-128 -134l-116 123zM1402 1864l123 -124l-128 -134l-116 123zM1537 2107l123 -124l-128 -134l-116 123z" />
    <glyph glyph-name="uni06B5.medi" unicode="&#x6b5;" horiz-adv-x="486" 
d="M18 1918l79 60q0 -4 61 -110l58 -101q37 79 83 197l61 24q11 -32 11 -70q-13 -41 -137 -334q-17 -40 -41 -31l-101 199q-22 62 -74 166zM296 206q4 -40 111 -40h92v-166h-91q-105 47 -125 125q0 -11 -44 -59q-11 -13 -75 -38q-50 -20 -67 -28h-97v166h100q24 0 66 37
q10 9 10 421v21q0 441 -84 565q80 144 111 238q93 -61 123 -174q17 -63 17 -182q0 -108 -31 -327q-32 -226 -32 -330q0 -12 1 -21q3 -92 15 -208z" />
    <glyph glyph-name="uni06B5.fina" unicode="&#x6b5;" horiz-adv-x="1221" 
d="M751 2001l79 60q0 -4 61 -110l58 -101q37 79 83 197l61 24q11 -32 11 -70q-13 -41 -137 -334q-17 -40 -41 -31l-101 199q-22 62 -74 166zM1100 -23q-112 -256 -238 -343q-178 -122 -412 -122q-197 0 -366 102q-40 37 -40 185q0 324 138 499q8 2 13 2q24 -1 24 -29
q-67 -127 -67 -241q0 -261 235 -323q34 -9 72 -9q181 1 457 193q0 54 6 340t6 435q0 431 -84 544q83 134 109 223q97 -58 125 -160q18 -65 18 -171q0 -108 -32 -303q-24 -146 -24 -417q0 -50 4 -99q56 -117 131 -117h65v-166h-60q-20 0 -110 110q10 -63 30 -133z" />
    <glyph glyph-name="uni06B6.medi" unicode="&#x6b6;" horiz-adv-x="474" 
d="M296 206q4 -40 111 -40h92v-166h-91q-105 47 -125 125q0 -11 -44 -59q-11 -13 -75 -38q-50 -20 -67 -28h-97v166h100q24 0 66 37q10 9 10 421v21q0 441 -84 565q80 144 111 238q93 -61 123 -174q17 -63 17 -182q0 -108 -31 -327q-32 -226 -32 -330q0 -12 1 -21
q3 -92 15 -208zM214 1812l123 -124l-128 -134l-116 123z" />
    <glyph glyph-name="uni06B6.fina" unicode="&#x6b6;" horiz-adv-x="1223" 
d="M1100 -23q-112 -256 -238 -343q-178 -122 -412 -122q-197 0 -366 102q-40 37 -40 185q0 324 138 499q8 2 13 2q24 -1 24 -29q-67 -127 -67 -241q0 -261 235 -323q34 -9 72 -9q181 1 457 193q0 54 6 340t6 435q0 431 -84 544q83 134 109 223q97 -58 125 -160
q18 -65 18 -171q0 -108 -32 -303q-24 -146 -24 -417q0 -50 4 -99q56 -117 131 -117h65v-166h-60q-20 0 -110 110q10 -63 30 -133zM964 1824l123 -124l-128 -134l-116 123z" />
    <glyph glyph-name="uni06B7.medi" unicode="&#x6b7;" horiz-adv-x="546" 
d="M359 206q5 -40 110 -40h89v-166h-89q-78 36 -106 89q-14 26 -14 36q0 -15 -21 -39q-8 -9 -45 -36q-26 -19 -62 -33q-26 -11 -61 -17h-160v166h160q30 0 67 37q14 14 14 421q0 461 -86 586q81 144 110 238q96 -61 125 -174q17 -66 17 -182q0 -97 -32 -327t-32 -351v-2
q0 -72 16 -206zM268 2056l123 -124l-128 -134l-116 123zM404 1811l123 -124l-128 -134l-116 123zM134 1812l123 -124l-128 -134l-116 123z" />
    <glyph glyph-name="uni06B7.fina" unicode="&#x6b7;" horiz-adv-x="1220" 
d="M1100 -23q-112 -256 -238 -343q-178 -122 -412 -122q-197 0 -366 102q-40 37 -40 185q0 324 138 499q8 2 13 2q24 -1 24 -29q-67 -127 -67 -241q0 -261 235 -323q34 -9 72 -9q181 1 457 193q0 54 6 340t6 435q0 431 -84 544q83 134 109 223q97 -58 125 -160
q18 -65 18 -171q0 -108 -32 -303q-24 -146 -24 -417q0 -50 4 -99q56 -117 131 -117h65v-166h-60q-20 0 -110 110q10 -63 30 -133zM1071 1792l123 -124l-128 -134l-116 123zM801 1793l123 -124l-128 -134l-116 123zM936 2037l123 -124l-128 -134l-116 123z" />
    <glyph glyph-name="uni06B8.medi" unicode="&#x6b8;" horiz-adv-x="551" 
d="M359 206q5 -40 110 -40h89v-166h-89q-78 36 -106 89q-14 26 -14 36q0 -15 -21 -39q-8 -9 -45 -36q-26 -19 -62 -33q-26 -11 -61 -17h-160v166h160q30 0 67 37q14 14 14 421q0 461 -86 586q81 144 110 238q96 -61 125 -174q17 -66 17 -182q0 -97 -32 -327t-32 -351v-2
q0 -72 16 -206zM273 -324l123 -124l-128 -134l-116 123zM410 -102l123 -124l-128 -134l-116 123zM140 -101l123 -124l-128 -134l-116 123z" />
    <glyph glyph-name="uni06B8.fina" unicode="&#x6b8;" horiz-adv-x="1229" 
d="M1100 -23q-112 -256 -238 -343q-178 -122 -412 -122q-197 0 -366 102q-40 37 -40 185q0 324 138 499q8 2 13 2q24 -1 24 -29q-67 -127 -67 -241q0 -261 235 -323q34 -9 72 -9q181 1 457 193q0 54 6 340t6 435q0 431 -84 544q83 134 109 223q97 -58 125 -160
q18 -65 18 -171q0 -108 -32 -303q-24 -146 -24 -417q0 -50 4 -99q56 -117 131 -117h65v-166h-60q-20 0 -110 110q10 -63 30 -133zM656 -618l123 -124l-128 -134l-116 123zM386 -617l123 -124l-128 -134l-116 123zM520 -840l123 -124l-128 -134l-116 123z" />
    <glyph glyph-name="uni06B9.medi" unicode="&#x6b9;" horiz-adv-x="462" 
d="M196 906l123 -124l-128 -134l-116 123zM229 404q41 6 67 6q37 0 39 -13q7 -47 47 -146q31 -77 61 -85h96v-166h-90q-14 0 -63 25q-73 37 -93 79l-17 -19q-4 -19 -55 -55q-43 -30 -49 -30h-172v166h124q24 0 105 238zM140 -126l123 -124l-128 -134l-116 123z" />
    <glyph glyph-name="uni06B9.fina" unicode="&#x6b9;" horiz-adv-x="964" 
d="M391 510l123 -124l-128 -134l-116 123zM884 16l16 -48q9 -29 9 -72q0 -56 -23 -137q-19 -67 -89 -150q-80 -93 -143 -131q-40 -24 -170 -68q-89 -30 -123 -30q-4 0 -9 1q-74 15 -170 71q-64 38 -94 88q-35 57 -46 149q-6 48 -6 93q0 71 6 133q8 83 38 176q9 28 40 28h10
q0 -13 -12 -169q-3 -39 -3 -67t3 -52q9 -69 71 -151q36 -48 101 -68q41 -13 85 -13q15 0 44 3q88 9 177 37q40 13 102 50q117 71 127 89q6 11 6 22q0 26 -22 66q-25 46 -80 109l-66 57q0 156 35 195q10 10 14 10q2 0 5 -2l43 -32q48 -37 164 -37h46v-166h-44q-28 4 -42 16z
M421 -782l123 -124l-128 -134l-116 123z" />
    <glyph glyph-name="uni06BA" unicode="&#x6ba;" horiz-adv-x="1027" arabic-form="isolated" 
d="M873 494q8 4 13 4q4 0 6 -4q69 -139 86 -158q13 -15 13 -93q0 -27 -5 -75q-13 -122 -43 -201q-32 -85 -85 -151q-54 -67 -146 -130q-36 -25 -171 -66q-98 -30 -133 -30q-104 0 -202 49q-58 29 -98 96q-58 96 -66 157q-5 36 -5 77q1 80 18 177q21 118 61 158q2 2 13 2
t31 -2q1 0 1 -36.5t-1 -108.5q0 -83 2 -115q2 -38 87 -140q57 -68 96 -85q30 -13 92 -13q16 0 38 2q73 7 179 38q28 8 103 55q119 74 125 85t6 30q-1 28 -10 66t-40 110l-51 111q0 19 36 89z" />
    <glyph glyph-name="uni06BB" unicode="&#x6bb;" horiz-adv-x="1040" arabic-form="isolated" 
d="M400.366 1037.86q40.8965 -51.3525 40.8965 -130.181q0 -20.2793 -3.05957 -59.6934q-3.05859 -39.4141 -3.05859 -59.6934q0 -51.0254 12.2363 -91.584q26.084 23.5498 63.4385 65.7441q19.6436 21.915 30.9141 21.915q9.66113 0 32.8467 -14.7188l66.3359 -41.8672
q-21.2539 -109.901 -132.029 -137.704q-35.4219 -16.6816 -129.452 -31.0732q-41.2188 9.48535 -76.6416 22.8965q-57.9629 22.5684 -57.9629 42.5215q0 3.59766 0.96582 6.54102q21.8975 -9.8125 145.554 -9.8125q12.5586 13.7383 12.5586 84.7158
q0 73.5947 -11.2705 165.833q-11.5928 91.585 -24.1514 111.21zM512.43 724.506q-11.2715 -16.3535 -42.8291 -48.4082q-30.9141 -30.7461 -41.541 -48.082q31.2363 0.981445 87.9121 21.2607q61.8281 22.8955 63.7607 23.2227q-26.084 33.3633 -67.3027 52.0068zM873 494
q8 4 13 4q4 0 6 -4q69 -139 86 -158q13 -15 13 -93q0 -27 -5 -75q-13 -122 -43 -201q-32 -85 -85 -151q-54 -67 -146 -130q-36 -25 -171 -66q-98 -30 -133 -30q-104 0 -202 49q-58 29 -98 96q-58 96 -66 157q-5 36 -5 77q1 80 18 177q21 118 61 158q2 2 13 2t31 -2
q1 0 1 -36.5t-1 -108.5q0 -83 2 -115q2 -38 87 -140q57 -68 96 -85q30 -13 92 -13q16 0 38 2q73 7 179 38q28 8 103 55q119 74 125 85t6 30q-1 28 -10 66t-40 110l-51 111q0 19 36 89z" />
    <glyph glyph-name="uni06BC.medi" unicode="&#x6bc;" horiz-adv-x="524" 
d="M196 906l123 -124l-128 -134l-116 123zM229 404q41 6 67 6q37 0 39 -13q7 -47 47 -146q31 -77 61 -85h96v-166h-90q-14 0 -63 25q-73 37 -93 79l-17 -19q-4 -19 -55 -55q-43 -30 -49 -30h-172v166h124q24 0 105 238zM75 -143q0 60 35 103q34 42 86 42q49 0 85 -43
q35 -42 35 -102q0 -61 -35 -102q-36 -42 -85 -42q-51 0 -86 42t-35 102zM238 -149q0 21 -13 36t-31 15l-28 -15q-14 -15 -14 -38q0 -17 14 -33q15 -17 30 -16q11 1 20 8q17 13 21 32q1 6 1 11z" />
    <glyph glyph-name="uni06BC.fina" unicode="&#x6bc;" horiz-adv-x="955" 
d="M391 510l123 -124l-128 -134l-116 123zM884 16l16 -48q9 -29 9 -72q0 -56 -23 -137q-19 -67 -89 -150q-80 -93 -143 -131q-40 -24 -170 -68q-89 -30 -123 -30q-4 0 -9 1q-74 15 -170 71q-64 38 -94 88q-35 57 -46 149q-6 48 -6 93q0 71 6 133q8 83 38 176q9 28 40 28h10
q0 -13 -12 -169q-3 -39 -3 -67t3 -52q9 -69 71 -151q36 -48 101 -68q41 -13 85 -13q15 0 44 3q88 9 177 37q40 13 102 50q117 71 127 89q6 11 6 22q0 26 -22 66q-25 46 -80 109l-66 57q0 156 35 195q10 10 14 10q2 0 5 -2l43 -32q48 -37 164 -37h46v-166h-44q-28 4 -42 16z
M484 -699q0 60 35 103q34 42 86 42q49 0 85 -43q35 -42 35 -102q0 -61 -35 -102q-36 -42 -85 -42q-51 0 -86 42t-35 102zM647 -705q0 21 -13 36t-31 15l-28 -15q-14 -15 -14 -38q0 -17 14 -33q15 -17 30 -16q11 1 20 8q17 13 21 32q1 6 1 11z" />
    <glyph glyph-name="uni06BD.medi" unicode="&#x6bd;" horiz-adv-x="533" 
d="M229 404q41 6 67 6q37 0 39 -13q7 -47 47 -146q31 -77 61 -85h96v-166h-90q-14 0 -63 25q-73 37 -93 79l-17 -19q-4 -19 -55 -55q-43 -30 -49 -30h-172v166h124q24 0 105 238zM263 -306l123 -124l-128 -134l-116 123zM400 -84l123 -124l-128 -134l-116 123zM130 -83
l123 -124l-128 -134l-116 123z" />
    <glyph glyph-name="uni06BD.fina" unicode="&#x6bd;" horiz-adv-x="954" 
d="M884 16l16 -48q9 -29 9 -72q0 -56 -23 -137q-19 -67 -89 -150q-80 -93 -143 -131q-40 -24 -170 -68q-89 -30 -123 -30q-4 0 -9 1q-74 15 -170 71q-64 38 -94 88q-35 57 -46 149q-6 48 -6 93q0 71 6 133q8 83 38 176q9 28 40 28h10q0 -13 -12 -169q-3 -39 -3 -67t3 -52
q9 -69 71 -151q36 -48 101 -68q41 -13 85 -13q15 0 44 3q88 9 177 37q40 13 102 50q117 71 127 89q6 11 6 22q0 26 -22 66q-25 46 -80 109l-66 57q0 156 35 195q10 10 14 10q2 0 5 -2l43 -32q48 -37 164 -37h46v-166h-44q-28 4 -42 16zM562 646l123 -124l-128 -134l-116 123
zM292 647l123 -124l-128 -134l-116 123zM427 890l123 -124l-128 -134l-116 123z" />
    <glyph glyph-name="uni06BE" unicode="&#x6be;" horiz-adv-x="983" arabic-form="isolated" 
d="M374 -9q-49 12 -94 12q-140 0 -227 -113q-3 6 -3 12q0 66 83 156q87 101 169 101q12 0 22 -3q26 185 194 299q15 52 53 131q102 -115 262 -175q101 -52 101 -138q0 -105 -136 -203q-151 -83 -340 -83q-40 0 -84 4zM475 318l-85 -90l37 -66q125 33 125 93q0 43 -77 63z
M670 305l-104 -152q142 10 204 42q30 14 44 43q-69 14 -144 67z" />
    <glyph glyph-name="uni06BF.medi" unicode="&#x6bf;" horiz-adv-x="1284" 
d="M654 -341l123 -124l-128 -134l-116 123zM520 -118l123 -124l-128 -134l-116 123zM790 -119l123 -124l-128 -134l-116 123zM868 318q39 -88 110 -121q73 -28 173 -31h51h53h47v-166h-109q-129 0 -235 119q-140 157 -149 174l-216 -112l-268 -99q-164 -76 -164 -82h-161
v166l134 1l122 48l158 87q-120 45 -158 70q-63 42 -186 107l102 189q381 -166 603 -166h22q218 0 451 105q-107 -128 -150 -170zM705 1030l123 -124l-128 -134l-116 123z" />
    <glyph glyph-name="uni06BF.fina" unicode="&#x6bf;" horiz-adv-x="1512" 
d="M902 -434l123 -124l-128 -134l-116 123zM769 -211l123 -124l-128 -134l-116 123zM1039 -212l123 -124l-128 -134l-116 123zM1122 328q0 -22 6 -64q11 -76 48 -86q47 -12 182 -12h81h91v-166h-91q-219 0 -288 70q-84 86 -84 236q0 2 -1 2h-1q-25 0 -391 -309
q-378 -319 -378 -651q0 -253 213 -301q120 -27 229 -27q102 0 215 19q148 25 282 25q43 0 80 -4q147 -50 147 -92q0 -20 -14 -24q-4 -1 -45 -30q-24 -17 -49 -102q-82 79 -118 79h-1q0 -3 -12 -3q-21 0 -287 -42q-50 -8 -124 -8q-45 0 -154 8q-92 7 -143 16q-127 36 -173 68
q-167 80 -167 375q26 424 695 994q-207 -31 -391 -31q-32 0 -60 1q-178 5 -359 12q14 50 131 203q103 -36 280 -36q290 0 416 14q164 18 369 56q-35 -90 -63 -115q-23 -21 -36 -33q-35 -34 -35 -42zM735 861l123 -124l-128 -134l-116 123z" />
    <glyph glyph-name="uni06C0" unicode="&#x6c0;" horiz-adv-x="668" arabic-form="isolated" 
d="M322.438 1270.02l-19.8477 -58.0977l-104.651 -48.8223l46.3115 -7.81152h34.2822l40.8975 1.95312l46.9131 9.27637l58.3389 16.1113l-15.0361 -39.5459l-19.2461 -17.5762l-95.6289 -41.0107l-209.902 -103.015l16.8398 59.5635l96.2305 55.1689l-37.8906 6.83496
l-19.8477 10.7402l16.8408 73.2334l71.5713 43.9395zM78 688l24 146l22 64l162 -210q58 21 165 87q138 87 165 102l-14 -91q-12 -72 -12 -108q-25 -10 -88 -54q-50 -36 -95 -46q30 -102 30 -190q0 -297 -349 -388q-58 68 -58 172q0 186 134 378q-28 69 -86 138zM253 460
q-151 -135 -151 -203q0 -35 38 -35q72 0 224 109q-38 71 -111 129z" />
    <glyph glyph-name="uni06C1" unicode="&#x6c1;" horiz-adv-x="653" arabic-form="isolated" 
d="M78 688l24 146l22 64l162 -210q58 21 165 87q138 87 165 102l-14 -91q-12 -72 -12 -108q-25 -10 -88 -54q-50 -36 -95 -46q30 -102 30 -190q0 -297 -349 -388q-58 68 -58 172q0 186 134 378q-28 69 -86 138zM253 460q-151 -135 -151 -203q0 -35 38 -35q72 0 224 109
q-38 71 -111 129z" />
    <glyph glyph-name="uni06C2.fina" unicode="&#x6c2;" horiz-adv-x="484" 
d="M222.438 770.02l-19.8477 -58.0977l-104.651 -48.8223l46.3115 -7.81152h34.2822l40.8975 1.95312l46.9131 9.27637l58.3389 16.1113l-15.0361 -39.5459l-19.2461 -17.5762l-95.6289 -41.0107l-209.902 -103.015l16.8398 59.5635l96.2305 55.1689l-37.8906 6.83496
l-19.8477 10.7402l16.8408 73.2334l71.5713 43.9395zM500 166v-166h-44h-49q-25 4 -42 13q-25 14 -48 37q-31 31 -40 47q-9 18 -21 23q-20 9 -30 4q-13 -7 -52 -42q-13 -12 -51 -52q-35 -37 -48 -53q-22 -27 -37 -51q-9 -15 -14 -26l-1 46q1 5 9 38q8 31 24 70q28 52 63 89
l55 63q2 2 76 45l83 51q17 -45 74 -99q16 -15 71 -37h22z" />
    <glyph glyph-name="uni06C3.fina" unicode="&#x6c3;" horiz-adv-x="562" 
d="M582 166v-166h-44h-49q-25 4 -42 13q-25 14 -48 37q-31 31 -40 47q-9 18 -21 23q-20 9 -30 4q-13 -7 -52 -42q-13 -12 -51 -52q-35 -37 -48 -53q-22 -27 -37 -51q-9 -15 -14 -26l-1 46q1 5 9 38q8 31 24 70q28 52 63 89l55 63q2 2 76 45l83 51q17 -45 74 -99
q16 -15 71 -37h22zM409 791l123 -124l-128 -134l-116 123zM139 792l123 -124l-128 -134l-116 123z" />
    <glyph glyph-name="uni06C4.fina" unicode="&#x6c4;" horiz-adv-x="930" 
d="M407 -529q0 60 35 103q34 42 86 42q49 0 85 -43q35 -42 35 -102q0 -61 -35 -102q-36 -42 -85 -42q-51 0 -86 42t-35 102zM570 -535q0 21 -13 36t-31 15l-28 -15q-14 -15 -14 -38q0 -17 14 -33q15 -17 30 -16q11 1 20 8q17 13 21 32q1 6 1 11zM942 166v-166h-49
q-83 0 -120 37q-3 -112 -17 -143q-50 -113 -336 -318q-249 -179 -378 -206q0 58 29 154q84 31 299 169q14 9 220 173q76 59 76 137v10l-238 -60q-13 39 -13 103q1 141 46 266q51 142 133 142q86 0 181 -226q30 -72 118 -72h49zM500 116q106 17 106 33q0 1 -1 2
q-48 89 -75 106z" />
    <glyph glyph-name="uni06C5" unicode="&#x6c5;" horiz-adv-x="769" arabic-form="isolated" 
d="M472 349q-72 -96 -72 -129q0 -22 82 -22q11 0 23 1q25 25 25 50q-53 95 -58 100zM200 -450q136 92 212 193l-176 -34q-10 -6 -56 -65q-44 -56 -38 -84q10 -41 58 -10zM100 -686l-14 34q-35 156 -38 198q-6 90 14 158q17 71 92 112q65 35 70 35l251 -1q62 118 62 145
q0 39 -19 59l-30 -3l-69 1q-103 1 -121 16q5 113 88 250l144 237q164 -273 164 -312q0 -4 1 -24q2 -50 2 -93q-2 -181 -27 -236q-111 -244 -221 -338q-208 -177 -349 -238z" />
    <glyph glyph-name="uni06C6" unicode="&#x6c6;" horiz-adv-x="709" arabic-form="isolated" 
d="M278 1091l79 60q0 -4 61 -110l58 -101q37 79 83 197l61 24q11 -32 11 -70q-13 -41 -137 -334q-17 -40 -41 -31l-101 199q-22 62 -74 166zM460 555q166 -199 166 -296v-40q-3 -273 -26 -328q-97 -229 -220 -339q-189 -168 -350 -237q6 75 38 200q272 137 397 449
q2 16 2 30q1 39 -19 60l-30 -3q-30 -12 -63 -12h-5q-57 0 -122 29q5 115 88 250zM402 349q-72 -97 -72 -127q0 -24 79 -24q14 1 26 1q25 25 25 52q0 38 -58 98z" />
    <glyph glyph-name="uni06C7" unicode="&#x6c7;" horiz-adv-x="714" arabic-form="isolated" 
d="M543.328 1106.65q84.0986 -48.5547 74.8467 -167.537q-6.3291 -83.5029 -36.8535 -136.373q-18.3154 -31.7217 -42.6123 -57.4258q-86.9355 -92.0781 -178.81 -110.811q-22.9678 -4.68164 -74.791 -5.52441q-36.792 -0.545898 -76.8896 7.22266l-28.3701 16.3799
q54.0176 -9.39746 125.071 20.0732q76.3135 31.5605 115.958 79.166l21.1611 24.9521q8.68555 10.3652 10.9062 14.2109q6.10449 10.5742 9.62793 21.3564q9.36426 27.918 13.8545 63.7764l-87.5508 26.1953q-89.043 68.0703 -21.334 185.347l1.11035 1.92285
q74.3643 74.9824 174.675 17.0684zM460 555q166 -199 166 -296v-40q-3 -273 -26 -328q-97 -229 -220 -339q-189 -168 -350 -237q6 75 38 200q272 137 397 449q2 16 2 30q1 39 -19 60l-30 -3q-30 -12 -63 -12h-5q-57 0 -122 29q5 115 88 250zM402 349q-72 -97 -72 -127
q0 -24 79 -24q14 1 26 1q25 25 25 52q0 38 -58 98z" />
    <glyph glyph-name="uni06C8" unicode="&#x6c8;" horiz-adv-x="703" arabic-form="isolated" 
d="M486.527 1047.34q28.1572 -21.7412 28.1572 -73.7568q0 -3.30273 -2.44922 -71.5547q-1.63184 -45.4102 -1.63184 -63.8486q-1.63281 -40.7314 -1.63281 -85.041q0 -49.5381 6.12207 -55.5918l-56.3145 -33.5762q-19.9961 9.90723 -19.9961 73.4814
q0 1.10059 4.89648 95.2227q3.67383 78.4355 3.67383 101.828q0 53.1162 -15.5078 71.8311q34.2783 26.1445 54.6826 41.0059zM490 555q166 -199 166 -296v-40q-3 -273 -26 -328q-97 -229 -220 -339q-189 -168 -350 -237q6 75 38 200q272 137 397 449q2 16 2 30q1 39 -19 60
l-30 -3q-30 -12 -63 -12h-5q-57 0 -122 29q5 115 88 250zM432 349q-72 -97 -72 -127q0 -24 79 -24q14 1 26 1q25 25 25 52q0 38 -58 98z" />
    <glyph glyph-name="uni06C9" unicode="&#x6c9;" horiz-adv-x="718" arabic-form="isolated" 
d="M638 738l-79 -60q0 4 -61 111l-58 100q-37 -79 -82 -196l-62 -24q-10 31 -10 69q30 99 136 334q18 40 41 31l101 -199q23 -61 74 -166zM470 555q166 -199 166 -296v-40q-3 -273 -26 -328q-97 -229 -220 -339q-189 -168 -350 -237q6 75 38 200q272 137 397 449q2 16 2 30
q1 39 -19 60l-30 -3q-30 -12 -63 -12h-5q-57 0 -122 29q5 115 88 250zM412 349q-72 -97 -72 -127q0 -24 79 -24q14 1 26 1q25 25 25 52q0 38 -58 98z" />
    <glyph glyph-name="uni06CA.fina" unicode="&#x6ca;" horiz-adv-x="936" 
d="M942 166v-166h-49q-83 0 -120 37q-3 -112 -17 -143q-50 -113 -336 -318q-249 -179 -378 -206q0 58 29 154q84 31 299 169q14 9 220 173q76 59 76 137v10l-238 -60q-13 39 -13 103q1 141 46 266q51 142 133 142q86 0 181 -226q30 -72 118 -72h49zM500 116q106 17 106 33
q0 1 -1 2q-48 89 -75 106zM739 880l123 -124l-128 -134l-116 123zM469 881l123 -124l-128 -134l-116 123z" />
    <glyph glyph-name="uni06CB" unicode="&#x6cb;" horiz-adv-x="770" arabic-form="isolated" 
d="M480 550q166 -199 166 -296v-40q-3 -273 -26 -328q-97 -229 -220 -339q-189 -168 -350 -237q6 75 38 200q272 137 397 449q2 16 2 30q1 39 -19 60l-30 -3q-30 -12 -63 -12h-5q-57 0 -122 29q5 115 88 250zM422 344q-72 -97 -72 -127q0 -24 79 -24q14 1 26 1q25 25 25 52
q0 38 -58 98zM612 961l123 -124l-128 -134l-116 123zM342 962l123 -124l-128 -134l-116 123zM477 1206l123 -124l-128 -134l-116 123z" />
    <glyph glyph-name="uni06CC" unicode="&#x6cc;" horiz-adv-x="1428" arabic-form="isolated" 
d="M1360 543l-43 -31l-108 82q-32 -7 -170 -151l-117 -143l68 -46l99 -55q109 -66 117 -78q18 -28 18 -72q0 -18 -3 -40l-57 -110l-111 -179q-38 -33 -219 -117q-113 -53 -214 -77q-141 -34 -238 -34q-16 0 -78 19q-80 25 -141 60q-34 21 -51 59q-59 134 -61 220l43 260
l83 85v-226q18 -141 48 -207q15 -33 89 -68q66 -31 121 -31q122 0 253 50q154 59 273 156l109 150l-187 74l-90 87l-1 207l68 65q120 137 124 141q107 120 145 147l135 83l128 -83z" />
    <glyph glyph-name="uni06CD.fina" unicode="&#x6cd;" horiz-adv-x="1557" 
d="M395 -136q38 54 90 80l-67 -173l18 -151q98 -93 183 -99q111 -9 241 -9h4q167 0 395 139l101 127v2q-3 8 -142 48q-90 26 -142 56q-10 14 -10 35q0 43 26 81q67 98 121 138q93 75 167 75q55 0 142 -47h45v-166h-91l-126 52l-72 -27l-60 -25l5 -25l152 -40l135 -85
q0 -47 -195 -287q-94 -79 -332 -158q-215 -71 -360 -71q-30 0 -54 4q-119 19 -216 174q-25 40 -33 84l-272 -262q0 114 3 145q4 41 11 50q18 23 25 25q27 10 39 23z" />
    <glyph glyph-name="uni06CE.medi" unicode="&#x6ce;" horiz-adv-x="523" 
d="M397 -122l123 -124l-128 -134l-116 123zM127 -121l123 -124l-128 -134l-116 123zM229 404q41 6 67 6q37 0 39 -13q7 -47 47 -146q31 -77 61 -85h96v-166h-90q-14 0 -63 25q-73 37 -93 79l-17 -19q-4 -19 -55 -55q-43 -30 -49 -30h-172v166h124q24 0 105 238zM9 1078
l79 60q0 -4 61 -110l58 -101q37 79 83 197l61 24q11 -32 11 -70q-13 -41 -137 -334q-17 -40 -41 -31l-101 199q-22 62 -74 166z" />
    <glyph glyph-name="uni06CE.fina" unicode="&#x6ce;" horiz-adv-x="1271" 
d="M266 552l79 60q0 -4 61 -110l58 -101q37 79 83 197l61 24q11 -32 11 -70q-13 -41 -137 -334q-17 -40 -41 -31l-101 199q-22 62 -74 166zM1296 0h-91l-126 52l-72 -27l-60 -25l5 -25l152 -40l134 -85q0 -47 -194 -287q-93 -78 -332 -158q-214 -71 -357 -71q-31 0 -57 4
q-157 102 -216 174q-38 46 -38 121v8q0 39 14 84q109 194 156 219l-68 -173l18 -151q100 -94 184 -99q156 -9 241 -9h8q163 0 391 139l100 127v2q-3 7 -141 48q-94 28 -142 56q-10 15 -10 36q0 41 26 80q63 95 121 138q93 74 168 74h7l13 -1q60 -12 120 -45h46v-166z" />
    <glyph glyph-name="uni06CF.fina" unicode="&#x6cf;" horiz-adv-x="927" 
d="M942 166v-166h-49q-83 0 -120 37q-3 -112 -17 -143q-50 -113 -336 -318q-249 -179 -378 -206q0 58 29 154q84 31 299 169q14 9 220 173q76 59 76 137v10l-238 -60q-13 39 -13 103q1 141 46 266q51 142 133 142q86 0 181 -226q30 -72 118 -72h49zM500 116q106 17 106 33
q0 1 -1 2q-48 89 -75 106zM584 913l123 -124l-128 -134l-116 123z" />
    <glyph glyph-name="uni06D0" unicode="&#x6d0;" horiz-adv-x="1459" arabic-form="isolated" 
d="M1360 543l-43 -31l-108 82q-32 -7 -170 -151l-117 -143l68 -46l99 -55q109 -66 117 -78q18 -28 18 -72q0 -18 -3 -40l-57 -110l-111 -179q-38 -33 -219 -117q-113 -53 -214 -77q-141 -34 -238 -34q-16 0 -78 19q-80 25 -141 60q-34 21 -51 59q-59 134 -61 220l43 260
l83 85v-226q18 -141 48 -207q15 -33 89 -68q66 -31 121 -31q122 0 253 50q154 59 273 156l109 150l-187 74l-90 87l-1 207l68 65q120 137 124 141q107 120 145 147l135 83l128 -83zM547 -612l123 -124l-128 -134l-116 123zM547 -888l123 -124l-128 -134l-116 123z" />
    <glyph glyph-name="uni06D1.medi" unicode="&#x6d1;" horiz-adv-x="533" 
d="M263 -306l123 -124l-128 -134l-116 123zM400 -84l123 -124l-128 -134l-116 123zM130 -83l123 -124l-128 -134l-116 123zM229 404q41 6 67 6q37 0 39 -13q7 -47 47 -146q31 -77 61 -85h96v-166h-90q-14 0 -63 25q-73 37 -93 79l-17 -19q-4 -19 -55 -55q-43 -30 -49 -30
h-172v166h124q24 0 105 238z" />
    <glyph glyph-name="uni06D1.fina" unicode="&#x6d1;" horiz-adv-x="1285" 
d="M1296 0h-91l-126 52l-72 -27l-60 -25l5 -25l152 -40l134 -85q0 -47 -194 -287q-93 -78 -332 -158q-214 -71 -357 -71q-31 0 -57 4q-157 102 -216 174q-38 46 -38 121v8q0 39 14 84q109 194 156 219l-68 -173l18 -151q100 -94 184 -99q156 -9 241 -9h8q163 0 391 139
l100 127v2q-3 7 -141 48q-94 28 -142 56q-10 15 -10 36q0 41 26 80q63 95 121 138q93 74 168 74h7l13 -1q60 -12 120 -45h46v-166zM675 -749l123 -124l-128 -134l-116 123zM405 -748l123 -124l-128 -134l-116 123zM538 -971l123 -124l-128 -134l-116 123z" />
    <glyph glyph-name="uni06D2" unicode="&#x6d2;" horiz-adv-x="1483" arabic-form="isolated" 
d="M760 423q-27 18 -41 18q-11 0 -12 -4q-3 -9 -30 -57q-13 -37 -140 -117q-170 -33 -191 -36q-78 -11 -79 -11h-2l-18 -40q57 -9 147 -9q126 0 460 30t438 30q105 0 144 -17l-73 -156q-95 20 -209 20h-24q-107 0 -374 -37t-399 -37q-144 0 -295 41q17 155 188 290
q32 46 282 64q39 19 114 127q65 94 123 94q13 0 28 -5q40 -46 116 -61q-6 -103 -44 -137q-18 -16 -42 -16q-10 0 -22 3q-11 2 -28 12q-4 2 -17 11z" />
    <glyph glyph-name="uni06D3" unicode="&#x6d3;" horiz-adv-x="1479" arabic-form="isolated" 
d="M367.438 838.02l-19.8477 -58.0977l-104.651 -48.8223l46.3115 -7.81152h34.2822l40.8975 1.95312l46.9131 9.27637l58.3389 16.1113l-15.0361 -39.5459l-19.2461 -17.5762l-95.6289 -41.0107l-209.902 -103.015l16.8398 59.5635l96.2305 55.1689l-37.8906 6.83496
l-19.8477 10.7402l16.8408 73.2334l71.5713 43.9395zM760 423q-27 18 -41 18q-11 0 -12 -4q-3 -9 -30 -57q-13 -37 -140 -117q-170 -33 -191 -36q-78 -11 -79 -11h-2l-18 -40q57 -9 147 -9q126 0 460 30t438 30q105 0 144 -17l-73 -156q-95 20 -209 20h-24q-107 0 -374 -37
t-399 -37q-144 0 -295 41q17 155 188 290q32 46 282 64q39 19 114 127q65 94 123 94q13 0 28 -5q40 -46 116 -61q-6 -103 -44 -137q-18 -16 -42 -16q-10 0 -22 3q-11 2 -28 12q-4 2 -17 11z" />
    <glyph glyph-name="uni06D5.fina" unicode="&#x6d5;" horiz-adv-x="617" 
d="M412 170q-62 -102 -190 -102q-52 0 -102 20q-90 36 -90 144q0 61 30 120q127 28 217 110q102 88 102 198q0 11 -1 23q71 -17 71 -166v-41l-1 -39q0 -124 25 -172q48 -79 84 -99h91v-166h-112q-2 0 -54 32q-70 44 -70 138zM182 238q48 -27 84 -27q41 0 70 31q19 28 19 71
q0 25 -7 53q-20 -55 -166 -128z" />
    <glyph glyph-name="uni06EE.fina" unicode="&#x6ee;" horiz-adv-x="928" 
d="M718 1154l-79 -60q0 4 -61 111l-58 100q-37 -79 -82 -196l-62 -24q-10 31 -10 69q30 99 136 334q18 40 41 31l101 -199q23 -61 74 -166zM551 946h1q24 0 62 -126q38 -124 103 -437q30 -145 138 -217h90v-166h-89q-87 0 -144 85q-27 40 -73 147q-82 -157 -131 -167
q-29 -6 -267 -81q-120 -38 -182 -109q-14 16 -16 51v4q0 25 10 64q14 54 16 70q120 101 240 117q216 28 289 90v11q0 161 -132 493z" />
    <glyph glyph-name="uni06EF.fina" unicode="&#x6ef;" horiz-adv-x="855" 
d="M825 560l-79 -60q0 4 -61 111l-58 100q-37 -79 -82 -196l-62 -24q-10 31 -10 69q30 99 136 334q18 40 41 31l101 -199q23 -61 74 -166zM788 25q-2 -10 -12 -44q-80 -263 -422 -475q-179 -111 -308 -149q-1 1 -1 5q5 40 11 73q9 48 24 96q534 223 645 469l-125 181
q10 81 61 172q13 -4 78 -105q49 -82 99 -82h32v-166h-30q-11 0 -25 13q-25 23 -27 12z" />
    <glyph glyph-name="uni06FA.medi" unicode="&#x6fa;" horiz-adv-x="1212" 
d="M624 306q31 0 31 -4q2 -32 13 -45q72 -83 180 -83q17 0 36 2q56 0 112 65l82 95l30 -104l74 -66h52v-166h-51q-47 0 -85 36l-85 80q-28 -122 -156 -122q-91 0 -232 91q-9 -29 -85 -66q-60 -29 -117 -29h-4q-84 0 -154 50q-29 -40 -108 -41h-50q-43 1 -107 1v166
q34 0 130 -3q24 0 30 7q72 84 88 147q32 -156 206 -156q80 0 112.5 40.5t57.5 104.5zM771 733l123 -124l-128 -134l-116 123zM501 734l123 -124l-128 -134l-116 123zM636 978l123 -124l-128 -134l-116 123zM618 -131l123 -124l-128 -134l-116 123z" />
    <glyph glyph-name="uni06FA.fina" unicode="&#x6fa;" horiz-adv-x="1571" 
d="M1146 349q33 0 35 -38q3 -61 10 -79q19 -50 96 -76h2q12 0 42 91l36 114l47 -103q38 -92 95 -92h79v-166h-78q-46 0 -61 10q-22 15 -67 85q-15 -154 -117 -154q-110 0 -185 96q-24 -144 -162 -151q1 -31 1 -72v-13q0 -164 -74 -394q-57 -87 -192 -149t-267 -62
q-147 0 -232 71q-97 81 -97 245q0 171 113 418q30 -4 28 -46q-20 -111 -20 -196q0 -270 208 -270q205 0 450 193q-9 178 -93 366q11 143 72 298q21 -199 124 -199h4q59 0 121 78t82 195zM1260 694l123 -124l-128 -134l-116 123zM990 695l123 -124l-128 -134l-116 123z
M1124 938l123 -124l-128 -134l-116 123zM1254 -217l123 -124l-128 -134l-116 123z" />
    <glyph glyph-name="uni06FB.medi" unicode="&#x6fb;" horiz-adv-x="972" 
d="M496 361q-143 -105 -143 -146q0 -19 46 -19q70 0 249 55q-58 67 -152 110zM766 215q104 -49 134 -49h91v-166h-90q-187 0 -248 134l-29 -15q-217 -96 -366 -96h-17q-77 0 -125 84q-10 -60 -62 -84l-54 -23v166l44 26q46 52 46 118v6q47 -12 71 -95l97 -10q85 161 324 339
q15 3 25 3q19 0 64 -36q139 -111 179 -137q0 -87 -84 -165zM602 958l123 -124l-128 -134l-116 123zM450 -130l123 -124l-128 -134l-116 123z" />
    <glyph glyph-name="uni06FB.fina" unicode="&#x6fb;" horiz-adv-x="1649" 
d="M1195 292q-144 -112 -144 -147q0 -24 44 -23q73 1 252 53q-57 75 -152 117zM1408 98q-37 -28 -87 -50q-225 -98 -363 -98h-11q-36 0 -58 12q1 -20 1 -42q0 -159 -98 -324q-142 -85 -190 -107q-144 -65 -238 -65q-183 0 -278 193q-47 95 -47 185v4q0 145 105 295l19 -46
q-19 -93 -19 -166q2 -256 231 -256q162 0 427 134q-9 34 -48 163q-30 102 -37 171q48 53 67 133q46 -24 76 -84l95 -10q85 161 325 338h22q26 -2 67 -36q65 -54 179 -132q0 -68 -44 -125q33 -17 69 -17h91v-168h-90q-120 0 -166 98zM1286 896l123 -124l-128 -134l-116 123z
M1214 -174l123 -124l-128 -134l-116 123z" />
    <glyph glyph-name="uni06FC.medi" unicode="&#x6fc;" horiz-adv-x="929" 
d="M197 0h-197v166h106q102 0 142 66q-72 156 -211 247l31 199l36 12q82 -126 254 -126q214 0 428 155l50 -10q3 -28 3 -49q-1 -70 -18 -150q-36 -18 -106 -80q-71 -63 -113 -78q-18 -53 -18 -91q1 -95 112 -95h250v-166h-246q-127 0 -168 36q-24 21 -113 115
q-172 -151 -222 -151zM436 1073l123 -124l-128 -134l-116 123zM424 -146l123 -124l-128 -134l-116 123z" />
    <glyph glyph-name="uni06FC.fina" unicode="&#x6fc;" horiz-adv-x="1373" 
d="M865 352q-17 -52 -17 -89q1 -97 112 -97h450v-166h-450q-128 0 -164 36q-47 47 -116 115q-131 -90 -194 -138q-257 -196 -257 -441q0 -74 21 -150q153 -257 513 -257q192 0 409 69q96 0 117 -49q-127 -25 -399 -165q-240 -124 -386 -124q-205 0 -350 169
q-114 133 -114 324v6q0 322 288 687l158 199q-110 150 -186 198l31 199l37 12q80 -126 251 -126q216 0 431 155l52 -10q1 -31 1 -49q-1 -70 -18 -150q-35 -18 -107.5 -80.5t-112.5 -77.5zM723 1088l123 -124l-128 -134l-116 123zM739 -282l123 -124l-128 -134l-116 123z" />
    <glyph glyph-name="uni06FF.medi" unicode="&#x6ff;" horiz-adv-x="473" 
d="M396 855l-79 -60q0 4 -61 111l-58 100q-37 -79 -82 -196l-62 -24q-10 31 -10 69q30 99 136 334q18 40 41 31l101 -199q23 -61 74 -166zM449 0q-40 0 -69 -8q0 -29 -55 -102l-81 -112q-138 7 -165 16q-56 19 -56 130q0 30 7 76h-30v166h36q13 96 14 96l29 90q27 79 37 98
q18 34 80 174q145 -109 170 -257q34 -202 69 -202l34 1h19v-166h-39zM159 189q66 -26 94 -26q12 0 13 10q1 13 1 50v28q0 129 -58 144zM244 -70q1 6 1 9q0 25 -45 57q-42 30 -68 30q-4 0 -7 -1q-15 -15 -15 -30q0 -14 10 -27t30 -23q15 -8 28 -10q32 -6 51 -6h4q6 0 11 1z
" />
    <glyph glyph-name="uni06FF.fina" unicode="&#x6ff;" horiz-adv-x="968" 
d="M747 758l-79 -60q0 4 -61 111l-58 100q-37 -79 -82 -196l-62 -24q-10 31 -10 69q30 99 136 334q18 40 41 31l101 -199q23 -61 74 -166zM813 364q103 -52 103 -137q0 -12 -4 -25q-5 -26 15 -36h55v-166h-55q-33 0 -109 54q-29 -24 -37 -31q-145 -82 -340 -82q-42 0 -85 3
q-48 12 -94 12q-144 0 -228 -113q-1 6 -1 14q0 61 79 153q88 100 173 100q10 0 19 -1q24 187 197 298q13 55 49 133q68 -77 263 -176zM456 271l-83 -91l36 -64q123 32 123 92q0 43 -76 63zM652 260l-102 -154q142 13 198 42q33 14 48 42q-70 16 -144 70z" />
    <glyph glyph-name="uniFE82" unicode="&#x622;" horiz-adv-x="753" arabic-form="final" 
d="M744 1790q1 -23 1 -54q0 -107 -40 -147q-42 -42 -105 -42q-37 0 -142 18q-134 23 -174 23q-52 0 -216 -137q127 255 253 255q41 0 128 -16t120 -16q55 0 99 28t76 88zM774 166v-166h-29q-165 0 -216 47q-96 88 -96 270v256v284q0 376 -26 441l151 111q40 -98 49 -307
q8 -176 8 -234l-7 -268v-36q-1 -43 -1 -80q0 -181 24 -240q23 -57 43 -63q47 -15 71 -15h29z" />
    <glyph glyph-name="uniFE84" unicode="&#x623;" horiz-adv-x="515" arabic-form="final" 
d="M301.438 1762.02l-19.8477 -58.0977l-104.651 -48.8223l46.3115 -7.81152h34.2822l40.8975 1.95312l46.9131 9.27637l58.3389 16.1113l-15.0361 -39.5459l-19.2461 -17.5762l-95.6289 -41.0107l-209.902 -103.015l16.8398 59.5635l96.2305 55.1689l-37.8906 6.83496
l-19.8477 10.7402l16.8408 73.2334l71.5713 43.9395zM534 166v-166h-29q-165 0 -216 47q-96 88 -96 270v256v284q0 376 -26 441l151 111q40 -98 49 -307q8 -176 8 -234l-7 -268v-36q-1 -43 -1 -80q0 -181 24 -240q23 -57 43 -63q47 -15 71 -15h29z" />
    <glyph glyph-name="uniFE86" unicode="&#x624;" horiz-adv-x="884" arabic-form="final" 
d="M615.438 844.02l-19.8477 -58.0977l-104.651 -48.8223l46.3115 -7.81152h34.2822l40.8975 1.95312l46.9131 9.27637l58.3389 16.1113l-15.0361 -39.5459l-19.2461 -17.5762l-95.6289 -41.0107l-209.902 -103.015l16.8398 59.5635l96.2305 55.1689l-37.8906 6.83496
l-19.8477 10.7402l16.8408 73.2334l71.5713 43.9395zM942 166v-166h-49q-83 0 -120 37q-3 -112 -17 -143q-50 -113 -336 -318q-249 -179 -378 -206q0 58 29 154q84 31 299 169q14 9 220 173q76 59 76 137v10l-238 -60q-13 39 -13 103q1 141 46 266q51 142 133 142
q86 0 181 -226q30 -72 118 -72h49zM500 116q106 17 106 33q0 1 -1 2q-48 89 -75 106z" />
    <glyph glyph-name="uniFE88" unicode="&#x625;" horiz-adv-x="443" arabic-form="final" 
d="M237.438 -200.98l-19.8477 -58.0977l-104.651 -48.8223l46.3115 -7.81152h34.2822l40.8975 1.95312l46.9131 9.27637l58.3389 16.1113l-15.0361 -39.5459l-19.2461 -17.5762l-95.6289 -41.0107l-209.902 -103.015l16.8398 59.5635l96.2305 55.1689l-37.8906 6.83496
l-19.8477 10.7402l16.8408 73.2334l71.5713 43.9395zM464 166v-166h-29q-165 0 -216 47q-96 88 -96 270v256v284q0 376 -26 441l151 111q40 -98 49 -307q8 -176 8 -234l-7 -268v-36q-1 -43 -1 -80q0 -181 24 -240q23 -57 43 -63q47 -15 71 -15h29z" />
    <glyph glyph-name="uniFE8A" unicode="&#x626;" horiz-adv-x="1279" arabic-form="final" 
d="M488.438 263.02l-19.8477 -58.0977l-104.651 -48.8223l46.3115 -7.81152h34.2822l40.8975 1.95312l46.9131 9.27637l58.3389 16.1113l-15.0361 -39.5459l-19.2461 -17.5762l-95.6289 -41.0107l-209.902 -103.015l16.8398 59.5635l96.2305 55.1689l-37.8906 6.83496
l-19.8477 10.7402l16.8408 73.2334l71.5713 43.9395zM1296 0h-91l-126 52l-72 -27l-60 -25l5 -25l152 -40l134 -85q0 -47 -194 -287q-93 -78 -332 -158q-214 -71 -357 -71q-31 0 -57 4q-157 102 -216 174q-38 46 -38 121v8q0 39 14 84q109 194 156 219l-68 -173l18 -151
q100 -94 184 -99q156 -9 241 -9h8q163 0 391 139l100 127v2q-3 7 -141 48q-94 28 -142 56q-10 15 -10 36q0 41 26 80q63 95 121 138q93 74 168 74h7l13 -1q60 -12 120 -45h46v-166z" />
    <glyph glyph-name="uniFE8B" unicode="&#x626;" horiz-adv-x="460" arabic-form="initial" 
d="M222.438 856.02l-19.8477 -58.0977l-104.651 -48.8223l46.3115 -7.81152h34.2822l40.8975 1.95312l46.9131 9.27637l58.3389 16.1113l-15.0361 -39.5459l-19.2461 -17.5762l-95.6289 -41.0107l-209.902 -103.015l16.8398 59.5635l96.2305 55.1689l-37.8906 6.83496
l-19.8477 10.7402l16.8408 73.2334l71.5713 43.9395zM119 0h-119v166h125q42 0 105 64q-33 51 -33 62q0 124 54 182q29 2 30 -2q26 -81 107 -196q-72 -276 -269 -276z" />
    <glyph glyph-name="uniFE8C" unicode="&#x626;" horiz-adv-x="508" arabic-form="medial" 
d="M222.438 815.02l-19.8477 -58.0977l-104.651 -48.8223l46.3115 -7.81152h34.2822l40.8975 1.95312l46.9131 9.27637l58.3389 16.1113l-15.0361 -39.5459l-19.2461 -17.5762l-95.6289 -41.0107l-209.902 -103.015l16.8398 59.5635l96.2305 55.1689l-37.8906 6.83496
l-19.8477 10.7402l16.8408 73.2334l71.5713 43.9395zM229 404q41 6 67 6q37 0 39 -13q7 -47 47 -146q31 -77 61 -85h96v-166h-90q-14 0 -63 25q-73 37 -93 79l-17 -19q-4 -19 -55 -55q-43 -30 -49 -30h-172v166h124q24 0 105 238z" />
    <glyph glyph-name="uniFE8E" unicode="&#x627;" horiz-adv-x="382" arabic-form="final" 
d="M394 166v-166h-29q-165 0 -216 47q-96 88 -96 270v256v284q0 376 -26 441l151 111q40 -98 49 -307q8 -176 8 -234l-7 -268v-36q-1 -43 -1 -80q0 -181 24 -240q23 -57 43 -63q47 -15 71 -15h29z" />
    <glyph glyph-name="uniFE90" unicode="&#x628;" horiz-adv-x="2037" arabic-form="final" 
d="M1998 166h67v-166h-64q-250 0 -331 215q-182 -96 -680 -183q-205 -36 -502 -36q-100 0 -209 4q-152 19 -189 72t-37 167q0 129 76 185q10 -218 164 -228q166 -17 311 -17q161 0 296 21q584 91 803 216q14 8 29 8q17 0 37 -10q4 -31 14 -58q19 -53 56 -98q32 -39 65 -62
q44 -30 94 -30zM893 -114l123 -124l-128 -134l-116 123z" />
    <glyph glyph-name="uniFE91" unicode="&#x628;" horiz-adv-x="379" arabic-form="initial" 
d="M119 0h-119v166h125q42 0 105 64q-33 51 -33 62q0 124 54 182q29 2 30 -2q26 -81 107 -196q-72 -276 -269 -276zM146 -138l123 -124l-128 -134l-116 123z" />
    <glyph glyph-name="uniFE92" unicode="&#x628;" horiz-adv-x="521" arabic-form="medial" 
d="M229 404q41 6 67 6q37 0 39 -13q7 -47 47 -146q31 -77 61 -85h96v-166h-90q-14 0 -63 25q-73 37 -93 79l-17 -19q-4 -19 -55 -55q-43 -30 -49 -30h-172v166h124q24 0 105 238zM140 -118l123 -124l-128 -134l-116 123z" />
    <glyph glyph-name="uniFE94" unicode="&#x629;" horiz-adv-x="617" arabic-form="final" 
d="M412 170q-62 -102 -190 -102q-52 0 -102 20q-90 36 -90 144q0 61 30 120q127 28 217 110q102 88 102 198q0 11 -1 23q71 -17 71 -166v-41l-1 -39q0 -124 25 -172q48 -79 84 -99h91v-166h-112q-2 0 -54 32q-70 44 -70 138zM182 238q48 -27 84 -27q41 0 70 31q19 28 19 71
q0 25 -7 53q-20 -55 -166 -128zM426 1043l123 -124l-128 -134l-116 123zM156 1044l123 -124l-128 -134l-116 123z" />
    <glyph glyph-name="uniFE96" unicode="&#x62a;" horiz-adv-x="2035" arabic-form="final" 
d="M1998 166h67v-166h-64q-250 0 -331 215q-182 -96 -680 -183q-205 -36 -502 -36q-100 0 -209 4q-152 19 -189 72t-37 167q0 129 76 185q10 -218 164 -228q166 -17 311 -17q161 0 296 21q584 91 803 216q14 8 29 8q17 0 37 -10q4 -31 14 -58q19 -53 56 -98q32 -39 65 -62
q44 -30 94 -30zM1110 826l123 -124l-128 -134l-116 123zM840 827l123 -124l-128 -134l-116 123z" />
    <glyph glyph-name="uniFE97" unicode="&#x62a;" horiz-adv-x="572" arabic-form="initial" 
d="M119 0h-119v166h125q42 0 105 64q-33 51 -33 62q0 124 54 182q29 2 30 -2q26 -81 107 -196q-72 -276 -269 -276zM411 868l123 -124l-128 -134l-116 123zM141 869l123 -124l-128 -134l-116 123z" />
    <glyph glyph-name="uniFE98" unicode="&#x62a;" horiz-adv-x="526" arabic-form="medial" 
d="M229 404q41 6 67 6q37 0 39 -13q7 -47 47 -146q31 -77 61 -85h96v-166h-90q-14 0 -63 25q-73 37 -93 79l-17 -19q-4 -19 -55 -55q-43 -30 -49 -30h-172v166h124q24 0 105 238zM404 852l123 -124l-128 -134l-116 123zM134 853l123 -124l-128 -134l-116 123z" />
    <glyph glyph-name="uniFE9A" unicode="&#x62b;" horiz-adv-x="2052" arabic-form="final" 
d="M1998 166h67v-166h-64q-250 0 -331 215q-182 -96 -680 -183q-205 -36 -502 -36q-100 0 -209 4q-152 19 -189 72t-37 167q0 129 76 185q10 -218 164 -228q166 -17 311 -17q161 0 296 21q584 91 803 216q14 8 29 8q17 0 37 -10q4 -31 14 -58q19 -53 56 -98q32 -39 65 -62
q44 -30 94 -30zM1093 863l123 -124l-128 -134l-116 123zM823 864l123 -124l-128 -134l-116 123zM957 1108l123 -124l-128 -134l-116 123z" />
    <glyph glyph-name="uniFE9B" unicode="&#x62b;" horiz-adv-x="536" arabic-form="initial" 
d="M119 0h-119v166h125q42 0 105 64q-33 51 -33 62q0 124 54 182q29 2 30 -2q26 -81 107 -196q-72 -276 -269 -276zM394 852l123 -124l-128 -134l-116 123zM124 853l123 -124l-128 -134l-116 123zM259 1097l123 -124l-128 -134l-116 123z" />
    <glyph glyph-name="uniFE9C" unicode="&#x62b;" horiz-adv-x="527" arabic-form="medial" 
d="M229 404q41 6 67 6q37 0 39 -13q7 -47 47 -146q31 -77 61 -85h96v-166h-90q-14 0 -63 25q-73 37 -93 79l-17 -19q-4 -19 -55 -55q-43 -30 -49 -30h-172v166h124q24 0 105 238zM264 1109l123 -124l-128 -134l-116 123zM400 864l123 -124l-128 -134l-116 123zM130 865
l123 -124l-128 -134l-116 123z" />
    <glyph glyph-name="uniFE9E" unicode="&#x62c;" horiz-adv-x="1492" arabic-form="final" 
d="M1122 328q0 -22 6 -64q11 -76 48 -86q47 -12 182 -12h81h91v-166h-91q-219 0 -288 70q-84 86 -84 236q0 2 -1 2h-1q-25 0 -391 -309q-378 -319 -378 -651q0 -253 213 -301q120 -27 229 -27q102 0 215 19q148 25 282 25q43 0 80 -4q147 -50 147 -92q0 -20 -14 -24
q-4 -1 -45 -30q-24 -17 -49 -102q-82 79 -118 79h-1q0 -3 -12 -3q-21 0 -287 -42q-50 -8 -124 -8q-45 0 -154 8q-92 7 -143 16q-127 36 -173 68q-167 80 -167 375q26 424 695 994q-207 -31 -391 -31q-32 0 -60 1q-178 5 -359 12q14 50 131 203q103 -36 280 -36q290 0 416 14
q164 18 369 56q-35 -90 -63 -115q-23 -21 -36 -33q-35 -34 -35 -42zM823 -340l123 -124l-128 -134l-116 123z" />
    <glyph glyph-name="uniFE9F" unicode="&#x62c;" horiz-adv-x="1289" arabic-form="initial" 
d="M161 0h-161v166l134 6l122 43l158 87q-120 45 -158 70q-63 42 -186 107l102 189q381 -166 603 -166h22q218 0 451 105q-107 -128 -150 -170l-505 -256l-268 -99q-164 -76 -164 -82zM657 -64l123 -124l-128 -134l-116 123z" />
    <glyph glyph-name="uniFEA0" unicode="&#x62c;" horiz-adv-x="1274" arabic-form="medial" 
d="M868 318q39 -88 110 -121q73 -28 173 -31h51h53h47v-166h-109q-129 0 -235 119q-140 157 -149 174l-216 -112l-268 -99q-164 -76 -164 -82h-161v166l134 1l122 48l158 87q-120 45 -158 70q-63 42 -186 107l102 189q381 -166 603 -166h22q218 0 451 105
q-107 -128 -150 -170zM649 -120l123 -124l-128 -134l-116 123z" />
    <glyph glyph-name="uniFEA2" unicode="&#x62d;" horiz-adv-x="1497" arabic-form="final" 
d="M1122 328q0 -22 6 -64q11 -76 48 -86q47 -12 182 -12h81h91v-166h-91q-219 0 -288 70q-84 86 -84 236q0 2 -1 2h-1q-25 0 -391 -309q-378 -319 -378 -651q0 -253 213 -301q120 -27 229 -27q102 0 215 19q148 25 282 25q43 0 80 -4q147 -50 147 -92q0 -20 -14 -24
q-4 -1 -45 -30q-24 -17 -49 -102q-82 79 -118 79h-1q0 -3 -12 -3q-21 0 -287 -42q-50 -8 -124 -8q-45 0 -154 8q-92 7 -143 16q-127 36 -173 68q-167 80 -167 375q26 424 695 994q-207 -31 -391 -31q-32 0 -60 1q-178 5 -359 12q14 50 131 203q103 -36 280 -36q290 0 416 14
q164 18 369 56q-35 -90 -63 -115q-23 -21 -36 -33q-35 -34 -35 -42z" />
    <glyph glyph-name="uniFEA3" unicode="&#x62d;" horiz-adv-x="1284" arabic-form="initial" 
d="M161 0h-161v166l134 6l122 43l158 87q-120 45 -158 70q-63 42 -186 107l102 189q381 -166 603 -166h22q218 0 451 105q-107 -128 -150 -170l-505 -256l-268 -99q-164 -76 -164 -82z" />
    <glyph glyph-name="uniFEA4" unicode="&#x62d;" horiz-adv-x="1283" arabic-form="medial" 
d="M868 318q39 -88 110 -121q73 -28 173 -31h51h53h47v-166h-109q-129 0 -235 119q-140 157 -149 174l-216 -112l-268 -99q-164 -76 -164 -82h-161v166l134 1l122 48l158 87q-120 45 -158 70q-63 42 -186 107l102 189q381 -166 603 -166h22q218 0 451 105
q-107 -128 -150 -170z" />
    <glyph glyph-name="uniFEA6" unicode="&#x62e;" horiz-adv-x="1504" arabic-form="final" 
d="M1122 328q0 -22 6 -64q11 -76 48 -86q47 -12 182 -12h81h91v-166h-91q-219 0 -288 70q-84 86 -84 236q0 2 -1 2h-1q-25 0 -391 -309q-378 -319 -378 -651q0 -253 213 -301q120 -27 229 -27q102 0 215 19q148 25 282 25q43 0 80 -4q147 -50 147 -92q0 -20 -14 -24
q-4 -1 -45 -30q-24 -17 -49 -102q-82 79 -118 79h-1q0 -3 -12 -3q-21 0 -287 -42q-50 -8 -124 -8q-45 0 -154 8q-92 7 -143 16q-127 36 -173 68q-167 80 -167 375q26 424 695 994q-207 -31 -391 -31q-32 0 -60 1q-178 5 -359 12q14 50 131 203q103 -36 280 -36q290 0 416 14
q164 18 369 56q-35 -90 -63 -115q-23 -21 -36 -33q-35 -34 -35 -42zM636 943l123 -124l-128 -134l-116 123z" />
    <glyph glyph-name="uniFEA7" unicode="&#x62e;" horiz-adv-x="1304" arabic-form="initial" 
d="M161 0h-161v166l134 6l122 43l158 87q-120 45 -158 70q-63 42 -186 107l102 189q381 -166 603 -166h22q218 0 451 105q-107 -128 -150 -170l-505 -256l-268 -99q-164 -76 -164 -82zM562 1016l123 -124l-128 -134l-116 123z" />
    <glyph glyph-name="uniFEA8" unicode="&#x62e;" horiz-adv-x="1278" arabic-form="medial" 
d="M868 318q39 -88 110 -121q73 -28 173 -31h51h53h47v-166h-109q-129 0 -235 119q-140 157 -149 174l-216 -112l-268 -99q-164 -76 -164 -82h-161v166l134 1l122 48l158 87q-120 45 -158 70q-63 42 -186 107l102 189q381 -166 603 -166h22q218 0 451 105
q-107 -128 -150 -170zM589 1024l123 -124l-128 -134l-116 123z" />
    <glyph glyph-name="uniFEAA" unicode="&#x62f;" horiz-adv-x="928" arabic-form="final" 
d="M551 946h1q24 0 62 -126q38 -124 103 -437q30 -145 138 -217h90v-166h-89q-87 0 -144 85q-27 40 -73 147q-82 -157 -131 -167q-29 -6 -267 -81q-120 -38 -182 -109q-14 16 -16 51v4q0 25 10 64q14 54 16 70q120 101 240 117q216 28 289 90v11q0 161 -132 493z" />
    <glyph glyph-name="uniFEAC" unicode="&#x630;" horiz-adv-x="926" arabic-form="final" 
d="M551 946h1q24 0 62 -126q38 -124 103 -437q30 -145 138 -217h90v-166h-89q-87 0 -144 85q-27 40 -73 147q-82 -157 -131 -167q-29 -6 -267 -81q-120 -38 -182 -109q-14 16 -16 51v4q0 25 10 64q14 54 16 70q120 101 240 117q216 28 289 90v11q0 161 -132 493zM515 1386
l123 -124l-128 -134l-116 123z" />
    <glyph glyph-name="uniFEAE" unicode="&#x631;" horiz-adv-x="855" arabic-form="final" 
d="M788 25q-2 -10 -12 -44q-80 -263 -422 -475q-179 -111 -308 -149q-1 1 -1 5q5 40 11 73q9 48 24 96q534 223 645 469l-125 181q10 81 61 172q13 -4 78 -105q49 -82 99 -82h32v-166h-30q-11 0 -25 13q-25 23 -27 12z" />
    <glyph glyph-name="uniFEB0" unicode="&#x632;" horiz-adv-x="860" arabic-form="final" 
d="M788 25q-2 -10 -12 -44q-80 -263 -422 -475q-179 -111 -308 -149q-1 1 -1 5q5 40 11 73q9 48 24 96q534 223 645 469l-125 181q10 81 61 172q13 -4 78 -105q49 -82 99 -82h32v-166h-30q-11 0 -25 13q-25 23 -27 12zM645 778l123 -124l-128 -134l-116 123z" />
    <glyph glyph-name="uniFEB2" unicode="&#x633;" horiz-adv-x="1571" arabic-form="final" 
d="M1146 349q33 0 35 -38q3 -61 10 -79q19 -50 96 -76h2q12 0 42 91l36 114l47 -103q38 -92 95 -92h79v-166h-78q-46 0 -61 10q-22 15 -67 85q-15 -154 -117 -154q-110 0 -185 96q-24 -144 -162 -151q1 -31 1 -72v-13q0 -164 -74 -394q-57 -87 -192 -149t-267 -62
q-147 0 -232 71q-97 81 -97 245q0 171 113 418q30 -4 28 -46q-20 -111 -20 -196q0 -270 208 -270q205 0 450 193q-9 178 -93 366q11 143 72 298q21 -199 124 -199h4q59 0 121 78t82 195z" />
    <glyph glyph-name="uniFEB3" unicode="&#x633;" horiz-adv-x="1264" arabic-form="initial" 
d="M50 0h-50v167h50q165 0 194 65q64 144 97 170q20 -156 128 -156q53 0 147 34q110 40 150 188h24q38 -135 204 -135q19 0 39 2q-17 44 -17 86q1 94 66 178h16q31 -111 119 -219q-15 -69 -58 -177q-81 -51 -153 -51q-152 1 -230 75q-5 0 -102 -94q-61 -59 -197 -59h-9
q-84 0 -133 56q-70 -130 -285 -130z" />
    <glyph glyph-name="uniFEB4" unicode="&#x633;" horiz-adv-x="1219" arabic-form="medial" 
d="M624 306q31 0 31 -4q2 -32 13 -45q72 -83 180 -83q17 0 36 2q56 0 112 65l82 95l30 -104l74 -66h52v-166h-51q-47 0 -85 36l-85 80q-28 -122 -156 -122q-91 0 -232 91q-9 -29 -85 -66q-60 -29 -117 -29h-4q-84 0 -154 50q-29 -40 -108 -41h-50q-43 1 -107 1v166
q34 0 130 -3q24 0 30 7q72 84 88 147q32 -156 206 -156q80 0 112.5 40.5t57.5 104.5z" />
    <glyph glyph-name="uniFEB6" unicode="&#x634;" horiz-adv-x="1575" arabic-form="final" 
d="M1146 349q33 0 35 -38q3 -61 10 -79q19 -50 96 -76h2q12 0 42 91l36 114l47 -103q38 -92 95 -92h79v-166h-78q-46 0 -61 10q-22 15 -67 85q-15 -154 -117 -154q-110 0 -185 96q-24 -144 -162 -151q1 -31 1 -72v-13q0 -164 -74 -394q-57 -87 -192 -149t-267 -62
q-147 0 -232 71q-97 81 -97 245q0 171 113 418q30 -4 28 -46q-20 -111 -20 -196q0 -270 208 -270q205 0 450 193q-9 178 -93 366q11 143 72 298q21 -199 124 -199h4q59 0 121 78t82 195zM1260 694l123 -124l-128 -134l-116 123zM990 695l123 -124l-128 -134l-116 123z
M1124 938l123 -124l-128 -134l-116 123z" />
    <glyph glyph-name="uniFEB7" unicode="&#x634;" horiz-adv-x="1269" arabic-form="initial" 
d="M50 0h-50v167h50q165 0 194 65q64 144 97 170q20 -156 128 -156q53 0 147 34q110 40 150 188h24q38 -135 204 -135q19 0 39 2q-17 44 -17 86q1 94 66 178h16q31 -111 119 -219q-15 -69 -58 -177q-81 -51 -153 -51q-152 1 -230 75q-5 0 -102 -94q-61 -59 -197 -59h-9
q-84 0 -133 56q-70 -130 -285 -130zM771 919l123 -124l-128 -134l-116 123zM501 920l123 -124l-128 -134l-116 123zM636 1164l123 -124l-128 -134l-116 123z" />
    <glyph glyph-name="uniFEB8" unicode="&#x634;" horiz-adv-x="1222" arabic-form="medial" 
d="M624 306q31 0 31 -4q2 -32 13 -45q72 -83 180 -83q17 0 36 2q56 0 112 65l82 95l30 -104l74 -66h52v-166h-51q-47 0 -85 36l-85 80q-28 -122 -156 -122q-91 0 -232 91q-9 -29 -85 -66q-60 -29 -117 -29h-4q-84 0 -154 50q-29 -40 -108 -41h-50q-43 1 -107 1v166
q34 0 130 -3q24 0 30 7q72 84 88 147q32 -156 206 -156q80 0 112.5 40.5t57.5 104.5zM771 733l123 -124l-128 -134l-116 123zM501 734l123 -124l-128 -134l-116 123zM636 978l123 -124l-128 -134l-116 123z" />
    <glyph glyph-name="uniFEBA" unicode="&#x635;" horiz-adv-x="1654" arabic-form="final" 
d="M1195 292q-144 -112 -144 -147q0 -24 44 -23q73 1 252 53q-57 75 -152 117zM1408 98q-37 -28 -87 -50q-225 -98 -363 -98h-11q-36 0 -58 12q1 -20 1 -42q0 -159 -98 -324q-142 -85 -190 -107q-144 -65 -238 -65q-183 0 -278 193q-47 95 -47 185v4q0 145 105 295l19 -46
q-19 -93 -19 -166q2 -256 231 -256q162 0 427 134q-9 34 -48 163q-30 102 -37 171q48 53 67 133q46 -24 76 -84l95 -10q85 161 325 338h22q26 -2 67 -36q65 -54 179 -132q0 -68 -44 -125q33 -17 69 -17h91v-168h-90q-120 0 -166 98z" />
    <glyph glyph-name="uniFEBB" unicode="&#x635;" horiz-adv-x="880" arabic-form="initial" 
d="M496 361q-143 -105 -143 -146q0 -19 44 -19h6q68 0 245 55q-58 67 -152 110zM161 221l97 -10q85 161 324 339q15 3 30 3q17 -3 59 -36q124 -102 179 -137q0 -151 -226 -261q-197 -96 -366 -96h-17q-77 0 -125 84q-10 -62 -62 -84l-54 -23v166l44 26q46 52 46 118v6
q47 -12 71 -95z" />
    <glyph glyph-name="uniFEBC" unicode="&#x635;" horiz-adv-x="961" arabic-form="medial" 
d="M496 361q-143 -105 -143 -146q0 -19 46 -19q70 0 249 55q-58 67 -152 110zM766 215q104 -49 134 -49h91v-166h-90q-187 0 -248 134l-29 -15q-217 -96 -366 -96h-17q-77 0 -125 84q-10 -60 -62 -84l-54 -23v166l44 26q46 52 46 118v6q47 -12 71 -95l97 -10q85 161 324 339
q15 3 25 3q19 0 64 -36q139 -111 179 -137q0 -87 -84 -165z" />
    <glyph glyph-name="uniFEBE" unicode="&#x636;" horiz-adv-x="1646" arabic-form="final" 
d="M1195 292q-144 -112 -144 -147q0 -24 44 -23q73 1 252 53q-57 75 -152 117zM1408 98q-37 -28 -87 -50q-225 -98 -363 -98h-11q-36 0 -58 12q1 -20 1 -42q0 -159 -98 -324q-142 -85 -190 -107q-144 -65 -238 -65q-183 0 -278 193q-47 95 -47 185v4q0 145 105 295l19 -46
q-19 -93 -19 -166q2 -256 231 -256q162 0 427 134q-9 34 -48 163q-30 102 -37 171q48 53 67 133q46 -24 76 -84l95 -10q85 161 325 338h22q26 -2 67 -36q65 -54 179 -132q0 -68 -44 -125q33 -17 69 -17h91v-168h-90q-120 0 -166 98zM1286 896l123 -124l-128 -134l-116 123z
" />
    <glyph glyph-name="uniFEBF" unicode="&#x636;" horiz-adv-x="911" arabic-form="initial" 
d="M496 361q-143 -105 -143 -146q0 -19 44 -19h6q68 0 245 55q-58 67 -152 110zM161 221l97 -10q85 161 324 339q15 3 30 3q17 -3 59 -36q124 -102 179 -137q0 -151 -226 -261q-197 -96 -366 -96h-17q-77 0 -125 84q-10 -62 -62 -84l-54 -23v166l44 26q46 52 46 118v6
q47 -12 71 -95zM602 1002l123 -124l-128 -134l-116 123z" />
    <glyph glyph-name="uniFEC0" unicode="&#x636;" horiz-adv-x="976" arabic-form="medial" 
d="M496 361q-143 -105 -143 -146q0 -19 46 -19q70 0 249 55q-58 67 -152 110zM766 215q104 -49 134 -49h91v-166h-90q-187 0 -248 134l-29 -15q-217 -96 -366 -96h-17q-77 0 -125 84q-10 -60 -62 -84l-54 -23v166l44 26q46 52 46 118v6q47 -12 71 -95l97 -10q85 161 324 339
q15 3 25 3q19 0 64 -36q139 -111 179 -137q0 -87 -84 -165zM602 958l123 -124l-128 -134l-116 123z" />
    <glyph glyph-name="uniFEC2" unicode="&#x637;" horiz-adv-x="1359" arabic-form="final" 
d="M1038 152l109 4q87 4 141 10h92v-166h-91q-544 -30 -820 -30q-125 28 -239 70q-178 65 -178 132q0 9 2 20q67 -32 452 -32q36 42 36 259v47q0 180 -32 460q-31 272 -72 339l96 169q125 -160 125 -401q0 -47 -9 -179q-8 -117 -8 -186q0 -153 36 -278q83 74 199 203
q61 67 95 67q30 0 102 -44l209 -132q-56 -203 -77 -208q-33 -8 -168 -124zM882 476q-38 -56 -132 -150q-102 -103 -130 -145q102 5 272 66q196 70 200 70q-80 104 -210 159z" />
    <glyph glyph-name="uniFEC3" unicode="&#x637;" horiz-adv-x="972" arabic-form="initial" 
d="M142 190q38 39 38 260q0 232 -37 508q-38 283 -69 337l96 170q123 -157 123 -402q0 -46 -9 -178q-8 -117 -8 -185q0 -156 40 -279q86 78 198 203q58 65 93 65q32 0 102 -43l210 -129q-68 -341 -410 -422q-112 -49 -407 -95h-102v166h47h11q49 5 84 24zM252 210
q92 0 266 61q77 27 206 70q-69 99 -207 167q-14 -32 -46 -72q-28 -35 -74 -78q-30 -29 -59 -58q-70 -70 -86 -90z" />
    <glyph glyph-name="uniFEC4" unicode="&#x637;" horiz-adv-x="989" arabic-form="medial" 
d="M0 0v166h47h11q40 0 84 24q38 40 38 259q0 210 -35 488q-34 270 -71 328l98 169q124 -160 124 -401q0 -52 -10 -179t-10 -186q0 -153 41 -278q83 77 198 203q61 67 92 67t103 -44l213 -132q-41 -180 -82 -208q-161 -110 -165 -124v0h2q14 0 106 4q132 6 141 10h91v-166
h-1016zM258 186q94 2 265 62q197 69 207 69q-69 99 -208 165q-15 -31 -45 -68q-21 -26 -75 -80q-58 -58 -59 -58q-55 -62 -85 -90z" />
    <glyph glyph-name="uniFEC6" unicode="&#x638;" horiz-adv-x="1366" arabic-form="final" 
d="M1038 152l109 4q87 4 141 10h92v-166h-91q-544 -30 -820 -30q-125 28 -239 70q-178 65 -178 132q0 9 2 20q67 -32 452 -32q36 42 36 259v47q0 180 -32 460q-31 272 -72 339l96 169q125 -160 125 -401q0 -47 -9 -179q-8 -117 -8 -186q0 -153 36 -278q83 74 199 203
q61 67 95 67q30 0 102 -44l209 -132q-56 -203 -77 -208q-33 -8 -168 -124zM882 476q-38 -56 -132 -150q-102 -103 -130 -145q102 5 272 66q196 70 200 70q-80 104 -210 159zM1035 1090l123 -124l-128 -134l-116 123z" />
    <glyph glyph-name="uniFEC7" unicode="&#x638;" horiz-adv-x="988" arabic-form="initial" 
d="M142 190q38 39 38 260q0 232 -37 508q-38 283 -69 337l96 170q123 -157 123 -402q0 -46 -9 -178q-8 -117 -8 -185q0 -156 40 -279q86 78 198 203q58 65 93 65q32 0 102 -43l210 -129q-68 -341 -410 -422q-112 -49 -407 -95h-102v166h47h11q49 5 84 24zM252 210
q92 0 266 61q77 27 206 70q-69 99 -207 167q-14 -32 -46 -72q-28 -35 -74 -78q-30 -29 -59 -58q-70 -70 -86 -90zM579 1129l123 -124l-128 -134l-116 123z" />
    <glyph glyph-name="uniFEC8" unicode="&#x638;" horiz-adv-x="991" arabic-form="medial" 
d="M0 0v166h47h11q40 0 84 24q38 40 38 259q0 210 -35 488q-34 270 -71 328l98 169q124 -160 124 -401q0 -52 -10 -179t-10 -186q0 -153 41 -278q83 77 198 203q61 67 92 67t103 -44l213 -132q-41 -180 -82 -208q-161 -110 -165 -124v0h2q14 0 106 4q132 6 141 10h91v-166
h-1016zM258 186q94 2 265 62q197 69 207 69q-69 99 -208 165q-15 -31 -45 -68q-21 -26 -75 -80q-58 -58 -59 -58q-55 -62 -85 -90zM602 1060l123 -124l-128 -134l-116 123z" />
    <glyph glyph-name="uniFECA" unicode="&#x639;" horiz-adv-x="1391" arabic-form="final" 
d="M865 352q-17 -52 -17 -89q1 -97 112 -97h450v-166h-450q-128 0 -164 36q-47 47 -116 115q-131 -90 -194 -138q-257 -196 -257 -441q0 -74 21 -150q153 -257 513 -257q192 0 409 69q96 0 117 -49q-127 -25 -399 -165q-240 -124 -386 -124q-205 0 -350 169
q-114 133 -114 324v6q0 322 288 687l158 199q-110 150 -186 198l31 199l37 12q80 -126 251 -126q216 0 431 155l52 -10q1 -31 1 -49q-1 -70 -18 -150q-35 -18 -107.5 -80.5t-112.5 -77.5z" />
    <glyph glyph-name="uniFECB" unicode="&#x639;" horiz-adv-x="973" arabic-form="initial" 
d="M822 302q-307 -302 -546 -302h-230h-46v166h47q356 0 405 61h-156q-184 0 -231 134q-8 23 -8 48q0 24 7 51q59 226 232 306l350 160q-22 -118 -63 -217q-272 -90 -351 -216q51 -53 262 -53h8q247 0 424 110q-96 -222 -104 -248z" />
    <glyph glyph-name="uniFECC" unicode="&#x639;" horiz-adv-x="925" arabic-form="medial" 
d="M197 0h-197v166h106q102 0 142 66q-72 156 -211 247l31 199l36 12q82 -126 254 -126q214 0 428 155l50 -10q3 -28 3 -49q-1 -70 -18 -150q-36 -18 -106 -80q-71 -63 -113 -78q-18 -53 -18 -91q1 -95 112 -95h250v-166h-246q-127 0 -168 36q-24 21 -113 115
q-172 -151 -222 -151z" />
    <glyph glyph-name="uniFECE" unicode="&#x63a;" horiz-adv-x="1368" arabic-form="final" 
d="M865 352q-17 -52 -17 -89q1 -97 112 -97h450v-166h-450q-128 0 -164 36q-47 47 -116 115q-131 -90 -194 -138q-257 -196 -257 -441q0 -74 21 -150q153 -257 513 -257q192 0 409 69q96 0 117 -49q-127 -25 -399 -165q-240 -124 -386 -124q-205 0 -350 169
q-114 133 -114 324v6q0 322 288 687l158 199q-110 150 -186 198l31 199l37 12q80 -126 251 -126q216 0 431 155l52 -10q1 -31 1 -49q-1 -70 -18 -150q-35 -18 -107.5 -80.5t-112.5 -77.5zM723 1088l123 -124l-128 -134l-116 123z" />
    <glyph glyph-name="uniFECF" unicode="&#x63a;" horiz-adv-x="991" arabic-form="initial" 
d="M822 302q-307 -302 -546 -302h-230h-46v166h47q356 0 405 61h-156q-184 0 -231 134q-8 23 -8 48q0 24 7 51q59 226 232 306l350 160q-22 -118 -63 -217q-272 -90 -351 -216q51 -53 262 -53h8q247 0 424 110q-96 -222 -104 -248zM340 1253l123 -124l-128 -134l-116 123z
" />
    <glyph glyph-name="uniFED0" unicode="&#x63a;" horiz-adv-x="897" arabic-form="medial" 
d="M197 0h-197v166h106q102 0 142 66q-72 156 -211 247l31 199l36 12q82 -126 254 -126q214 0 428 155l50 -10q3 -28 3 -49q-1 -70 -18 -150q-36 -18 -106 -80q-71 -63 -113 -78q-18 -53 -18 -91q1 -95 112 -95h250v-166h-246q-127 0 -168 36q-24 21 -113 115
q-172 -151 -222 -151zM436 1073l123 -124l-128 -134l-116 123z" />
    <glyph glyph-name="uniFED2" unicode="&#x641;" horiz-adv-x="2064" arabic-form="final" 
d="M867 169q252 0 481 12q210 11 222 25q-4 44 -4 84q1 268 167 384q180 -30 216 -130q26 -73 26 -138q0 -131 -117 -216q61 -24 114 -24h108v-166h-106q-62 0 -252 60q-198 -45 -812 -56q-218 -4 -624 -20q-150 22 -188 74t-38 143v5q0 145 75 206q9 -222 161 -236z
M1701 270q138 24 138 84v27q0 108 -99 111q-52 -52 -52 -133q0 -41 13 -89zM1786 1150l123 -124l-128 -134l-116 123z" />
    <glyph glyph-name="uniFED3" unicode="&#x641;" horiz-adv-x="587" arabic-form="initial" 
d="M395 293q-12 87 -46 126q-31 -48 -95 -84q-65 -37 -121 -37h-8q-78 0 -95 82q67 244 208 419q66 -62 189 -241q73 -106 95 -206q6 -27 6 -53q-4 -217 -403 -299h-79h-46v166h47q180 0 348 127zM206 590l-64 -116q23 -7 36 -10q28 -6 49 -6q53 0 53 34q0 36 -74 98z
M250 1218l123 -124l-128 -134l-116 123z" />
    <glyph glyph-name="uniFED4" unicode="&#x641;" horiz-adv-x="615" arabic-form="medial" 
d="M82 0h-82v166h95l25 40q-4 43 -4 82q3 271 167 386q185 -30 216 -130q22 -72 22 -133q-1 -139 -112 -221q64 -24 114 -24h107v-166h-106q-62 0 -252 60zM251 270q66 11 101 32q39 23 39 72q0 114 -99 118q-27 -26 -38 -54q-16 -40 -16 -75v-4q0 -22 6 -56q1 -7 7 -33z
M328 1188l123 -124l-128 -134l-116 123z" />
    <glyph glyph-name="uniFED6" unicode="&#x642;" horiz-adv-x="1121" arabic-form="final" 
d="M879 419q8 -20 41 -93q75 -159 78 -160h127v-166h-72q18 -82 22 -160q-48 -223 -262 -390q-74 -58 -186 -93q-117 -37 -227 -37h-17q-146 0 -217 87q-115 141 -115 312q0 147 94 316l54 -45q-36 -84 -36 -160v-10q0 -152 165 -274q74 -30 153 -30q211 1 471 226q1 9 1 19
q0 48 -20 105t-20 98q-62 -49 -137 -49q-37 0 -139 39q-1 9 -1 13q21 264 176 470zM781 202l-22 -72q-2 -12 -2 -18q2 -34 27 -33q18 1 45 13q8 4 8 10q0 22 -56 100zM933 887l123 -124l-128 -134l-116 123zM663 888l123 -124l-128 -134l-116 123z" />
    <glyph glyph-name="uniFED7" unicode="&#x642;" horiz-adv-x="582" arabic-form="initial" 
d="M395 293q-12 87 -46 126q-31 -48 -95 -84q-65 -37 -121 -37h-8q-78 0 -95 82q67 244 208 419q66 -62 189 -241q73 -106 95 -206q6 -27 6 -53q-4 -217 -403 -299h-79h-46v166h47q180 0 348 127zM206 590l-64 -116q23 -7 36 -10q28 -6 49 -6q53 0 53 34q0 36 -74 98z
M420 1155l123 -124l-128 -134l-116 123zM150 1156l123 -124l-128 -134l-116 123z" />
    <glyph glyph-name="uniFED8" unicode="&#x642;" horiz-adv-x="607" arabic-form="medial" 
d="M82 0h-82v166h95l25 40q-4 43 -4 82q3 271 167 386q185 -30 216 -130q22 -72 22 -133q-1 -139 -112 -221q64 -24 114 -24h107v-166h-106q-62 0 -252 60zM251 270q66 11 101 32q39 23 39 72q0 114 -99 118q-27 -26 -38 -54q-16 -40 -16 -75v-4q0 -22 6 -56q1 -7 7 -33z
M447 1127l123 -124l-128 -134l-116 123zM177 1128l123 -124l-128 -134l-116 123z" />
    <glyph glyph-name="uniFEDA" unicode="&#x643;" horiz-adv-x="1829" arabic-form="final" 
d="M1554 134l-464 -85l-457 -49q-79 -6 -140 -6t-103 6q-176 25 -198 59q-134 150 -134 304q0 65 24 131q4 11 73 182q24 -51 29 -136q-10 -39 -10 -77q1 -128 164 -246q54 -39 237 -43l400 29l393 54l104 41l-35 156q-19 71 -130 458q-96 333 -96 377l45 137
q130 -107 444 -1115q28 -90 88 -90h56v-221h-53q-157 0 -237 134zM882.5 818q-20.5 -46 -41 -76.5t-47.5 -55t-59 -51.5l-314 -27q21 23 59 45.5t81 42t86 40t75.5 35t57.5 30.5q-52 31 -83.5 54.5t-49 42t-22.5 37t-5 38.5q0 27 13.5 61.5t34 71.5t51 71t65.5 58
q-2 -4 -2 -18v-8v-11q-21 -30 -38.5 -60t-37.5 -63l-6 -20q22 -16 45.5 -23.5t56.5 -12.5t60 -9q63 -21 63 -78q-22 -68 -42.5 -114z" />
    <glyph glyph-name="uniFEDB" unicode="&#x643;" horiz-adv-x="976" arabic-form="initial" 
d="M37 166q115 10 207 81q-17 46 -110 175q-85 118 -111 194q2 84 59 190q66 140 80 185q131 31 396 155q288 131 361 212q22 0 22 -24q0 -30 -40 -109l-51 -102q-129 -75 -216 -115q-114 -58 -494 -220q46 -158 141 -279q147 -192 195 -226q-3 -39 -22 -153
q-155 -88 -302 -130h-152v166h37z" />
    <glyph glyph-name="uniFEDC" unicode="&#x643;" horiz-adv-x="984" arabic-form="medial" 
d="M454 130q-155 -88 -302 -130h-152v166h37q129 10 214 81q-15 46 -109 175q-86 118 -112 194q6 84 61 190q66 140 81 185q129 31 393 155q289 131 365 212q20 0 20 -24q0 -30 -40 -109l-51 -102q-129 -75 -213 -115q-118 -58 -498 -220q33 -120 145 -279
q111 -174 179 -233q127 -110 325 -110h218v-166h-218q-76 0 -222 40q-65 16 -121 90z" />
    <glyph glyph-name="uniFEDE" unicode="&#x644;" horiz-adv-x="1220" arabic-form="final" 
d="M1100 -23q-112 -256 -238 -343q-178 -122 -412 -122q-197 0 -366 102q-40 37 -40 185q0 324 138 499q8 2 13 2q24 -1 24 -29q-67 -127 -67 -241q0 -261 235 -323q34 -9 72 -9q181 1 457 193q0 54 6 340t6 435q0 431 -84 544q83 134 109 223q97 -58 125 -160
q18 -65 18 -171q0 -108 -32 -303q-24 -146 -24 -417q0 -50 4 -99q56 -117 131 -117h65v-166h-60q-20 0 -110 110q10 -63 30 -133z" />
    <glyph glyph-name="uniFEDF" unicode="&#x644;" horiz-adv-x="328" arabic-form="initial" 
d="M236 177q0 -71 -75 -127q-41 -31 -97 -50h-64v166h65q4 0 41 37q13 13 13 421q0 462 -87 586q82 144 114 238q96 -63 124 -174q13 -52 13 -182q0 -104 -30 -327q-31 -224 -31 -351q14 -233 14 -237z" />
    <glyph glyph-name="uniFEE0" unicode="&#x644;" horiz-adv-x="489" arabic-form="medial" 
d="M296 206q4 -40 111 -40h92v-166h-91q-105 47 -125 125q0 -11 -44 -59q-11 -13 -75 -38q-50 -20 -67 -28h-97v166h100q24 0 66 37q10 9 10 421v21q0 441 -84 565q80 144 111 238q93 -61 123 -174q17 -63 17 -182q0 -108 -31 -327q-32 -226 -32 -330q0 -12 1 -21
q3 -92 15 -208z" />
    <glyph glyph-name="uniFEE2" unicode="&#x645;" horiz-adv-x="735" arabic-form="final" 
d="M370 534q118 -2 157 -80l65 -129q80 -159 112 -159h48v-166h-44q-46 19 -61 20q-36 10 -71 51l-38 -46l-148 95q-70 60 -70 167q0 24 1 48q-145 -9 -166 -142q30 -108 61 -345q34 -261 34 -477q0 -362 -95 -450q23 131 23 258q0 192 -68.5 495t-68.5 445l65 193
q29 85 84 138q60 59 180 84z" />
    <glyph glyph-name="uniFEE3" unicode="&#x645;" horiz-adv-x="581" arabic-form="initial" 
d="M236 229q-19 29 -50 52q11 47 50 143q131 -93 291 -117q17 -31 17 -71q0 -55 -29 -102q-190 -1 -390 -121q-43 -13 -79 -13h-46v166h47h18q35 0 80 21z" />
    <glyph glyph-name="uniFEE4" unicode="&#x645;" horiz-adv-x="614" arabic-form="medial" 
d="M60 0h-60v166h10h53q55 0 80 58q7 15 79 130q76 120 77 122q17 16 46 16h7q53 0 75 -25q61 -68 82 -132q35 -107 35 -141q0 -28 31 -28h55v-166h-61q-45 0 -52 59q-15 -30 -131 -53q-10 -2 -20 -2q-32 1 -67 16q-26 11 -52 39l-50 51l-60 -85zM402 176q8 19 8 45
q0 4 -1 6q-26 52 -51 65q-9 5 -25 6q-14 1 -31 -6q-33 -14 -33 -39q0 -3 1 -7q13 -50 65 -71q10 -4 19 -7q18 -6 27 -6q7 0 13 3q4 2 8 11z" />
    <glyph glyph-name="uniFEE6" unicode="&#x646;" horiz-adv-x="937" arabic-form="final" 
d="M884 16l16 -48q9 -29 9 -72q0 -56 -23 -137q-19 -67 -89 -150q-80 -93 -143 -131q-40 -24 -170 -68q-89 -30 -123 -30q-4 0 -9 1q-74 15 -170 71q-64 38 -94 88q-35 57 -46 149q-6 48 -6 93q0 71 6 133q8 83 38 176q9 28 40 28h10q0 -13 -12 -169q-3 -39 -3 -67t3 -52
q9 -69 71 -151q36 -48 101 -68q41 -13 85 -13q15 0 44 3q88 9 177 37q40 13 102 50q117 71 127 89q6 11 6 22q0 26 -22 66q-25 46 -80 109l-66 57q0 156 35 195q10 10 14 10q2 0 5 -2l43 -32q48 -37 164 -37h46v-166h-44q-28 4 -42 16zM391 510l123 -124l-128 -134l-116 123
z" />
    <glyph glyph-name="uniFEE7" unicode="&#x646;" horiz-adv-x="443" arabic-form="initial" 
d="M119 0h-119v166h125q42 0 105 64q-33 51 -33 62q0 124 54 182q29 2 30 -2q26 -81 107 -196q-72 -276 -269 -276zM190 948l123 -124l-128 -134l-116 123z" />
    <glyph glyph-name="uniFEE8" unicode="&#x646;" horiz-adv-x="525" arabic-form="medial" 
d="M229 404q41 6 67 6q37 0 39 -13q7 -47 47 -146q31 -77 61 -85h96v-166h-90q-14 0 -63 25q-73 37 -93 79l-17 -19q-4 -19 -55 -55q-43 -30 -49 -30h-172v166h124q24 0 105 238zM196 906l123 -124l-128 -134l-116 123z" />
    <glyph glyph-name="uniFEEA" unicode="&#x647;" horiz-adv-x="617" arabic-form="final" 
d="M412 170q-62 -102 -190 -102q-52 0 -102 20q-90 36 -90 144q0 61 30 120q127 28 217 110q102 88 102 198q0 11 -1 23q71 -17 71 -166v-41l-1 -39q0 -124 25 -172q48 -79 84 -99h91v-166h-112q-2 0 -54 32q-70 44 -70 138zM182 238q48 -27 84 -27q41 0 70 31q19 28 19 71
q0 25 -7 53q-20 -55 -166 -128z" />
    <glyph glyph-name="uniFEEB" unicode="&#x647;" horiz-adv-x="664" arabic-form="initial" 
d="M124 19q-82 -19 -124 -19v166h42v42q0 117 124 246l10 80q14 48 30 79l16 -49q232 -46 384 -197q19 -51 19 -97q0 -89 -85 -164q-270 -81 -416 -87zM352 331v-3q0 -4 -1 -23l-4 -36q-12 -51 -12 -54q0 -8 50 -8h22q46 0 69 44q-8 37 -124 80zM142 317q-23 -31 -26 -66
q76 -48 105 -48q18 0 17 19q-1 28 -32 89q-25 6 -64 6z" />
    <glyph glyph-name="uniFEEC" unicode="&#x647;" horiz-adv-x="467" arabic-form="medial" 
d="M449 0q-40 0 -69 -8q0 -29 -55 -102l-81 -112q-138 7 -165 16q-56 19 -56 130q0 30 7 76h-30v166h36q13 96 14 96l29 90q27 79 37 98q18 34 80 174q145 -109 170 -257q34 -202 69 -202l34 1h19v-166h-39zM159 189q66 -26 94 -26q12 0 13 10q1 13 1 50v28q0 129 -58 144z
M244 -70q1 6 1 9q0 25 -45 57q-42 30 -68 30q-4 0 -7 -1q-15 -15 -15 -30q0 -14 10 -27t30 -23q15 -8 28 -10q32 -6 51 -6h4q6 0 11 1z" />
    <glyph glyph-name="uniFEEE" unicode="&#x648;" horiz-adv-x="915" arabic-form="final" 
d="M942 166v-166h-49q-83 0 -120 37q-3 -112 -17 -143q-50 -113 -336 -318q-249 -179 -378 -206q0 58 29 154q84 31 299 169q14 9 220 173q76 59 76 137v10l-238 -60q-13 39 -13 103q1 141 46 266q51 142 133 142q86 0 181 -226q30 -72 118 -72h49zM500 116q106 17 106 33
q0 1 -1 2q-48 89 -75 106z" />
    <glyph glyph-name="uniFEF0" unicode="&#x649;" horiz-adv-x="1281" arabic-form="final" 
d="M1296 0h-91l-126 52l-72 -27l-60 -25l5 -25l152 -40l134 -85q0 -47 -194 -287q-93 -78 -332 -158q-214 -71 -357 -71q-31 0 -57 4q-157 102 -216 174q-38 46 -38 121v8q0 39 14 84q109 194 156 219l-68 -173l18 -151q100 -94 184 -99q156 -9 241 -9h8q163 0 391 139
l100 127v2q-3 7 -141 48q-94 28 -142 56q-10 15 -10 36q0 41 26 80q63 95 121 138q93 74 168 74h7l13 -1q60 -12 120 -45h46v-166z" />
    <glyph glyph-name="uniFBE8" unicode="&#x649;" horiz-adv-x="415" arabic-form="initial" 
d="M119 0h-119v166h125q42 0 105 64q-33 51 -33 62q0 124 54 182q29 2 30 -2q26 -81 107 -196q-72 -276 -269 -276z" />
    <glyph glyph-name="uniFBE9" unicode="&#x649;" horiz-adv-x="527" arabic-form="medial" 
d="M229 404q41 6 67 6q37 0 39 -13q7 -47 47 -146q31 -77 61 -85h96v-166h-90q-14 0 -63 25q-73 37 -93 79l-17 -19q-4 -19 -55 -55q-43 -30 -49 -30h-172v166h124q24 0 105 238z" />
    <glyph glyph-name="uniFEF2" unicode="&#x64a;" horiz-adv-x="1272" arabic-form="final" 
d="M1296 0h-91l-126 52l-72 -27l-60 -25l5 -25l152 -40l134 -85q0 -47 -194 -287q-93 -78 -332 -158q-214 -71 -357 -71q-31 0 -57 4q-157 102 -216 174q-38 46 -38 121v8q0 39 14 84q109 194 156 219l-68 -173l18 -151q100 -94 184 -99q156 -9 241 -9h8q163 0 391 139
l100 127v2q-3 7 -141 48q-94 28 -142 56q-10 15 -10 36q0 41 26 80q63 95 121 138q93 74 168 74h7l13 -1q60 -12 120 -45h46v-166zM633 -769l123 -124l-128 -134l-116 123zM363 -768l123 -124l-128 -134l-116 123z" />
    <glyph glyph-name="uniFEF3" unicode="&#x64a;" horiz-adv-x="524" arabic-form="initial" 
d="M119 0h-119v166h125q42 0 105 64q-33 51 -33 62q0 124 54 182q29 2 30 -2q26 -81 107 -196q-72 -276 -269 -276zM397 -109l123 -124l-128 -134l-116 123zM127 -108l123 -124l-128 -134l-116 123z" />
    <glyph glyph-name="uniFEF4" unicode="&#x64a;" horiz-adv-x="522" arabic-form="medial" 
d="M229 404q41 6 67 6q37 0 39 -13q7 -47 47 -146q31 -77 61 -85h96v-166h-90q-14 0 -63 25q-73 37 -93 79l-17 -19q-4 -19 -55 -55q-43 -30 -49 -30h-172v166h124q24 0 105 238zM397 -122l123 -124l-128 -134l-116 123zM127 -121l123 -124l-128 -134l-116 123z" />
    <glyph glyph-name="uniFB51" unicode="&#x671;" horiz-adv-x="512" arabic-form="final" 
d="M50 1463q-27 11 -27 177q0 35 3 56q33 -11 51 -42l60 -6q55 82 211 176q9 1 11 1q7 0 82 -40q75 -42 78 -50t3 -19q0 -49 -122 -105t-255 -56q-67 0 -95 19q-3 -16 -3 -44t3 -67zM291 1705q-60 -39 -60 -53v-1q0 -7 16 -7q32 0 107 20q-25 23 -63 41zM536 166v-166h-29
q-165 0 -216 47q-96 88 -96 270v256v284q0 376 -26 441l151 111q40 -98 49 -307q8 -176 8 -234l-7 -268v-36q-1 -43 -1 -80q0 -181 24 -240q23 -57 43 -63q47 -15 71 -15h29z" />
    <glyph glyph-name="uniFB67" unicode="&#x679;" horiz-adv-x="2049" arabic-form="final" 
d="M788.366 1065.86q40.8965 -51.3525 40.8965 -130.181q0 -20.2793 -3.05957 -59.6934q-3.05859 -39.4141 -3.05859 -59.6934q0 -51.0254 12.2363 -91.584q26.084 23.5498 63.4385 65.7441q19.6436 21.915 30.9141 21.915q9.66113 0 32.8467 -14.7188l66.3359 -41.8672
q-21.2539 -109.901 -132.029 -137.704q-35.4219 -16.6816 -129.452 -31.0732q-41.2188 9.48535 -76.6416 22.8965q-57.9629 22.5684 -57.9629 42.5215q0 3.59766 0.96582 6.54102q21.8975 -9.8125 145.554 -9.8125q12.5586 13.7383 12.5586 84.7158
q0 73.5947 -11.2705 165.833q-11.5928 91.585 -24.1514 111.21zM900.43 752.506q-11.2715 -16.3535 -42.8291 -48.4082q-30.9141 -30.7461 -41.541 -48.082q31.2363 0.981445 87.9121 21.2607q61.8281 22.8955 63.7607 23.2227q-26.084 33.3633 -67.3027 52.0068zM1998 166
h67v-166h-64q-250 0 -331 215q-182 -96 -680 -183q-205 -36 -502 -36q-100 0 -209 4q-152 19 -189 72t-37 167q0 129 76 185q10 -218 164 -228q166 -17 311 -17q161 0 296 21q584 91 803 216q14 8 29 8q17 0 37 -10q4 -31 14 -58q19 -53 56 -98q32 -39 65 -62q44 -30 94 -30
z" />
    <glyph glyph-name="uniFB68" unicode="&#x679;" horiz-adv-x="522" arabic-form="initial" 
d="M171.366 1128.86q40.8965 -51.3525 40.8965 -130.181q0 -20.2793 -3.05957 -59.6934q-3.05859 -39.4141 -3.05859 -59.6934q0 -51.0254 12.2363 -91.584q26.084 23.5498 63.4385 65.7441q19.6436 21.915 30.9141 21.915q9.66113 0 32.8467 -14.7188l66.3359 -41.8672
q-21.2539 -109.901 -132.029 -137.704q-35.4219 -16.6816 -129.452 -31.0732q-41.2188 9.48535 -76.6416 22.8965q-57.9629 22.5684 -57.9629 42.5215q0 3.59766 0.96582 6.54102q21.8975 -9.8125 145.554 -9.8125q12.5586 13.7383 12.5586 84.7158
q0 73.5947 -11.2705 165.833q-11.5928 91.585 -24.1514 111.21zM283.43 815.506q-11.2715 -16.3535 -42.8291 -48.4082q-30.9141 -30.7461 -41.541 -48.082q31.2363 0.981445 87.9121 21.2607q61.8281 22.8955 63.7607 23.2227q-26.084 33.3633 -67.3027 52.0068zM119 0
h-119v166h125q42 0 105 64q-33 51 -33 62q0 124 54 182q29 2 30 -2q26 -81 107 -196q-72 -276 -269 -276z" />
    <glyph glyph-name="uniFB69" unicode="&#x679;" horiz-adv-x="523" arabic-form="medial" 
d="M171.366 1128.86q40.8965 -51.3525 40.8965 -130.181q0 -20.2793 -3.05957 -59.6934q-3.05859 -39.4141 -3.05859 -59.6934q0 -51.0254 12.2363 -91.584q26.084 23.5498 63.4385 65.7441q19.6436 21.915 30.9141 21.915q9.66113 0 32.8467 -14.7188l66.3359 -41.8672
q-21.2539 -109.901 -132.029 -137.704q-35.4219 -16.6816 -129.452 -31.0732q-41.2188 9.48535 -76.6416 22.8965q-57.9629 22.5684 -57.9629 42.5215q0 3.59766 0.96582 6.54102q21.8975 -9.8125 145.554 -9.8125q12.5586 13.7383 12.5586 84.7158
q0 73.5947 -11.2705 165.833q-11.5928 91.585 -24.1514 111.21zM283.43 815.506q-11.2715 -16.3535 -42.8291 -48.4082q-30.9141 -30.7461 -41.541 -48.082q31.2363 0.981445 87.9121 21.2607q61.8281 22.8955 63.7607 23.2227q-26.084 33.3633 -67.3027 52.0068zM229 404
q41 6 67 6q37 0 39 -13q7 -47 47 -146q31 -77 61 -85h96v-166h-90q-14 0 -63 25q-73 37 -93 79l-17 -19q-4 -19 -55 -55q-43 -30 -49 -30h-172v166h124q24 0 105 238z" />
    <glyph glyph-name="uniFB5F" unicode="&#x67a;" horiz-adv-x="2049" arabic-form="final" 
d="M1998 166h67v-166h-64q-250 0 -331 215q-182 -96 -680 -183q-205 -36 -502 -36q-100 0 -209 4q-152 19 -189 72t-37 167q0 129 76 185q10 -218 164 -228q166 -17 311 -17q161 0 296 21q584 91 803 216q14 8 29 8q17 0 37 -10q4 -31 14 -58q19 -53 56 -98q32 -39 65 -62
q44 -30 94 -30zM955 1108l123 -124l-128 -134l-116 123zM955 832l123 -124l-128 -134l-116 123z" />
    <glyph glyph-name="uniFB60" unicode="&#x67a;" horiz-adv-x="421" arabic-form="initial" 
d="M119 0h-119v166h125q42 0 105 64q-33 51 -33 62q0 124 54 182q29 2 30 -2q26 -81 107 -196q-72 -276 -269 -276zM200 1232l123 -124l-128 -134l-116 123zM200 956l123 -124l-128 -134l-116 123z" />
    <glyph glyph-name="uniFB61" unicode="&#x67a;" horiz-adv-x="521" arabic-form="medial" 
d="M229 404q41 6 67 6q37 0 39 -13q7 -47 47 -146q31 -77 61 -85h96v-166h-90q-14 0 -63 25q-73 37 -93 79l-17 -19q-4 -19 -55 -55q-43 -30 -49 -30h-172v166h124q24 0 105 238zM205 1189l123 -124l-128 -134l-116 123zM205 913l123 -124l-128 -134l-116 123z" />
    <glyph glyph-name="uniFB53" unicode="&#x67b;" horiz-adv-x="2045" arabic-form="final" 
d="M1998 166h67v-166h-64q-250 0 -331 215q-182 -96 -680 -183q-205 -36 -502 -36q-100 0 -209 4q-152 19 -189 72t-37 167q0 129 76 185q10 -218 164 -228q166 -17 311 -17q161 0 296 21q584 91 803 216q14 8 29 8q17 0 37 -10q4 -31 14 -58q19 -53 56 -98q32 -39 65 -62
q44 -30 94 -30zM896 -82l123 -124l-128 -134l-116 123zM896 -358l123 -124l-128 -134l-116 123z" />
    <glyph glyph-name="uniFB54" unicode="&#x67b;" horiz-adv-x="415" arabic-form="initial" 
d="M119 0h-119v166h125q42 0 105 64q-33 51 -33 62q0 124 54 182q29 2 30 -2q26 -81 107 -196q-72 -276 -269 -276zM136 -91l123 -124l-128 -134l-116 123zM136 -367l123 -124l-128 -134l-116 123z" />
    <glyph glyph-name="uniFB55" unicode="&#x67b;" horiz-adv-x="534" arabic-form="medial" 
d="M229 404q41 6 67 6q37 0 39 -13q7 -47 47 -146q31 -77 61 -85h96v-166h-90q-14 0 -63 25q-73 37 -93 79l-17 -19q-4 -19 -55 -55q-43 -30 -49 -30h-172v166h124q24 0 105 238zM141 -84l123 -124l-128 -134l-116 123zM141 -360l123 -124l-128 -134l-116 123z" />
    <glyph glyph-name="uniFB57" unicode="&#x67e;" horiz-adv-x="2044" arabic-form="final" 
d="M1998 166h67v-166h-64q-250 0 -331 215q-182 -96 -680 -183q-205 -36 -502 -36q-100 0 -209 4q-152 19 -189 72t-37 167q0 129 76 185q10 -218 164 -228q166 -17 311 -17q161 0 296 21q584 91 803 216q14 8 29 8q17 0 37 -10q4 -31 14 -58q19 -53 56 -98q32 -39 65 -62
q44 -30 94 -30zM1094 -109l123 -124l-128 -134l-116 123zM824 -107l123 -124l-128 -134l-116 123zM958 -331l123 -124l-128 -134l-116 123z" />
    <glyph glyph-name="uniFB58" unicode="&#x67e;" horiz-adv-x="569" arabic-form="initial" 
d="M119 0h-119v166h125q42 0 105 64q-33 51 -33 62q0 124 54 182q29 2 30 -2q26 -81 107 -196q-72 -276 -269 -276zM264 -309l123 -124l-128 -134l-116 123zM401 -87l123 -124l-128 -134l-116 123zM131 -86l123 -124l-128 -134l-116 123z" />
    <glyph glyph-name="uniFB59" unicode="&#x67e;" horiz-adv-x="533" arabic-form="medial" 
d="M229 404q41 6 67 6q37 0 39 -13q7 -47 47 -146q31 -77 61 -85h96v-166h-90q-14 0 -63 25q-73 37 -93 79l-17 -19q-4 -19 -55 -55q-43 -30 -49 -30h-172v166h124q24 0 105 238zM263 -306l123 -124l-128 -134l-116 123zM400 -84l123 -124l-128 -134l-116 123zM130 -83
l123 -124l-128 -134l-116 123z" />
    <glyph glyph-name="uniFB63" unicode="&#x67f;" horiz-adv-x="2054" arabic-form="final" 
d="M1998 166h67v-166h-64q-250 0 -331 215q-182 -96 -680 -183q-205 -36 -502 -36q-100 0 -209 4q-152 19 -189 72t-37 167q0 129 76 185q10 -218 164 -228q166 -17 311 -17q161 0 296 21q584 91 803 216q14 8 29 8q17 0 37 -10q4 -31 14 -58q19 -53 56 -98q32 -39 65 -62
q44 -30 94 -30zM1104 1171l123 -124l-128 -134l-116 123zM834 1172l123 -124l-128 -134l-116 123zM1104 895l123 -124l-128 -134l-116 123zM834 896l123 -124l-128 -134l-116 123z" />
    <glyph glyph-name="uniFB64" unicode="&#x67f;" horiz-adv-x="538" arabic-form="initial" 
d="M119 0h-119v166h125q42 0 105 64q-33 51 -33 62q0 124 54 182q29 2 30 -2q26 -81 107 -196q-72 -276 -269 -276zM404 870l123 -124l-128 -134l-116 123zM134 871l123 -124l-128 -134l-116 123zM404 1146l123 -124l-128 -134l-116 123zM134 1147l123 -124l-128 -134
l-116 123z" />
    <glyph glyph-name="uniFB65" unicode="&#x67f;" horiz-adv-x="526" arabic-form="medial" 
d="M229 404q41 6 67 6q37 0 39 -13q7 -47 47 -146q31 -77 61 -85h96v-166h-90q-14 0 -63 25q-73 37 -93 79l-17 -19q-4 -19 -55 -55q-43 -30 -49 -30h-172v166h124q24 0 105 238zM397 832l123 -124l-128 -134l-116 123zM127 833l123 -124l-128 -134l-116 123zM397 1108
l123 -124l-128 -134l-116 123zM127 1109l123 -124l-128 -134l-116 123z" />
    <glyph glyph-name="uniFB5B" unicode="&#x680;" horiz-adv-x="2050" arabic-form="final" 
d="M1998 166h67v-166h-64q-250 0 -331 215q-182 -96 -680 -183q-205 -36 -502 -36q-100 0 -209 4q-152 19 -189 72t-37 167q0 129 76 185q10 -218 164 -228q166 -17 311 -17q161 0 296 21q584 91 803 216q14 8 29 8q17 0 37 -10q4 -31 14 -58q19 -53 56 -98q32 -39 65 -62
q44 -30 94 -30zM1076 -91l123 -124l-128 -134l-116 123zM806 -90l123 -124l-128 -134l-116 123zM1076 -367l123 -124l-128 -134l-116 123zM806 -366l123 -124l-128 -134l-116 123z" />
    <glyph glyph-name="uniFB5C" unicode="&#x680;" horiz-adv-x="562" arabic-form="initial" 
d="M119 0h-119v166h125q42 0 105 64q-33 51 -33 62q0 124 54 182q29 2 30 -2q26 -81 107 -196q-72 -276 -269 -276zM404 -371l123 -124l-128 -134l-116 123zM134 -370l123 -124l-128 -134l-116 123zM404 -95l123 -124l-128 -134l-116 123zM134 -94l123 -124l-128 -134
l-116 123z" />
    <glyph glyph-name="uniFB5D" unicode="&#x680;" horiz-adv-x="527" arabic-form="medial" 
d="M229 404q41 6 67 6q37 0 39 -13q7 -47 47 -146q31 -77 61 -85h96v-166h-90q-14 0 -63 25q-73 37 -93 79l-17 -19q-4 -19 -55 -55q-43 -30 -49 -30h-172v166h124q24 0 105 238zM400 -337l123 -124l-128 -134l-116 123zM130 -336l123 -124l-128 -134l-116 123zM400 -61
l123 -124l-128 -134l-116 123zM130 -60l123 -124l-128 -134l-116 123z" />
    <glyph glyph-name="uniFB77" unicode="&#x683;" horiz-adv-x="1498" arabic-form="final" 
d="M1122 328q0 -22 6 -64q11 -76 48 -86q47 -12 182 -12h81h91v-166h-91q-219 0 -288 70q-84 86 -84 236q0 2 -1 2h-1q-25 0 -391 -309q-378 -319 -378 -651q0 -253 213 -301q120 -27 229 -27q102 0 215 19q148 25 282 25q43 0 80 -4q147 -50 147 -92q0 -20 -14 -24
q-4 -1 -45 -30q-24 -17 -49 -102q-82 79 -118 79h-1q0 -3 -12 -3q-21 0 -287 -42q-50 -8 -124 -8q-45 0 -154 8q-92 7 -143 16q-127 36 -173 68q-167 80 -167 375q26 424 695 994q-207 -31 -391 -31q-32 0 -60 1q-178 5 -359 12q14 50 131 203q103 -36 280 -36q290 0 416 14
q164 18 369 56q-35 -90 -63 -115q-23 -21 -36 -33q-35 -34 -35 -42zM1005 -301l123 -124l-128 -134l-116 123zM735 -299l123 -124l-128 -134l-116 123z" />
    <glyph glyph-name="uniFB78" unicode="&#x683;" horiz-adv-x="1292" arabic-form="initial" 
d="M161 0h-161v166l134 6l122 43l158 87q-120 45 -158 70q-63 42 -186 107l102 189q381 -166 603 -166h22q218 0 451 105q-107 -128 -150 -170l-505 -256l-268 -99q-164 -76 -164 -82zM769 -86l123 -124l-128 -134l-116 123zM499 -85l123 -124l-128 -134l-116 123z" />
    <glyph glyph-name="uniFB79" unicode="&#x683;" horiz-adv-x="1265" arabic-form="medial" 
d="M868 318q39 -88 110 -121q73 -28 173 -31h51h53h47v-166h-109q-129 0 -235 119q-140 157 -149 174l-216 -112l-268 -99q-164 -76 -164 -82h-161v166l134 1l122 48l158 87q-120 45 -158 70q-63 42 -186 107l102 189q381 -166 603 -166h22q218 0 451 105
q-107 -128 -150 -170zM786 -86l123 -124l-128 -134l-116 123zM516 -85l123 -124l-128 -134l-116 123z" />
    <glyph glyph-name="uniFB73" unicode="&#x684;" horiz-adv-x="1508" arabic-form="final" 
d="M1122 328q0 -22 6 -64q11 -76 48 -86q47 -12 182 -12h81h91v-166h-91q-219 0 -288 70q-84 86 -84 236q0 2 -1 2h-1q-25 0 -391 -309q-378 -319 -378 -651q0 -253 213 -301q120 -27 229 -27q102 0 215 19q148 25 282 25q43 0 80 -4q147 -50 147 -92q0 -20 -14 -24
q-4 -1 -45 -30q-24 -17 -49 -102q-82 79 -118 79h-1q0 -3 -12 -3q-21 0 -287 -42q-50 -8 -124 -8q-45 0 -154 8q-92 7 -143 16q-127 36 -173 68q-167 80 -167 375q26 424 695 994q-207 -31 -391 -31q-32 0 -60 1q-178 5 -359 12q14 50 131 203q103 -36 280 -36q290 0 416 14
q164 18 369 56q-35 -90 -63 -115q-23 -21 -36 -33q-35 -34 -35 -42zM864 -141l123 -124l-128 -134l-116 123zM864 -417l123 -124l-128 -134l-116 123z" />
    <glyph glyph-name="uniFB74" unicode="&#x684;" horiz-adv-x="1275" arabic-form="initial" 
d="M161 0h-161v166l134 6l122 43l158 87q-120 45 -158 70q-63 42 -186 107l102 189q381 -166 603 -166h22q218 0 451 105q-107 -128 -150 -170l-505 -256l-268 -99q-164 -76 -164 -82zM663 -72l123 -124l-128 -134l-116 123zM663 -348l123 -124l-128 -134l-116 123z" />
    <glyph glyph-name="uniFB75" unicode="&#x684;" horiz-adv-x="1277" arabic-form="medial" 
d="M868 318q39 -88 110 -121q73 -28 173 -31h51h53h47v-166h-109q-129 0 -235 119q-140 157 -149 174l-216 -112l-268 -99q-164 -76 -164 -82h-161v166l134 1l122 48l158 87q-120 45 -158 70q-63 42 -186 107l102 189q381 -166 603 -166h22q218 0 451 105
q-107 -128 -150 -170zM649 -68l123 -124l-128 -134l-116 123zM649 -344l123 -124l-128 -134l-116 123z" />
    <glyph glyph-name="uniFB7B" unicode="&#x686;" horiz-adv-x="1496" arabic-form="final" 
d="M1122 328q0 -22 6 -64q11 -76 48 -86q47 -12 182 -12h81h91v-166h-91q-219 0 -288 70q-84 86 -84 236q0 2 -1 2h-1q-25 0 -391 -309q-378 -319 -378 -651q0 -253 213 -301q120 -27 229 -27q102 0 215 19q148 25 282 25q43 0 80 -4q147 -50 147 -92q0 -20 -14 -24
q-4 -1 -45 -30q-24 -17 -49 -102q-82 79 -118 79h-1q0 -3 -12 -3q-21 0 -287 -42q-50 -8 -124 -8q-45 0 -154 8q-92 7 -143 16q-127 36 -173 68q-167 80 -167 375q26 424 695 994q-207 -31 -391 -31q-32 0 -60 1q-178 5 -359 12q14 50 131 203q103 -36 280 -36q290 0 416 14
q164 18 369 56q-35 -90 -63 -115q-23 -21 -36 -33q-35 -34 -35 -42zM1039 -212l123 -124l-128 -134l-116 123zM769 -211l123 -124l-128 -134l-116 123zM902 -434l123 -124l-128 -134l-116 123z" />
    <glyph glyph-name="uniFB7C" unicode="&#x686;" horiz-adv-x="1281" arabic-form="initial" 
d="M161 0h-161v166l134 6l122 43l158 87q-120 45 -158 70q-63 42 -186 107l102 189q381 -166 603 -166h22q218 0 451 105q-107 -128 -150 -170l-505 -256l-268 -99q-164 -76 -164 -82zM800 -142l123 -124l-128 -134l-116 123zM530 -140l123 -124l-128 -134l-116 123z
M663 -364l123 -124l-128 -134l-116 123z" />
    <glyph glyph-name="uniFB7D" unicode="&#x686;" horiz-adv-x="1273" arabic-form="medial" 
d="M868 318q39 -88 110 -121q73 -28 173 -31h51h53h47v-166h-109q-129 0 -235 119q-140 157 -149 174l-216 -112l-268 -99q-164 -76 -164 -82h-161v166l134 1l122 48l158 87q-120 45 -158 70q-63 42 -186 107l102 189q381 -166 603 -166h22q218 0 451 105
q-107 -128 -150 -170zM790 -119l123 -124l-128 -134l-116 123zM520 -118l123 -124l-128 -134l-116 123zM654 -341l123 -124l-128 -134l-116 123z" />
    <glyph glyph-name="uniFB7F" unicode="&#x687;" horiz-adv-x="1512" arabic-form="final" 
d="M1122 328q0 -22 6 -64q11 -76 48 -86q47 -12 182 -12h81h91v-166h-91q-219 0 -288 70q-84 86 -84 236q0 2 -1 2h-1q-25 0 -391 -309q-378 -319 -378 -651q0 -253 213 -301q120 -27 229 -27q102 0 215 19q148 25 282 25q43 0 80 -4q147 -50 147 -92q0 -20 -14 -24
q-4 -1 -45 -30q-24 -17 -49 -102q-82 79 -118 79h-1q0 -3 -12 -3q-21 0 -287 -42q-50 -8 -124 -8q-45 0 -154 8q-92 7 -143 16q-127 36 -173 68q-167 80 -167 375q26 424 695 994q-207 -31 -391 -31q-32 0 -60 1q-178 5 -359 12q14 50 131 203q103 -36 280 -36q290 0 416 14
q164 18 369 56q-35 -90 -63 -115q-23 -21 -36 -33q-35 -34 -35 -42zM1024 -156l123 -124l-128 -134l-116 123zM754 -154l123 -124l-128 -134l-116 123zM1024 -432l123 -124l-128 -134l-116 123zM754 -430l123 -124l-128 -134l-116 123z" />
    <glyph glyph-name="uniFB80" unicode="&#x687;" horiz-adv-x="1283" arabic-form="initial" 
d="M161 0h-161v166l134 6l122 43l158 87q-120 45 -158 70q-63 42 -186 107l102 189q381 -166 603 -166h22q218 0 451 105q-107 -128 -150 -170l-505 -256l-268 -99q-164 -76 -164 -82zM790 -130l123 -124l-128 -134l-116 123zM520 -128l123 -124l-128 -134l-116 123z
M790 -406l123 -124l-128 -134l-116 123zM520 -404l123 -124l-128 -134l-116 123z" />
    <glyph glyph-name="uniFB81" unicode="&#x687;" horiz-adv-x="1284" arabic-form="medial" 
d="M868 318q39 -88 110 -121q73 -28 173 -31h51h53h47v-166h-109q-129 0 -235 119q-140 157 -149 174l-216 -112l-268 -99q-164 -76 -164 -82h-161v166l134 1l122 48l158 87q-120 45 -158 70q-63 42 -186 107l102 189q381 -166 603 -166h22q218 0 451 105
q-107 -128 -150 -170zM822 -128l123 -124l-128 -134l-116 123zM552 -127l123 -124l-128 -134l-116 123zM822 -404l123 -124l-128 -134l-116 123zM552 -403l123 -124l-128 -134l-116 123z" />
    <glyph glyph-name="uniFB89" unicode="&#x688;" horiz-adv-x="905" arabic-form="final" 
d="M480.366 1611.86q40.8965 -51.3525 40.8965 -130.181q0 -20.2793 -3.05957 -59.6934q-3.05859 -39.4141 -3.05859 -59.6934q0 -51.0254 12.2363 -91.584q26.084 23.5498 63.4385 65.7441q19.6436 21.915 30.9141 21.915q9.66113 0 32.8467 -14.7188l66.3359 -41.8672
q-21.2539 -109.901 -132.029 -137.704q-35.4219 -16.6816 -129.452 -31.0732q-41.2188 9.48535 -76.6416 22.8965q-57.9629 22.5684 -57.9629 42.5215q0 3.59766 0.96582 6.54102q21.8975 -9.8125 145.554 -9.8125q12.5586 13.7383 12.5586 84.7158
q0 73.5947 -11.2705 165.833q-11.5928 91.585 -24.1514 111.21zM592.43 1298.51q-11.2715 -16.3535 -42.8291 -48.4082q-30.9141 -30.7461 -41.541 -48.082q31.2363 0.981445 87.9121 21.2607q61.8281 22.8955 63.7607 23.2227q-26.084 33.3633 -67.3027 52.0068zM551 946h1
q24 0 62 -126q38 -124 103 -437q30 -145 138 -217h90v-166h-89q-87 0 -144 85q-27 40 -73 147q-82 -157 -131 -167q-29 -6 -267 -81q-120 -38 -182 -109q-14 16 -16 51v4q0 25 10 64q14 54 16 70q120 101 240 117q216 28 289 90v11q0 161 -132 493z" />
    <glyph glyph-name="uniFB85" unicode="&#x68c;" horiz-adv-x="927" arabic-form="final" 
d="M551 946h1q24 0 62 -126q38 -124 103 -437q30 -145 138 -217h90v-166h-89q-87 0 -144 85q-27 40 -73 147q-82 -157 -131 -167q-29 -6 -267 -81q-120 -38 -182 -109q-14 16 -16 51v4q0 25 10 64q14 54 16 70q120 101 240 117q216 28 289 90v11q0 161 -132 493zM675 1355
l123 -124l-128 -134l-116 123zM405 1356l123 -124l-128 -134l-116 123z" />
    <glyph glyph-name="uniFB83" unicode="&#x68d;" horiz-adv-x="928" arabic-form="final" 
d="M551 946h1q24 0 62 -126q38 -124 103 -437q30 -145 138 -217h90v-166h-89q-87 0 -144 85q-27 40 -73 147q-82 -157 -131 -167q-29 -6 -267 -81q-120 -38 -182 -109q-14 16 -16 51v4q0 25 10 64q14 54 16 70q120 101 240 117q216 28 289 90v11q0 161 -132 493zM502 -219
l123 -124l-128 -134l-116 123zM232 -218l123 -124l-128 -134l-116 123z" />
    <glyph glyph-name="uniFB87" unicode="&#x68e;" horiz-adv-x="925" arabic-form="final" 
d="M551 946h1q24 0 62 -126q38 -124 103 -437q30 -145 138 -217h90v-166h-89q-87 0 -144 85q-27 40 -73 147q-82 -157 -131 -167q-29 -6 -267 -81q-120 -38 -182 -109q-14 16 -16 51v4q0 25 10 64q14 54 16 70q120 101 240 117q216 28 289 90v11q0 161 -132 493zM682 1308
l123 -124l-128 -134l-116 123zM412 1309l123 -124l-128 -134l-116 123zM547 1553l123 -124l-128 -134l-116 123z" />
    <glyph glyph-name="uniFB8D" unicode="&#x691;" horiz-adv-x="852" arabic-form="final" 
d="M523.366 1040.86q40.8965 -51.3525 40.8965 -130.181q0 -20.2793 -3.05957 -59.6934q-3.05859 -39.4141 -3.05859 -59.6934q0 -51.0254 12.2363 -91.584q26.084 23.5498 63.4385 65.7441q19.6436 21.915 30.9141 21.915q9.66113 0 32.8467 -14.7188l66.3359 -41.8672
q-21.2539 -109.901 -132.029 -137.704q-35.4219 -16.6816 -129.452 -31.0732q-41.2188 9.48535 -76.6416 22.8965q-57.9629 22.5684 -57.9629 42.5215q0 3.59766 0.96582 6.54102q21.8975 -9.8125 145.554 -9.8125q12.5586 13.7383 12.5586 84.7158
q0 73.5947 -11.2705 165.833q-11.5928 91.585 -24.1514 111.21zM635.43 727.506q-11.2715 -16.3535 -42.8291 -48.4082q-30.9141 -30.7461 -41.541 -48.082q31.2363 0.981445 87.9121 21.2607q61.8281 22.8955 63.7607 23.2227q-26.084 33.3633 -67.3027 52.0068zM788 25
q-2 -10 -12 -44q-80 -263 -422 -475q-179 -111 -308 -149q-1 1 -1 5q5 40 11 73q9 48 24 96q534 223 645 469l-125 181q10 81 61 172q13 -4 78 -105q49 -82 99 -82h32v-166h-30q-11 0 -25 13q-25 23 -27 12z" />
    <glyph glyph-name="uniFB8B" unicode="&#x698;" horiz-adv-x="862" arabic-form="final" 
d="M788 25q-2 -10 -12 -44q-80 -263 -422 -475q-179 -111 -308 -149q-1 1 -1 5q5 40 11 73q9 48 24 96q534 223 645 469l-125 181q10 81 61 172q13 -4 78 -105q49 -82 99 -82h32v-166h-30q-11 0 -25 13q-25 23 -27 12zM738 756l123 -124l-128 -134l-116 123zM468 757
l123 -124l-128 -134l-116 123zM602 1000l123 -124l-128 -134l-116 123z" />
    <glyph glyph-name="uniFB6B" unicode="&#x6a4;" horiz-adv-x="2060" arabic-form="final" 
d="M867 169q252 0 481 12q210 11 222 25q-4 44 -4 84q1 268 167 384q180 -30 216 -130q26 -73 26 -138q0 -131 -117 -216q61 -24 114 -24h108v-166h-106q-62 0 -252 60q-198 -45 -812 -56q-218 -4 -624 -20q-150 22 -188 74t-38 143v5q0 145 75 206q9 -222 161 -236z
M1701 270q138 24 138 84v27q0 108 -99 111q-52 -52 -52 -133q0 -41 13 -89zM1903 1052l123 -124l-128 -134l-116 123zM1633 1054l123 -124l-128 -134l-116 123zM1768 1297l123 -124l-128 -134l-116 123z" />
    <glyph glyph-name="uniFB6C" unicode="&#x6a4;" horiz-adv-x="570" arabic-form="initial" 
d="M395 293q-12 87 -46 126q-31 -48 -95 -84q-65 -37 -121 -37h-8q-78 0 -95 82q67 244 208 419q66 -62 189 -241q73 -106 95 -206q6 -27 6 -53q-4 -217 -403 -299h-79h-46v166h47q180 0 348 127zM206 590l-64 -116q23 -7 36 -10q28 -6 49 -6q53 0 53 34q0 36 -74 98z
M270 1394l123 -124l-128 -134l-116 123zM406 1149l123 -124l-128 -134l-116 123zM136 1150l123 -124l-128 -134l-116 123z" />
    <glyph glyph-name="uniFB6D" unicode="&#x6a4;" horiz-adv-x="601" arabic-form="medial" 
d="M82 0h-82v166h95l25 40q-4 43 -4 82q3 271 167 386q185 -30 216 -130q22 -72 22 -133q-1 -139 -112 -221q64 -24 114 -24h107v-166h-106q-62 0 -252 60zM251 270q66 11 101 32q39 23 39 72q0 114 -99 118q-27 -26 -38 -54q-16 -40 -16 -75v-4q0 -22 6 -56q1 -7 7 -33z
M304 1314l123 -124l-128 -134l-116 123zM440 1069l123 -124l-128 -134l-116 123zM170 1070l123 -124l-128 -134l-116 123z" />
    <glyph glyph-name="uniFB6F" unicode="&#x6a6;" horiz-adv-x="2060" arabic-form="final" 
d="M867 169q252 0 481 12q210 11 222 25q-4 44 -4 84q1 268 167 384q180 -30 216 -130q26 -73 26 -138q0 -131 -117 -216q61 -24 114 -24h108v-166h-106q-62 0 -252 60q-198 -45 -812 -56q-218 -4 -624 -20q-150 22 -188 74t-38 143v5q0 145 75 206q9 -222 161 -236z
M1701 270q138 24 138 84v27q0 108 -99 111q-52 -52 -52 -133q0 -41 13 -89zM1870 1390l123 -124l-128 -134l-116 123zM1600 1391l123 -124l-128 -134l-116 123zM1870 1114l123 -124l-128 -134l-116 123zM1600 1115l123 -124l-128 -134l-116 123z" />
    <glyph glyph-name="uniFB70" unicode="&#x6a6;" horiz-adv-x="565" arabic-form="initial" 
d="M395 293q-12 87 -46 126q-31 -48 -95 -84q-65 -37 -121 -37h-8q-78 0 -95 82q67 244 208 419q66 -62 189 -241q73 -106 95 -206q6 -27 6 -53q-4 -217 -403 -299h-79h-46v166h47q180 0 348 127zM206 590l-64 -116q23 -7 36 -10q28 -6 49 -6q53 0 53 34q0 36 -74 98z
M413 1142l123 -124l-128 -134l-116 123zM143 1143l123 -124l-128 -134l-116 123zM413 1418l123 -124l-128 -134l-116 123zM143 1419l123 -124l-128 -134l-116 123z" />
    <glyph glyph-name="uniFB71" unicode="&#x6a6;" horiz-adv-x="609" arabic-form="medial" 
d="M82 0h-82v166h95l25 40q-4 43 -4 82q3 271 167 386q185 -30 216 -130q22 -72 22 -133q-1 -139 -112 -221q64 -24 114 -24h107v-166h-106q-62 0 -252 60zM251 270q66 11 101 32q39 23 39 72q0 114 -99 118q-27 -26 -38 -54q-16 -40 -16 -75v-4q0 -22 6 -56q1 -7 7 -33z
M440 1079l123 -124l-128 -134l-116 123zM170 1080l123 -124l-128 -134l-116 123zM440 1355l123 -124l-128 -134l-116 123zM170 1356l123 -124l-128 -134l-116 123z" />
    <glyph glyph-name="uniFB8F" unicode="&#x6a9;" horiz-adv-x="2147" arabic-form="final" 
d="M1682 331q186 -165 434 -165h50v-166h-47q-223 0 -296 32q-162 71 -232 144q-145 -69 -372 -117q-280 -59 -540 -59q-608 0 -619 197l36 224q85 29 116 33l-12 -74q-2 -13 -2 -24q2 -182 480 -182h29q175 0 422 53l295 80q-10 34 -114 175q-78 105 -108 194q5 81 60 192
q65 131 82 183q131 31 394 154q289 135 362 211q24 0 24 -23q0 -18 -43 -107l-51 -103q-137 -81 -212 -117q-110 -53 -498 -219q23 -78 55 -143q36 -74 90 -139q56 -67 90 -105q97 -108 127 -129z" />
    <glyph glyph-name="uniFB90" unicode="&#x6a9;" horiz-adv-x="1002" arabic-form="initial" 
d="M37 166q115 10 207 81q-17 46 -110 175q-85 118 -111 194q2 84 59 190q66 140 80 185q131 31 396 155q288 131 361 212q22 0 22 -24q0 -30 -40 -109l-51 -102q-129 -75 -216 -115q-114 -58 -494 -220q46 -158 141 -279q147 -192 195 -226q-3 -39 -22 -153
q-155 -88 -302 -130h-152v166h37z" />
    <glyph glyph-name="uniFB91" unicode="&#x6a9;" horiz-adv-x="992" arabic-form="medial" 
d="M454 130q-155 -88 -302 -130h-152v166h37q129 10 214 81q-15 46 -109 175q-86 118 -112 194q6 84 61 190q66 140 81 185q129 31 393 155q289 131 365 212q20 0 20 -24q0 -30 -40 -109l-51 -102q-129 -75 -213 -115q-118 -58 -498 -220q33 -120 145 -279
q111 -174 179 -233q127 -110 325 -110h218v-166h-218q-76 0 -222 40q-65 16 -121 90z" />
    <glyph glyph-name="uniFBD4" unicode="&#x6ad;" horiz-adv-x="1831" arabic-form="final" 
d="M594 1802l123 -124l-128 -134l-116 123zM730 1557l123 -124l-128 -134l-116 123zM460 1558l123 -124l-128 -134l-116 123zM1554 134l-464 -85l-457 -49q-79 -6 -140 -6t-103 6q-176 25 -198 59q-134 150 -134 304q0 65 24 131q4 11 73 182q24 -51 29 -136
q-10 -39 -10 -77q1 -128 164 -246q54 -39 237 -43l400 29l393 54l104 41l-35 156q-19 71 -130 458q-96 333 -96 377l45 137q130 -107 444 -1115q28 -90 88 -90h56v-221h-53q-157 0 -237 134zM882.5 818q-20.5 -46 -41 -76.5t-47.5 -55t-59 -51.5l-314 -27q21 23 59 45.5
t81 42t86 40t75.5 35t57.5 30.5q-52 31 -83.5 54.5t-49 42t-22.5 37t-5 38.5q0 27 13.5 61.5t34 71.5t51 71t65.5 58q-2 -4 -2 -18v-8v-11q-21 -30 -38.5 -60t-37.5 -63l-6 -20q22 -16 45.5 -23.5t56.5 -12.5t60 -9q63 -21 63 -78q-22 -68 -42.5 -114z" />
    <glyph glyph-name="uniFBD5" unicode="&#x6ad;" horiz-adv-x="995" arabic-form="initial" 
d="M37 166q115 10 207 81q-17 46 -110 175q-85 118 -111 194q2 84 59 190q66 140 80 185q131 31 396 155q288 131 361 212q22 0 22 -24q0 -30 -40 -109l-51 -102q-129 -75 -216 -115q-114 -58 -494 -220q46 -158 141 -279q147 -192 195 -226q-3 -39 -22 -153
q-155 -88 -302 -130h-152v166h37zM356 1781l123 -124l-128 -134l-116 123zM492 1536l123 -124l-128 -134l-116 123zM222 1537l123 -124l-128 -134l-116 123z" />
    <glyph glyph-name="uniFBD6" unicode="&#x6ad;" horiz-adv-x="990" arabic-form="medial" 
d="M454 130q-155 -88 -302 -130h-152v166h37q129 10 214 81q-15 46 -109 175q-86 118 -112 194q6 84 61 190q66 140 81 185q129 31 393 155q289 131 365 212q20 0 20 -24q0 -30 -40 -109l-51 -102q-129 -75 -213 -115q-118 -58 -498 -220q33 -120 145 -279
q111 -174 179 -233q127 -110 325 -110h218v-166h-218q-76 0 -222 40q-65 16 -121 90zM384 1761l123 -124l-128 -134l-116 123zM520 1516l123 -124l-128 -134l-116 123zM250 1517l123 -124l-128 -134l-116 123z" />
    <glyph glyph-name="uniFB93" unicode="&#x6af;" horiz-adv-x="2148" arabic-form="final" 
d="M2016 1455q-366 -200 -761 -355q0 36 75 220q131 34 394 154q281 128 361 214q24 0 24 -25q0 -26 -42 -106zM1682 331q186 -165 434 -165h50v-166h-47q-223 0 -296 32q-162 71 -232 144q-145 -69 -372 -117q-280 -59 -540 -59q-608 0 -619 197l36 224q85 29 116 33
l-12 -74q-2 -13 -2 -24q2 -182 480 -182h29q175 0 422 53l295 80q-10 34 -114 175q-78 105 -108 194q5 81 60 192q65 131 82 183q131 31 394 154q289 135 362 211q24 0 24 -23q0 -18 -43 -107l-51 -103q-137 -81 -212 -117q-110 -53 -498 -219q23 -78 55 -143
q36 -74 90 -139q56 -67 90 -105q97 -108 127 -129z" />
    <glyph glyph-name="uniFB94" unicode="&#x6af;" horiz-adv-x="993" arabic-form="initial" 
d="M814 1403q-366 -200 -761 -355q0 36 75 220q131 34 394 154q281 128 361 214q24 0 24 -25q0 -26 -42 -106zM37 166q115 10 207 81q-17 46 -110 175q-85 118 -111 194q2 84 59 190q66 140 80 185q131 31 396 155q288 131 361 212q22 0 22 -24q0 -30 -40 -109l-51 -102
q-129 -75 -216 -115q-114 -58 -494 -220q46 -158 141 -279q147 -192 195 -226q-3 -39 -22 -153q-155 -88 -302 -130h-152v166h37z" />
    <glyph glyph-name="uniFB95" unicode="&#x6af;" horiz-adv-x="1004" arabic-form="medial" 
d="M818 1389q-366 -200 -761 -355q0 36 75 220q131 34 394 154q281 128 361 214q24 0 24 -25q0 -26 -42 -106zM454 130q-155 -88 -302 -130h-152v166h37q129 10 214 81q-15 46 -109 175q-86 118 -112 194q6 84 61 190q66 140 81 185q129 31 393 155q289 131 365 212
q20 0 20 -24q0 -30 -40 -109l-51 -102q-129 -75 -213 -115q-118 -58 -498 -220q33 -120 145 -279q111 -174 179 -233q127 -110 325 -110h218v-166h-218q-76 0 -222 40q-65 16 -121 90z" />
    <glyph glyph-name="uniFB9B" unicode="&#x6b1;" horiz-adv-x="2145" arabic-form="final" 
d="M2016 1455q-366 -200 -761 -355q0 36 75 220q131 34 394 154q281 128 361 214q24 0 24 -25q0 -26 -42 -106zM1682 331q186 -165 434 -165h50v-166h-47q-223 0 -296 32q-162 71 -232 144q-145 -69 -372 -117q-280 -59 -540 -59q-608 0 -619 197l36 224q85 29 116 33
l-12 -74q-2 -13 -2 -24q2 -182 480 -182h29q175 0 422 53l295 80q-10 34 -114 175q-78 105 -108 194q5 81 60 192q65 131 82 183q131 31 394 154q289 135 362 211q24 0 24 -23q0 -18 -43 -107l-51 -103q-137 -81 -212 -117q-110 -53 -498 -219q23 -78 55 -143
q36 -74 90 -139q56 -67 90 -105q97 -108 127 -129zM1593 1828l123 -124l-128 -134l-116 123zM1323 1829l123 -124l-128 -134l-116 123z" />
    <glyph glyph-name="uniFB9C" unicode="&#x6b1;" horiz-adv-x="1016" arabic-form="initial" 
d="M814 1403q-366 -200 -761 -355q0 36 75 220q131 34 394 154q281 128 361 214q24 0 24 -25q0 -26 -42 -106zM37 166q115 10 207 81q-17 46 -110 175q-85 118 -111 194q2 84 59 190q66 140 80 185q131 31 396 155q288 131 361 212q22 0 22 -24q0 -30 -40 -109l-51 -102
q-129 -75 -216 -115q-114 -58 -494 -220q46 -158 141 -279q147 -192 195 -226q-3 -39 -22 -153q-155 -88 -302 -130h-152v166h37zM512 1833l123 -124l-128 -134l-116 123zM242 1834l123 -124l-128 -134l-116 123z" />
    <glyph glyph-name="uniFB9D" unicode="&#x6b1;" horiz-adv-x="984" arabic-form="medial" 
d="M818 1389q-366 -200 -761 -355q0 36 75 220q131 34 394 154q281 128 361 214q24 0 24 -25q0 -26 -42 -106zM454 130q-155 -88 -302 -130h-152v166h37q129 10 214 81q-15 46 -109 175q-86 118 -112 194q6 84 61 190q66 140 81 185q129 31 393 155q289 131 365 212
q20 0 20 -24q0 -30 -40 -109l-51 -102q-129 -75 -213 -115q-118 -58 -498 -220q33 -120 145 -279q111 -174 179 -233q127 -110 325 -110h218v-166h-218q-76 0 -222 40q-65 16 -121 90zM481 1823l123 -124l-128 -134l-116 123zM211 1824l123 -124l-128 -134l-116 123z" />
    <glyph glyph-name="uniFB97" unicode="&#x6b3;" horiz-adv-x="2148" arabic-form="final" 
d="M2016 1455q-366 -200 -761 -355q0 36 75 220q131 34 394 154q281 128 361 214q24 0 24 -25q0 -26 -42 -106zM1682 331q186 -165 434 -165h50v-166h-47q-223 0 -296 32q-162 71 -232 144q-145 -69 -372 -117q-280 -59 -540 -59q-608 0 -619 197l36 224q85 29 116 33
l-12 -74q-2 -13 -2 -24q2 -182 480 -182h29q175 0 422 53l295 80q-10 34 -114 175q-78 105 -108 194q5 81 60 192q65 131 82 183q131 31 394 154q289 135 362 211q24 0 24 -23q0 -18 -43 -107l-51 -103q-137 -81 -212 -117q-110 -53 -498 -219q23 -78 55 -143
q36 -74 90 -139q56 -67 90 -105q97 -108 127 -129zM1353 -59l123 -124l-128 -134l-116 123zM1353 -335l123 -124l-128 -134l-116 123z" />
    <glyph glyph-name="uniFB98" unicode="&#x6b3;" horiz-adv-x="1002" arabic-form="initial" 
d="M814 1403q-366 -200 -761 -355q0 36 75 220q131 34 394 154q281 128 361 214q24 0 24 -25q0 -26 -42 -106zM37 166q115 10 207 81q-17 46 -110 175q-85 118 -111 194q2 84 59 190q66 140 80 185q131 31 396 155q288 131 361 212q22 0 22 -24q0 -30 -40 -109l-51 -102
q-129 -75 -216 -115q-114 -58 -494 -220q46 -158 141 -279q147 -192 195 -226q-3 -39 -22 -153q-155 -88 -302 -130h-152v166h37zM156 -101l123 -124l-128 -134l-116 123zM156 -377l123 -124l-128 -134l-116 123z" />
    <glyph glyph-name="uniFB99" unicode="&#x6b3;" horiz-adv-x="986" arabic-form="medial" 
d="M818 1389q-366 -200 -761 -355q0 36 75 220q131 34 394 154q281 128 361 214q24 0 24 -25q0 -26 -42 -106zM454 130q-155 -88 -302 -130h-152v166h37q129 10 214 81q-15 46 -109 175q-86 118 -112 194q6 84 61 190q66 140 81 185q129 31 393 155q289 131 365 212
q20 0 20 -24q0 -30 -40 -109l-51 -102q-129 -75 -213 -115q-118 -58 -498 -220q33 -120 145 -279q111 -174 179 -233q127 -110 325 -110h218v-166h-218q-76 0 -222 40q-65 16 -121 90zM170 -95l123 -124l-128 -134l-116 123zM170 -371l123 -124l-128 -134l-116 123z" />
    <glyph glyph-name="uniFB9F" unicode="&#x6ba;" horiz-adv-x="952" arabic-form="final" 
d="M884 16l16 -48q9 -29 9 -72q0 -56 -23 -137q-19 -67 -89 -150q-80 -93 -143 -131q-40 -24 -170 -68q-89 -30 -123 -30q-4 0 -9 1q-74 15 -170 71q-64 38 -94 88q-35 57 -46 149q-6 48 -6 93q0 71 6 133q8 83 38 176q9 28 40 28h10q0 -13 -12 -169q-3 -39 -3 -67t3 -52
q9 -69 71 -151q36 -48 101 -68q41 -13 85 -13q15 0 44 3q88 9 177 37q40 13 102 50q117 71 127 89q6 11 6 22q0 26 -22 66q-25 46 -80 109l-66 57q0 156 35 195q10 10 14 10q2 0 5 -2l43 -32q48 -37 164 -37h46v-166h-44q-28 4 -42 16z" />
    <glyph glyph-name="uniFBA1" unicode="&#x6bb;" horiz-adv-x="944" arabic-form="final" 
d="M346.366 824.855q40.8965 -51.3525 40.8965 -130.181q0 -20.2793 -3.05957 -59.6934q-3.05859 -39.4141 -3.05859 -59.6934q0 -51.0254 12.2363 -91.584q26.084 23.5498 63.4385 65.7441q19.6436 21.915 30.9141 21.915q9.66113 0 32.8467 -14.7188l66.3359 -41.8672
q-21.2539 -109.901 -132.029 -137.704q-35.4219 -16.6816 -129.452 -31.0732q-41.2188 9.48535 -76.6416 22.8965q-57.9629 22.5684 -57.9629 42.5215q0 3.59766 0.96582 6.54102q21.8975 -9.8125 145.554 -9.8125q12.5586 13.7383 12.5586 84.7158
q0 73.5947 -11.2705 165.833q-11.5928 91.585 -24.1514 111.21zM458.43 511.506q-11.2715 -16.3535 -42.8291 -48.4082q-30.9141 -30.7461 -41.541 -48.082q31.2363 0.981445 87.9121 21.2607q61.8281 22.8955 63.7607 23.2227q-26.084 33.3633 -67.3027 52.0068zM884 16
l16 -48q9 -29 9 -72q0 -56 -23 -137q-19 -67 -89 -150q-80 -93 -143 -131q-40 -24 -170 -68q-89 -30 -123 -30q-4 0 -9 1q-74 15 -170 71q-64 38 -94 88q-35 57 -46 149q-6 48 -6 93q0 71 6 133q8 83 38 176q9 28 40 28h10q0 -13 -12 -169q-3 -39 -3 -67t3 -52
q9 -69 71 -151q36 -48 101 -68q41 -13 85 -13q15 0 44 3q88 9 177 37q40 13 102 50q117 71 127 89q6 11 6 22q0 26 -22 66q-25 46 -80 109l-66 57q0 156 35 195q10 10 14 10q2 0 5 -2l43 -32q48 -37 164 -37h46v-166h-44q-28 4 -42 16z" />
    <glyph glyph-name="uniFBA2" unicode="&#x6bb;" horiz-adv-x="522" arabic-form="initial" 
d="M171.366 1128.86q40.8965 -51.3525 40.8965 -130.181q0 -20.2793 -3.05957 -59.6934q-3.05859 -39.4141 -3.05859 -59.6934q0 -51.0254 12.2363 -91.584q26.084 23.5498 63.4385 65.7441q19.6436 21.915 30.9141 21.915q9.66113 0 32.8467 -14.7188l66.3359 -41.8672
q-21.2539 -109.901 -132.029 -137.704q-35.4219 -16.6816 -129.452 -31.0732q-41.2188 9.48535 -76.6416 22.8965q-57.9629 22.5684 -57.9629 42.5215q0 3.59766 0.96582 6.54102q21.8975 -9.8125 145.554 -9.8125q12.5586 13.7383 12.5586 84.7158
q0 73.5947 -11.2705 165.833q-11.5928 91.585 -24.1514 111.21zM283.43 815.506q-11.2715 -16.3535 -42.8291 -48.4082q-30.9141 -30.7461 -41.541 -48.082q31.2363 0.981445 87.9121 21.2607q61.8281 22.8955 63.7607 23.2227q-26.084 33.3633 -67.3027 52.0068zM119 0
h-119v166h125q42 0 105 64q-33 51 -33 62q0 124 54 182q29 2 30 -2q26 -81 107 -196q-72 -276 -269 -276z" />
    <glyph glyph-name="uniFBA3" unicode="&#x6bb;" horiz-adv-x="523" arabic-form="medial" 
d="M171.366 1128.86q40.8965 -51.3525 40.8965 -130.181q0 -20.2793 -3.05957 -59.6934q-3.05859 -39.4141 -3.05859 -59.6934q0 -51.0254 12.2363 -91.584q26.084 23.5498 63.4385 65.7441q19.6436 21.915 30.9141 21.915q9.66113 0 32.8467 -14.7188l66.3359 -41.8672
q-21.2539 -109.901 -132.029 -137.704q-35.4219 -16.6816 -129.452 -31.0732q-41.2188 9.48535 -76.6416 22.8965q-57.9629 22.5684 -57.9629 42.5215q0 3.59766 0.96582 6.54102q21.8975 -9.8125 145.554 -9.8125q12.5586 13.7383 12.5586 84.7158
q0 73.5947 -11.2705 165.833q-11.5928 91.585 -24.1514 111.21zM283.43 815.506q-11.2715 -16.3535 -42.8291 -48.4082q-30.9141 -30.7461 -41.541 -48.082q31.2363 0.981445 87.9121 21.2607q61.8281 22.8955 63.7607 23.2227q-26.084 33.3633 -67.3027 52.0068zM229 404
q41 6 67 6q37 0 39 -13q7 -47 47 -146q31 -77 61 -85h96v-166h-90q-14 0 -63 25q-73 37 -93 79l-17 -19q-4 -19 -55 -55q-43 -30 -49 -30h-172v166h124q24 0 105 238z" />
    <glyph glyph-name="uniFBAB" unicode="&#x6be;" horiz-adv-x="974" arabic-form="final" 
d="M813 364q103 -52 103 -137q0 -12 -4 -25q-5 -26 15 -36h55v-166h-55q-33 0 -109 54q-29 -24 -37 -31q-145 -82 -340 -82q-42 0 -85 3q-48 12 -94 12q-144 0 -228 -113q-1 6 -1 14q0 61 79 153q88 100 173 100q10 0 19 -1q24 187 197 298q13 55 49 133q68 -77 263 -176z
M456 271l-83 -91l36 -64q123 32 123 92q0 43 -76 63zM652 260l-102 -154q142 13 198 42q33 14 48 42q-70 16 -144 70z" />
    <glyph glyph-name="uniFBAC" unicode="&#x6be;" horiz-adv-x="667" arabic-form="initial" 
d="M124 19q-82 -19 -124 -19v166h42v42q0 117 124 246l10 80q14 48 30 79l16 -49q232 -46 384 -197q19 -51 19 -97q0 -89 -85 -164q-270 -81 -416 -87zM352 331v-3q0 -4 -1 -23l-4 -36q-12 -51 -12 -54q0 -8 50 -8h22q46 0 69 44q-8 37 -124 80zM142 317q-23 -31 -26 -66
q76 -48 105 -48q18 0 17 19q-1 28 -32 89q-25 6 -64 6z" />
    <glyph glyph-name="uniFBAD" unicode="&#x6be;" horiz-adv-x="470" arabic-form="medial" 
d="M449 0q-40 0 -69 -8q0 -29 -55 -102l-81 -112q-138 7 -165 16q-56 19 -56 130q0 30 7 76h-30v166h36q13 96 14 96l29 90q27 79 37 98q18 34 80 174q145 -109 170 -257q34 -202 69 -202l34 1h19v-166h-39zM159 189q66 -26 94 -26q12 0 13 10q1 13 1 50v28q0 129 -58 144z
M244 -70q1 6 1 9q0 25 -45 57q-42 30 -68 30q-4 0 -7 -1q-15 -15 -15 -30q0 -14 10 -27t30 -23q15 -8 28 -10q32 -6 51 -6h4q6 0 11 1z" />
    <glyph glyph-name="uniFBA5" unicode="&#x6c0;" horiz-adv-x="619" arabic-form="final" 
d="M272.438 1088.02l-19.8477 -58.0977l-104.651 -48.8223l46.3115 -7.81152h34.2822l40.8975 1.95312l46.9131 9.27637l58.3389 16.1113l-15.0361 -39.5459l-19.2461 -17.5762l-95.6289 -41.0107l-209.902 -103.015l16.8398 59.5635l96.2305 55.1689l-37.8906 6.83496
l-19.8477 10.7402l16.8408 73.2334l71.5713 43.9395zM412 170q-62 -102 -190 -102q-52 0 -102 20q-90 36 -90 144q0 61 30 120q127 28 217 110q102 88 102 198q0 11 -1 23q71 -17 71 -166v-41l-1 -39q0 -124 25 -172q48 -79 84 -99h91v-166h-112q-2 0 -54 32q-70 44 -70 138
zM182 238q48 -27 84 -27q41 0 70 31q19 28 19 71q0 25 -7 53q-20 -55 -166 -128z" />
    <glyph glyph-name="uniFBA7" unicode="&#x6c1;" horiz-adv-x="490" arabic-form="final" 
d="M500 166v-166h-44h-49q-25 4 -42 13q-25 14 -48 37q-31 31 -40 47q-9 18 -21 23q-20 9 -30 4q-13 -7 -52 -42q-13 -12 -51 -52q-35 -37 -48 -53q-22 -27 -37 -51q-9 -15 -14 -26l-1 46q1 5 9 38q8 31 24 70q28 52 63 89l55 63q2 2 76 45l83 51q17 -45 74 -99
q16 -15 71 -37h22z" />
    <glyph glyph-name="uniFBA8" unicode="&#x6c1;" horiz-adv-x="412" arabic-form="initial" 
d="M210.977 -658.15q-97.1084 0 -148.588 107.668q-36.2695 75.4795 -36.2695 136.528q0 36.6299 8.19043 71.0391q29.249 123.209 99.4482 185.368q17.5498 15.5391 62.0088 42.1797q31.5898 18.8691 70.1992 32.1895h32.7598q-51.4795 -18.8701 -98.2783 -79.9189
q-50.3096 -65.4893 -60.8398 -126.539l-5.84961 -32.1895q-2.33984 -13.3193 -2.33984 -17.7598q0 -12.21 2.33984 -23.3096q5.84961 -28.8594 19.8896 -62.1592l88.9189 21.0898q111.148 -14.4297 111.148 -149.848v-2.2207q-26.9102 -102.118 -142.738 -102.118zM119 0
h-119v166h125q42 0 105 64q-33 51 -33 62q0 124 54 182q29 2 30 -2q26 -81 107 -196q-72 -276 -269 -276z" />
    <glyph glyph-name="uniFBA9" unicode="&#x6c1;" horiz-adv-x="801" arabic-form="medial" 
d="M396.977 -1013.15q-97.1084 0 -148.588 107.668q-36.2695 75.4795 -36.2695 136.528q0 36.6299 8.19043 71.0391q29.249 123.209 99.4482 185.368q17.5498 15.5391 62.0088 42.1797q31.5898 18.8691 70.1992 32.1895h32.7598q-51.4795 -18.8701 -98.2783 -79.9189
q-50.3096 -65.4893 -60.8398 -126.539l-5.84961 -32.1895q-2.33984 -13.3193 -2.33984 -17.7598q0 -12.21 2.33984 -23.3096q5.84961 -28.8594 19.8896 -62.1592l88.9189 21.0898q111.148 -14.4297 111.148 -149.848v-2.2207q-26.9102 -102.118 -142.738 -102.118zM331 -64
l161 155q77 57 229 75h94v-166h-94h-11q-102 0 -218 -120q-51 -55 -151 -241q-8 -15 -28 -15q-13 0 -33 9l-77 150q-31 70 -31 143v11q1 23 4 63h-176v166h74q138 0 275 157q75 -12 75 -37v-3q0 -7 -48 -98t-48 -184q0 -18 3 -65z" />
    <glyph glyph-name="uniFBE1" unicode="&#x6c5;" horiz-adv-x="829" arabic-form="final" 
d="M196 -446q136 92 212 193l-176 -34q-10 -6 -56 -65q-44 -56 -38 -84q10 -41 58 -10zM485 -149q91 73 91 153v9l-238 -60q-13 38 -13 103q1 146 46 266q53 141 131 142h3q82 0 180 -226q31 -72 118 -72h49v-166h-49q-83 0 -120 37q-3 -106 -17 -143q-83 -220 -221 -338
q-208 -177 -349 -238l-14 34q-35 156 -38 198q-6 84 14 158q19 72 92 112q65 35 70 35zM410 116q106 17 106 33q0 1 -1 2q-48 89 -75 106z" />
    <glyph glyph-name="uniFBDA" unicode="&#x6c6;" horiz-adv-x="919" arabic-form="final" 
d="M363 1015l79 60q0 -4 61 -110l58 -101q37 79 83 197l61 24q11 -32 11 -70q-13 -41 -137 -334q-17 -40 -41 -31l-101 199q-22 62 -74 166zM942 166v-166h-49q-83 0 -120 37q-3 -112 -17 -143q-50 -113 -336 -318q-249 -179 -378 -206q0 58 29 154q84 31 299 169
q14 9 220 173q76 59 76 137v10l-238 -60q-13 39 -13 103q1 141 46 266q51 142 133 142q86 0 181 -226q30 -72 118 -72h49zM500 116q106 17 106 33q0 1 -1 2q-48 89 -75 106z" />
    <glyph glyph-name="uniFBD8" unicode="&#x6c7;" horiz-adv-x="921" arabic-form="final" 
d="M744.328 1190.65q84.0986 -48.5547 74.8467 -167.537q-6.3291 -83.5029 -36.8535 -136.373q-18.3154 -31.7217 -42.6123 -57.4258q-86.9355 -92.0781 -178.81 -110.811q-22.9678 -4.68164 -74.791 -5.52441q-36.792 -0.545898 -76.8896 7.22266l-28.3701 16.3799
q54.0176 -9.39746 125.071 20.0732q76.3135 31.5605 115.958 79.166l21.1611 24.9521q8.68555 10.3652 10.9062 14.2109q6.10449 10.5742 9.62793 21.3564q9.36426 27.918 13.8545 63.7764l-87.5508 26.1953q-89.043 68.0703 -21.334 185.347l1.11035 1.92285
q74.3643 74.9824 174.675 17.0684zM942 166v-166h-49q-83 0 -120 37q-3 -112 -17 -143q-50 -113 -336 -318q-249 -179 -378 -206q0 58 29 154q84 31 299 169q14 9 220 173q76 59 76 137v10l-238 -60q-13 39 -13 103q1 141 46 266q51 142 133 142q86 0 181 -226
q30 -72 118 -72h49zM500 116q106 17 106 33q0 1 -1 2q-48 89 -75 106z" />
    <glyph glyph-name="uniFBDC" unicode="&#x6c8;" horiz-adv-x="911" arabic-form="final" 
d="M605.527 962.341q28.1572 -21.7412 28.1572 -73.7568q0 -3.30273 -2.44922 -71.5547q-1.63184 -45.4102 -1.63184 -63.8486q-1.63281 -40.7314 -1.63281 -85.041q0 -49.5381 6.12207 -55.5918l-56.3145 -33.5762q-19.9961 9.90723 -19.9961 73.4814
q0 1.10059 4.89648 95.2227q3.67383 78.4355 3.67383 101.828q0 53.1162 -15.5078 71.8311q34.2783 26.1445 54.6826 41.0059zM942 166v-166h-49q-83 0 -120 37q-3 -112 -17 -143q-50 -113 -336 -318q-249 -179 -378 -206q0 58 29 154q84 31 299 169q14 9 220 173
q76 59 76 137v10l-238 -60q-13 39 -13 103q1 141 46 266q51 142 133 142q86 0 181 -226q30 -72 118 -72h49zM500 116q106 17 106 33q0 1 -1 2q-48 89 -75 106z" />
    <glyph glyph-name="uniFBE3" unicode="&#x6c9;" horiz-adv-x="918" arabic-form="final" 
d="M762 682l-79 -60q0 4 -61 111l-58 100q-37 -79 -82 -196l-62 -24q-10 31 -10 69q30 99 136 334q18 40 41 31l101 -199q23 -61 74 -166zM942 166v-166h-49q-83 0 -120 37q-3 -112 -17 -143q-50 -113 -336 -318q-249 -179 -378 -206q0 58 29 154q84 31 299 169
q14 9 220 173q76 59 76 137v10l-238 -60q-13 39 -13 103q1 141 46 266q51 142 133 142q86 0 181 -226q30 -72 118 -72h49zM500 116q106 17 106 33q0 1 -1 2q-48 89 -75 106z" />
    </font>
</defs>
</svg>
